SplineFontDB: 3.2
FontName: Quicksand-Medium
FullName: Quicksand Medium
FamilyName: Quicksand Medium
Weight: Medium
Copyright: Copyright 2011 The Quicksand Project Authors (https://github.com/andrew-paglinawan/QuicksandFamily), with Reserved Font Name "Quicksand".
Version: 3.000
ItalicAngle: 0
UnderlinePosition: -100
UnderlineWidth: 50
Ascent: 800
Descent: 200
InvalidEm: 0
sfntRevision: 0x00030000
LayerCount: 2
Layer: 0 1 "Back" 1
Layer: 1 1 "Fore" 0
XUID: [1021 933 835020959 22279]
StyleMap: 0x0040
FSType: 0
OS2Version: 4
OS2_WeightWidthSlopeOnly: 0
OS2_UseTypoMetrics: 1
CreationTime: 1318445840
ModificationTime: 1772859879
PfmFamily: 81
TTFWeight: 500
TTFWidth: 5
LineGap: 0
VLineGap: 0
Panose: 0 0 6 0 0 0 0 0 0 0
OS2TypoAscent: 1000
OS2TypoAOffset: 0
OS2TypoDescent: -250
OS2TypoDOffset: 0
OS2TypoLinegap: 0
OS2WinAscent: 1183
OS2WinAOffset: 0
OS2WinDescent: 303
OS2WinDOffset: 0
HheadAscent: 1000
HheadAOffset: 0
HheadDescent: -250
HheadDOffset: 0
OS2SubXSize: 650
OS2SubYSize: 600
OS2SubXOff: 0
OS2SubYOff: 75
OS2SupXSize: 650
OS2SupYSize: 600
OS2SupXOff: 0
OS2SupYOff: 350
OS2StrikeYSize: 50
OS2StrikeYPos: 306
OS2CapHeight: 700
OS2XHeight: 511
OS2Vendor: 'PfEd'
OS2CodePages: 20000193.00000000
OS2UnicodeRanges: 2000000f.00000001.00000000.00000000
Lookup: 6 0 0 "'locl' Localized Forms in Latin lookup 0" { "'locl' Localized Forms in Latin lookup 0 contextual 0"  "'locl' Localized Forms in Latin lookup 0 contextual 1"  } ['locl' ('latn' <'CAT ' > ) ]
Lookup: 1 0 0 "'locl' Localized Forms in Latin lookup 1" { "'locl' Localized Forms in Latin lookup 1 subtable"  } ['locl' ('latn' <'ROM ' > ) ]
Lookup: 1 0 0 "'locl' Localized Forms in Latin lookup 2" { "'locl' Localized Forms in Latin lookup 2 subtable"  } ['locl' ('latn' <'MOL ' > ) ]
Lookup: 1 0 0 "'locl' Localized Forms in Latin lookup 3" { "'locl' Localized Forms in Latin lookup 3 subtable"  } ['locl' ('latn' <'KAZ ' > ) ]

StartChar: .notdef
Encoding: 65536 -1 0
Width: 584
Flags: W
LayerCount: 2
Fore
SplineSet
75 692 m 2,0,-1
 509 692 l 2,1,2
 536 692 536 692 536 665 c 2,3,-1
 536 35 l 2,4,5
 536 8 536 8 509 8 c 2,6,-1
 75 8 l 2,7,8
 48 8 48 8 48 35 c 2,9,-1
 48 665 l 2,10,11
 48 692 48 692 75 692 c 2,0,-1
83.844582472 671.577708764 m 0,12,13
 82.438300309 668.765144438 82.438300309 668.765144438 82.338356984 666.444201125 c 128,-1,14
 82.238413659 664.123257813 82.238413659 664.123257813 82.8416114156 663.208596663 c 2,15,-1
 83.4448091722 662.293935513 l 1,16,-1
 501.3857924 60.4991062987 l 2,17,18
 506.470860657 52.871503913 506.470860657 52.871503913 513.940285 54.7388599988 c 0,19,20
 522 56.7537887488 522 56.7537887488 522 67 c 2,21,-1
 522 665 l 2,22,23
 522 678 522 678 509 678 c 2,24,-1
 95 678 l 2,25,26
 87.05572809 678 87.05572809 678 83.844582472 671.577708764 c 0,12,13
75 22 m 2,27,-1
 488 22 l 2,28,29
 495.94427191 22 495.94427191 22 499.155417528 28.422291236 c 0,30,31
 500.571139698 31.2537355762 500.571139698 31.2537355762 500.682058425 33.5571182458 c 128,-1,32
 500.792977152 35.8605009154 500.792977152 35.8605009154 500.196034794 36.7481614149 c 2,33,-1
 499.599092436 37.6358219145 l 1,34,-1
 82.6167086763 639.497142087 l 2,35,36
 77.5291393432 647.128496087 77.5291393432 647.128496087 70.0597149997 645.261140001 c 0,37,38
 62 643.246211251 62 643.246211251 62 633 c 2,39,-1
 62 35 l 2,40,41
 62 22 62 22 75 22 c 2,27,-1
EndSplineSet
Validated: 524289
EndChar

StartChar: A
Encoding: 65 65 4
Width: 642
GlyphClass: 2
Flags: W
AnchorPoint: "Anchor-8" 0 0 basechar 0
AnchorPoint: "Anchor-7" 0 0 basechar 0
AnchorPoint: "Anchor-6" 323 700 basechar 0
AnchorPoint: "Anchor-5" 581 10 basechar 0
AnchorPoint: "Anchor-4" 323 0 basechar 0
LayerCount: 2
Fore
SplineSet
589.512695312 59.1689453125 m 2,0,1
 592 51.2470703125 592 51.2470703125 592 43 c 0,2,3
 592 26.40234375 592 26.40234375 580.951171875 15.7626953125 c 128,-1,4
 569.774414062 5 569.774414062 5 555 5 c 0,5,6
 543.635742188 5 543.635742188 5 534.254882812 11.93359375 c 0,7,8
 524.389648438 19.2255859375 524.389648438 19.2255859375 518.3125 32.2470703125 c 2,9,-1
 457.085558036 179.109375 l 1,10,-1
 455.11734375 184 l 1,11,-1
 450.051428571 184 l 1,12,-1
 155.177142857 184 l 1,13,-1
 150.066495536 184 l 1,14,-1
 148.118783482 179.048828125 l 1,15,-1
 87.603515625 31.048828125 l 1,16,-1
 87.498046875 30.79296875 l 2,17,18
 83.2509765625 18.0498046875 83.2509765625 18.0498046875 73.931640625 11.5673828125 c 128,-1,19
 64.4912109375 5 64.4912109375 5 53 5 c 0,20,21
 35.3134765625 5 35.3134765625 5 26.6572265625 13.6572265625 c 128,-1,22
 18 22.3134765625 18 22.3134765625 18 38 c 0,23,24
 18 41.1025390625 18 41.1025390625 19.7431640625 51.791015625 c 2,25,-1
 268.12953125 668.87109375 l 2,26,27
 273.89531808 682.680664062 273.89531808 682.680664062 284.003850446 689.884765625 c 0,28,29
 293.551367187 696.6875 293.551367187 696.6875 305.961741071 695.061523438 c 2,30,-1
 306.433292411 695 l 2,31,32
 318.911696429 695 318.911696429 695 328.439642857 688.34375 c 0,33,34
 337.711311384 681.866210938 337.711311384 681.866210938 341.654263393 669.469726562 c 2,35,-1
 341.742795759 669.193359375 l 1,36,-1
 589.512695312 59.1689453125 l 2,0,1
425.253046875 259 m 1,37,-1
 420.832952009 270.083984375 l 1,38,-1
 309.181523438 550.083984375 l 1,39,-1
 302.107321429 567.825195312 l 1,40,-1
 295.084375 550.061523438 l 1,41,-1
 184.387232143 270.061523438 l 1,42,-1
 180.013733259 259 l 1,43,-1
 191.44 259 l 1,44,-1
 413.788571429 259 l 1,45,-1
 425.253046875 259 l 1,37,-1
EndSplineSet
Validated: 524289
Substitution2: "Single Substitution lookup 20 subtable" ordfeminine
EndChar

StartChar: Aogonek
Encoding: 260 260 26
Width: 645
GlyphClass: 2
Flags: W
AnchorPoint: "Anchor-8" 0 0 basechar 0
AnchorPoint: "Anchor-7" 0 0 basechar 0
AnchorPoint: "Anchor-6" 323 700 basechar 0
AnchorPoint: "Anchor-5" 581 10 basechar 0
AnchorPoint: "Anchor-4" 323 0 basechar 0
LayerCount: 2
Fore
SplineSet
584 -112 m 0,0,1
 595.686523438 -112 595.686523438 -112 603.342773438 -119.657226562 c 128,-1,2
 611 -127.313476562 611 -127.313476562 611 -141 c 0,3,4
 611 -152.9140625 611 -152.9140625 598.572265625 -166.627929688 c 0,5,6
 585.251953125 -181.326171875 585.251953125 -181.326171875 563.3671875 -190.638671875 c 128,-1,7
 541.368164062 -200 541.368164062 -200 517 -200 c 0,8,9
 473.704144022 -200 473.704144022 -200 445.709069293 -175.377929688 c 0,10,11
 418.304347826 -151.275390625 418.304347826 -151.275390625 418.304347826 -106 c 0,12,13
 418.304347826 -60.078125 418.304347826 -60.078125 443.113196332 -31.3623046875 c 0,14,15
 468.786090353 -0.5 468.786090353 -0.5 512.189453125 19.5546875 c 2,16,-1
 519.432617188 22.8251953125 l 1,17,-1
 516.376953125 30.388671875 l 1,18,-1
 457.882302989 178.90625 l 1,19,-1
 455.914147418 184 l 1,20,-1
 450.826086957 184 l 1,21,-1
 155.260869565 184 l 1,22,-1
 150.138247283 184 l 1,23,-1
 148.185971467 178.861328125 l 1,24,-1
 87.603515625 25.271484375 l 1,25,-1
 87.498046875 25.005859375 l 2,26,27
 83.2509765625 11.7822265625 83.2509765625 11.7822265625 73.931640625 5.0537109375 c 128,-1,28
 64.4912109375 -1.7607421875 64.4912109375 -1.7607421875 53 -1.7607421875 c 0,29,30
 33.3134765625 -1.7607421875 33.3134765625 -1.7607421875 26.1572265625 5.666015625 c 128,-1,31
 19 13.0927734375 19 13.0927734375 19 30.41015625 c 2,32,-1
 19 35.5986328125 l 2,33,34
 19 42.1962890625 19 42.1962890625 21.376953125 47.953125 c 2,35,-1
 268.479789402 668.876953125 l 2,36,37
 274.257218071 682.680664062 274.257218071 682.680664062 284.389436141 689.884765625 c 0,38,39
 293.959324049 696.6875 293.959324049 696.6875 306.398777174 695.061523438 c 2,40,-1
 306.871433424 695 l 2,41,42
 319.379076087 695 319.379076087 695 328.929347826 688.34375 c 0,43,44
 338.222741168 681.866210938 338.222741168 681.866210938 342.174932065 669.469726562 c 2,45,-1
 342.262737772 669.196289062 l 1,46,-1
 596.612304688 35.525390625 l 1,47,-1
 596.8046875 35.044921875 l 2,48,49
 600 29.2431640625 600 29.2431640625 600 24.18359375 c 0,50,51
 600 15.578125 600 15.578125 595.145507812 8.990234375 c 128,-1,52
 590.39453125 2.54296875 590.39453125 2.54296875 580.0390625 0.0625 c 0,53,54
 538.252929688 -11.8623046875 538.252929688 -11.8623046875 509.946289062 -35.7978515625 c 0,55,56
 480.47826087 -60.19921875 480.47826087 -60.19921875 480.47826087 -89 c 0,57,58
 480.47826087 -113.209960938 480.47826087 -113.209960938 493.21875 -127.029296875 c 0,59,60
 506.58203125 -141 506.58203125 -141 525 -141 c 0,61,62
 545 -141 545 -141 556.46875 -125.708007812 c 0,63,64
 566.145507812 -112 566.145507812 -112 584 -112 c 0,0,1
425.969599185 259 m 1,65,-1
 421.539147418 270.083984375 l 1,66,-1
 309.62610394 550.083984375 l 1,67,-1
 302.535326087 567.825195312 l 1,68,-1
 295.495923913 550.061523438 l 1,69,-1
 184.539402174 270.061523438 l 1,70,-1
 180.155655571 259 l 1,71,-1
 191.608695652 259 l 1,72,-1
 414.47826087 259 l 1,73,-1
 425.969599185 259 l 1,65,-1
EndSplineSet
Validated: 524289
EndChar

StartChar: Aring
Encoding: 197 197 27
Width: 645
GlyphClass: 2
Flags: W
AnchorPoint: "Anchor-8" 0 0 basechar 0
AnchorPoint: "Anchor-7" 0 0 basechar 0
AnchorPoint: "Anchor-6" 323 853 basechar 0
AnchorPoint: "Anchor-5" 581 10 basechar 0
AnchorPoint: "Anchor-4" 0 0 basechar 0
LayerCount: 2
Fore
SplineSet
589.512695312 59.169921875 m 2,0,1
 592 51.2470703125 592 51.2470703125 592 43 c 0,2,3
 592 26.40234375 592 26.40234375 580.951171875 15.7626953125 c 128,-1,4
 569.774414062 5 569.774414062 5 555 5 c 0,5,6
 543.635742188 5 543.635742188 5 534.254882812 11.93359375 c 0,7,8
 524.389648438 19.2255859375 524.389648438 19.2255859375 518.3125 32.2470703125 c 2,9,-1
 457.085558036 179.109375 l 1,10,-1
 455.11734375 184 l 1,11,-1
 450.051428571 184 l 1,12,-1
 155.177142857 184 l 1,13,-1
 150.066495536 184 l 1,14,-1
 148.118783482 179.048828125 l 1,15,-1
 87.603515625 31.048828125 l 1,16,-1
 87.498046875 30.79296875 l 2,17,18
 83.2509765625 18.0498046875 83.2509765625 18.0498046875 73.931640625 11.5673828125 c 128,-1,19
 64.4912109375 5 64.4912109375 5 53 5 c 0,20,21
 35.3134765625 5 35.3134765625 5 26.6572265625 13.6572265625 c 128,-1,22
 18 22.3134765625 18 22.3134765625 18 38 c 0,23,24
 18 41.1025390625 18 41.1025390625 19.7431640625 51.791015625 c 2,25,-1
 263.388856027 664.2421875 l 1,26,-1
 265.972137277 670.90625 l 1,27,-1
 260.061902902 674.427734375 l 2,28,29
 237.891534598 687.638671875 237.891534598 687.638671875 224.13453683 710.77734375 c 0,30,31
 210.525714286 733.318359375 210.525714286 733.318359375 210.525714286 759 c 0,32,33
 210.525714286 798.575195312 210.525714286 798.575195312 239.174787946 827.2109375 c 128,-1,34
 267.976696429 856 267.976696429 856 306.908571429 856 c 0,35,36
 344.919709821 856 344.919709821 856 374.207148437 827.168945312 c 0,37,38
 403.291428571 798.5390625 403.291428571 798.5390625 403.291428571 759 c 0,39,40
 403.291428571 732.40234375 403.291428571 732.40234375 388.808465402 709.40625 c 0,41,42
 374.12141183 685.727539062 374.12141183 685.727539062 351.00328125 672.481445312 c 2,43,-1
 344.919709821 668.99609375 l 1,44,-1
 347.574748884 662.208007812 l 1,45,-1
 589.512695312 59.169921875 l 2,0,1
306.908571429 814 m 0,46,47
 283.947003348 814 283.947003348 814 267.934760045 798.95703125 c 0,48,49
 251.56 783.572265625 251.56 783.572265625 251.56 759 c 0,50,51
 251.56 735.517578125 251.56 735.517578125 267.829453125 719.64453125 c 0,52,53
 283.86499442 704 283.86499442 704 306.908571429 704 c 128,-1,54
 329.952148438 704 329.952148438 704 345.987689732 719.64453125 c 0,55,56
 362.257142857 735.517578125 362.257142857 735.517578125 362.257142857 759 c 0,57,58
 362.257142857 783.653320312 362.257142857 783.653320312 345.308320312 799.045898438 c 0,59,60
 328.842232143 814 328.842232143 814 306.908571429 814 c 0,46,47
425.253046875 259 m 1,61,-1
 420.832952009 270.083984375 l 1,62,-1
 309.181523438 550.083984375 l 1,63,-1
 302.107321429 567.825195312 l 1,64,-1
 295.084375 550.061523438 l 1,65,-1
 184.387232143 270.061523438 l 1,66,-1
 180.013733259 259 l 1,67,-1
 191.44 259 l 1,68,-1
 413.788571429 259 l 1,69,-1
 425.253046875 259 l 1,61,-1
EndSplineSet
Validated: 524289
EndChar

StartChar: AE
Encoding: 198 198 30
Width: 899
GlyphClass: 2
Flags: W
AnchorPoint: "Anchor-8" 0 0 basechar 0
AnchorPoint: "Anchor-7" 0 0 basechar 0
AnchorPoint: "Anchor-6" 608 700 basechar 0
AnchorPoint: "Anchor-5" 0 0 basechar 0
AnchorPoint: "Anchor-4" 458 0 basechar 0
LayerCount: 2
Fore
SplineSet
782.994140625 84 m 2,0,1
 800.6796875 84 800.6796875 84 812.336914062 72.3427734375 c 128,-1,2
 823.994140625 60.6865234375 823.994140625 60.6865234375 823.994140625 45 c 0,3,4
 823.994140625 28.58203125 823.994140625 28.58203125 812.666015625 18.4677734375 c 0,5,6
 800.942382812 8 800.942382812 8 782.994140625 8 c 2,7,-1
 458.781044282 8 l 2,8,9
 442.543924919 8 442.543924919 8 431.200652617 19.6572265625 c 128,-1,10
 419.858330576 31.3134765625 419.858330576 31.3134765625 419.858330576 48 c 2,11,-1
 419.858330576 154 l 1,12,-1
 419.858330576 162 l 1,13,-1
 412.073787835 162 l 1,14,-1
 169.77989502 162 l 1,15,-1
 165.66336192 162 l 1,16,-1
 163.345673963 158.50390625 l 1,17,-1
 70.4873046875 20.658203125 l 2,18,19
 57.931640625 4 57.931640625 4 41.994140625 4 c 0,20,21
 28.1220703125 4 28.1220703125 4 17.419921875 13.87890625 c 128,-1,22
 6.8115234375 23.6708984375 6.8115234375 23.6708984375 5.9794921875 39.4765625 c 0,23,24
 5.166015625 51.6845703125 5.166015625 51.6845703125 13.712890625 66.6484375 c 2,25,-1
 430.039432985 674.282226562 l 2,26,27
 443.174898599 692 443.174898599 692 466.565587023 692 c 2,28,-1
 782.994140625 692 l 2,29,30
 800.852539062 692 800.852539062 692 812.549804688 681.137695312 c 0,31,32
 823.994140625 670.51171875 823.994140625 670.51171875 823.994140625 653 c 0,33,34
 823.994140625 636.58203125 823.994140625 636.58203125 812.666015625 626.467773438 c 0,35,36
 800.942382812 616 800.942382812 616 782.994140625 616 c 2,37,-1
 507.434436413 616 l 1,38,-1
 499.649893672 616 l 1,39,-1
 499.649893672 608 l 1,40,-1
 499.649893672 401 l 1,41,-1
 499.649893672 393 l 1,42,-1
 507.434436413 393 l 1,43,-1
 737.994140625 393 l 2,44,45
 755.852539062 393 755.852539062 393 767.549804688 382.137695312 c 0,46,47
 778.994140625 371.51171875 778.994140625 371.51171875 778.994140625 354 c 0,48,49
 778.994140625 337.58203125 778.994140625 337.58203125 767.666015625 327.467773438 c 0,50,51
 755.942382812 317 755.942382812 317 737.994140625 317 c 2,52,-1
 507.434436413 317 l 1,53,-1
 499.649893672 317 l 1,54,-1
 499.649893672 309 l 1,55,-1
 499.649893672 92 l 1,56,-1
 499.649893672 84 l 1,57,-1
 507.434436413 84 l 1,58,-1
 782.994140625 84 l 2,0,1
70.59375 20.7998046875 m 2,59,60
 70.5400390625 20.728515625 70.5400390625 20.728515625 70.4873046875 20.658203125 c 0,61,-1
 70.59375 20.7998046875 l 2,59,60
215.372494651 236 m 1,62,-1
 230.110101263 236 l 1,63,-1
 412.073787835 236 l 1,64,-1
 419.858330576 236 l 1,65,-1
 419.858330576 244 l 1,66,-1
 419.858330576 518 l 1,67,-1
 419.858330576 543.9140625 l 1,68,-1
 405.643367825 522.509765625 l 1,69,-1
 223.679681252 248.509765625 l 1,70,-1
 215.372494651 236 l 1,62,-1
EndSplineSet
Validated: 524293
EndChar

StartChar: B
Encoding: 66 66 32
Width: 653
GlyphClass: 2
Flags: W
AnchorPoint: "Anchor-8" 0 0 basechar 0
AnchorPoint: "Anchor-7" 0 0 basechar 0
AnchorPoint: "Anchor-6" 327 700 basechar 0
AnchorPoint: "Anchor-5" 0 0 basechar 0
AnchorPoint: "Anchor-4" 327 0 basechar 0
LayerCount: 2
Fore
SplineSet
457.423846143 374.438476562 m 2,0,1
 510.239257812 356.180664062 510.239257812 356.180664062 544.301757812 314.44140625 c 0,2,3
 578 273.150390625 578 273.150390625 578 206 c 0,4,5
 578 99.0439453125 578 99.0439453125 516.755859375 53.94140625 c 0,6,7
 454.586265423 8 454.586265423 8 369.549815498 8 c 2,8,-1
 123 8 l 2,9,10
 106.313476562 8 106.313476562 8 94.6572265625 19.6572265625 c 128,-1,11
 83 31.3134765625 83 31.3134765625 83 48 c 2,12,-1
 83 652 l 2,13,14
 83 668.686523438 83 668.686523438 94.6572265625 680.342773438 c 128,-1,15
 106.313476562 692 106.313476562 692 123 692 c 2,16,-1
 369.549815498 692 l 2,17,18
 452.177813653 692 452.177813653 692 496.998046875 649.192382812 c 128,-1,19
 542 606.55859375 542 606.55859375 542 525 c 0,20,21
 542 479.2578125 542 479.2578125 520.180664062 443.682617188 c 128,-1,22
 498.4609375 408.26953125 498.4609375 408.26953125 456.766828586 389.283203125 c 2,23,-1
 439.590643738 380.985351562 l 1,24,-1
 457.423846143 374.438476562 l 2,0,1
455.177121771 510 m 128,-1,26
 455.177121771 560.408203125 455.177121771 560.408203125 428.870690152 587.268554688 c 128,-1,27
 402.691067516 614 402.691067516 614 356.376383764 614 c 2,28,-1
 177 614 l 1,29,-1
 169 614 l 1,30,-1
 169 606 l 1,31,-1
 169 411 l 1,32,-1
 169 403 l 1,33,-1
 177 403 l 1,34,-1
 358.35019315 403 l 2,35,36
 399.907702231 404.077148438 399.907702231 404.077148438 427.412386848 431.68359375 c 0,37,25
 455.177121771 459.551757812 455.177121771 459.551757812 455.177121771 510 c 128,-1,26
368.608856089 84 m 2,38,39
 423.162448109 84 423.162448109 84 456.333105108 114.4453125 c 0,40,41
 492 145.338867188 492 145.338867188 492 206 c 0,42,43
 492 325 492 325 363.904059041 325 c 2,44,-1
 177 325 l 1,45,-1
 169 325 l 1,46,-1
 169 317 l 1,47,-1
 169 92 l 1,48,-1
 169 84 l 1,49,-1
 177 84 l 1,50,-1
 368.608856089 84 l 2,38,39
EndSplineSet
Validated: 524289
EndChar

StartChar: C
Encoding: 67 67 33
Width: 638
GlyphClass: 2
Flags: W
AnchorPoint: "Anchor-8" 0 0 basechar 0
AnchorPoint: "Anchor-7" 0 0 basechar 0
AnchorPoint: "Anchor-6" 375 700 basechar 0
AnchorPoint: "Anchor-5" 0 0 basechar 0
AnchorPoint: "Anchor-4" 392 0 basechar 0
LayerCount: 2
Fore
SplineSet
554.127929688 643.999023438 m 0,0,1
 574 633.235351562 574 633.235351562 574 611 c 0,2,3
 574 595.806640625 574 595.806640625 563.674804688 582.900390625 c 0,4,5
 554 570 554 570 537 570 c 0,6,7
 525.016601562 570 525.016601562 570 513.86328125 576.005859375 c 0,8,9
 450.356952618 612 450.356952618 612 380.103896104 612 c 0,10,11
 306.977982955 612 306.977982955 612 250.71147017 577.938476562 c 128,-1,12
 194.319970069 543.801757812 194.319970069 543.801757812 162.954101562 482.2890625 c 0,13,14
 130 421.014648438 130 421.014648438 130 342 c 0,15,16
 130 256.9453125 130 256.9453125 163.938793628 195.14453125 c 0,17,18
 196.296621347 133.08984375 196.296621347 133.08984375 253.237139813 100.469726562 c 0,19,20
 309.917499493 68 309.917499493 68 380.103896104 68 c 0,21,22
 451.85402293 68 451.85402293 68 513.879882812 104.997070312 c 0,23,24
 524.333984375 110 524.333984375 110 536 110 c 0,25,26
 554.046875 110 554.046875 110 564.698242188 96.0712890625 c 0,27,28
 575 83.193359375 575 83.193359375 575 69 c 0,29,30
 575 59.275390625 575 59.275390625 569.698242188 50.7109375 c 128,-1,31
 564.311523438 42.009765625 564.311523438 42.009765625 555.119140625 36.99609375 c 0,32,33
 516.951171875 15.46484375 516.951171875 15.46484375 469.428710938 2.7275390625 c 0,34,35
 423.663364955 -10 423.663364955 -10 380.103896104 -10 c 0,36,37
 290.021370231 -10 290.021370231 -10 214.416079038 32.0751953125 c 0,38,39
 137.734375 74.01953125 137.734375 74.01953125 90.3857421875 154.072265625 c 128,-1,40
 43 234.188476562 43 234.188476562 43 342 c 0,41,42
 43 440.877929688 43 440.877929688 88.4482421875 520.53515625 c 128,-1,43
 133.864257812 600.135742188 133.864257812 600.135742188 210.843293425 645.551757812 c 0,44,45
 286.362482244 691 286.362482244 691 380.103896104 691 c 0,46,47
 470.897460938 691 470.897460938 691 554.127929688 643.999023438 c 0,0,1
EndSplineSet
Validated: 524289
EndChar

StartChar: Ccedilla
Encoding: 199 199 36
Width: 638
GlyphClass: 2
Flags: W
AnchorPoint: "Anchor-8" 0 0 basechar 0
AnchorPoint: "Anchor-7" 0 0 basechar 0
AnchorPoint: "Anchor-6" 0 0 basechar 0
AnchorPoint: "Anchor-5" 0 0 basechar 0
AnchorPoint: "Anchor-4" 364 -148 basechar 0
LayerCount: 2
Fore
SplineSet
564.698242188 96.0712890625 m 0,0,1
 575 83.193359375 575 83.193359375 575 69 c 0,2,3
 575 59.275390625 575 59.275390625 569.698242188 50.7109375 c 128,-1,4
 564.311523438 42.009765625 564.311523438 42.009765625 555.115234375 36.9931640625 c 0,5,6
 519.908203125 17.43359375 519.908203125 17.43359375 475.779296875 4.685546875 c 0,7,8
 432.905019785 -8.0498046875 432.905019785 -8.0498046875 391.14351664 -10.0078125 c 2,9,-1
 386.239384639 -10.23828125 l 1,10,-1
 384.429383117 -15.0517578125 l 1,11,-1
 342.772498985 -125.900390625 l 2,12,13
 333.460480925 -148 333.460480925 -148 316.584415584 -148 c 0,14,15
 303.516297179 -148 303.516297179 -148 286.356927252 -137.139648438 c 0,16,17
 271.077922078 -127.470703125 271.077922078 -127.470703125 271.077922078 -116 c 0,18,19
 271.077922078 -105.092773438 271.077922078 -105.092773438 278.58641944 -96.3818359375 c 0,20,-1
 278.994711343 -95.865234375 l 1,21,-1
 334.929776278 -18.865234375 l 1,22,-1
 342.93359375 -7.84765625 l 1,23,-1
 329.882140321 -6.06640625 l 2,24,25
 251.056805499 4.693359375 251.056805499 4.693359375 187.116071429 49.65625 c 0,26,27
 121.140625 94.5205078125 121.140625 94.5205078125 82.08984375 169.20703125 c 128,-1,28
 43 243.96484375 43 243.96484375 43 342 c 0,29,30
 43 440.877929688 43 440.877929688 88.4482421875 520.53515625 c 128,-1,31
 133.864257812 600.135742188 133.864257812 600.135742188 210.843293425 645.551757812 c 0,32,33
 286.362482244 691 286.362482244 691 380.103896104 691 c 0,34,35
 470.897460938 691 470.897460938 691 554.127929688 643.999023438 c 0,36,37
 574 633.235351562 574 633.235351562 574 611 c 0,38,39
 574 595.806640625 574 595.806640625 563.674804688 582.900390625 c 0,40,41
 554 570 554 570 537 570 c 0,42,43
 525.016601562 570 525.016601562 570 513.86328125 576.005859375 c 0,44,45
 450.356952618 612 450.356952618 612 380.103896104 612 c 0,46,47
 306.977982955 612 306.977982955 612 250.71147017 577.938476562 c 128,-1,48
 194.319970069 543.801757812 194.319970069 543.801757812 162.954101562 482.2890625 c 0,49,50
 130 421.014648438 130 421.014648438 130 342 c 0,51,52
 130 256.9453125 130 256.9453125 163.938793628 195.14453125 c 0,53,54
 196.296621347 133.08984375 196.296621347 133.08984375 253.237139813 100.469726562 c 0,55,56
 309.917499493 68 309.917499493 68 380.103896104 68 c 0,57,58
 451.85402293 68 451.85402293 68 513.879882812 104.997070312 c 0,59,60
 524.333984375 110 524.333984375 110 536 110 c 0,61,62
 554.046875 110 554.046875 110 564.698242188 96.0712890625 c 0,0,1
EndSplineSet
Validated: 524289
EndChar

StartChar: uni1E08
Encoding: 7688 7688 37
Width: 638
GlyphClass: 2
Flags: W
AnchorPoint: "Anchor-8" 0 0 basechar 0
AnchorPoint: "Anchor-7" 0 0 basechar 0
AnchorPoint: "Anchor-6" 0 0 basechar 0
AnchorPoint: "Anchor-5" 0 0 basechar 0
AnchorPoint: "Anchor-4" 364 -148 basechar 0
LayerCount: 2
Fore
SplineSet
358.298701299 757 m 0,0,1
 346.961888697 757 346.961888697 757 340.583832183 762.979492188 c 0,2,3
 334.597402597 768.592773438 334.597402597 768.592773438 334.597402597 778 c 0,4,5
 334.597402597 785.4453125 334.597402597 785.4453125 344.353820008 794.997070312 c 2,6,-1
 426.794528713 867.9609375 l 2,7,8
 443.690036526 884 443.690036526 884 461 884 c 0,9,10
 473.958007812 884 473.958007812 884 485.185546875 874.020507812 c 0,11,12
 496 864.407226562 496 864.407226562 496 851 c 0,13,14
 496 839.377929688 496 839.377929688 489.798828125 829.870117188 c 128,-1,15
 483.546875 820.283203125 483.546875 820.283203125 470.6171875 814.249023438 c 2,16,-1
 470.446289062 814.169921875 l 1,17,-1
 375.629350142 762.08203125 l 1,18,-1
 375.253462358 761.860351562 l 2,19,20
 367.574611912 757 367.574611912 757 358.298701299 757 c 0,0,1
344.353820008 794.997070312 m 1,21,-1
 344.353820008 794.997070312 l 1,21,-1
564.698242188 96.0712890625 m 0,22,23
 575 83.193359375 575 83.193359375 575 69 c 0,24,25
 575 59.275390625 575 59.275390625 569.698242188 50.7109375 c 128,-1,26
 564.311523438 42.009765625 564.311523438 42.009765625 555.115234375 36.9931640625 c 0,27,28
 519.908203125 17.43359375 519.908203125 17.43359375 475.779296875 4.685546875 c 0,29,30
 432.905019785 -8.0498046875 432.905019785 -8.0498046875 391.14351664 -10.0078125 c 2,31,-1
 386.239384639 -10.23828125 l 1,32,-1
 384.429383117 -15.0517578125 l 1,33,-1
 342.772498985 -125.900390625 l 2,34,35
 333.460480925 -148 333.460480925 -148 316.584415584 -148 c 0,36,37
 303.516297179 -148 303.516297179 -148 286.356927252 -137.139648438 c 0,38,39
 271.077922078 -127.470703125 271.077922078 -127.470703125 271.077922078 -116 c 0,40,41
 271.077922078 -105.092773438 271.077922078 -105.092773438 278.58641944 -96.3818359375 c 0,42,-1
 278.994711343 -95.865234375 l 1,43,-1
 334.929776278 -18.865234375 l 1,44,-1
 342.93359375 -7.84765625 l 1,45,-1
 329.882140321 -6.06640625 l 2,46,47
 251.056805499 4.693359375 251.056805499 4.693359375 187.116071429 49.65625 c 0,48,49
 121.140625 94.5205078125 121.140625 94.5205078125 82.08984375 169.20703125 c 128,-1,50
 43 243.96484375 43 243.96484375 43 342 c 0,51,52
 43 440.877929688 43 440.877929688 88.4482421875 520.53515625 c 128,-1,53
 133.864257812 600.135742188 133.864257812 600.135742188 210.843293425 645.551757812 c 0,54,55
 286.362482244 691 286.362482244 691 380.103896104 691 c 0,56,57
 470.897460938 691 470.897460938 691 554.127929688 643.999023438 c 0,58,59
 574 633.235351562 574 633.235351562 574 611 c 0,60,61
 574 595.806640625 574 595.806640625 563.674804688 582.900390625 c 0,62,63
 554 570 554 570 537 570 c 0,64,65
 525.016601562 570 525.016601562 570 513.86328125 576.005859375 c 0,66,67
 450.356952618 612 450.356952618 612 380.103896104 612 c 0,68,69
 306.977982955 612 306.977982955 612 250.71147017 577.938476562 c 128,-1,70
 194.319970069 543.801757812 194.319970069 543.801757812 162.954101562 482.2890625 c 0,71,72
 130 421.014648438 130 421.014648438 130 342 c 0,73,74
 130 256.9453125 130 256.9453125 163.938793628 195.14453125 c 0,75,76
 196.296621347 133.08984375 196.296621347 133.08984375 253.237139813 100.469726562 c 0,77,78
 309.917499493 68 309.917499493 68 380.103896104 68 c 0,79,80
 451.85402293 68 451.85402293 68 513.879882812 104.997070312 c 0,81,82
 524.333984375 110 524.333984375 110 536 110 c 0,83,84
 554.046875 110 554.046875 110 564.698242188 96.0712890625 c 0,22,23
EndSplineSet
Validated: 524289
EndChar

StartChar: D
Encoding: 68 68 40
Width: 717
GlyphClass: 2
Flags: W
AnchorPoint: "Anchor-8" 0 0 basechar 0
AnchorPoint: "Anchor-7" 131 350 basechar 0
AnchorPoint: "Anchor-6" 310 700 basechar 0
AnchorPoint: "Anchor-5" 0 0 basechar 0
AnchorPoint: "Anchor-4" 319 0 basechar 0
LayerCount: 2
Fore
SplineSet
361.047904192 692 m 2,0,1
 448.13956657 692 448.13956657 692 509.96070944 646.451171875 c 0,2,3
 574.540039062 600.758789062 574.540039062 600.758789062 607.64453125 523.354492188 c 0,4,5
 641 445.361328125 641 445.361328125 641 350 c 0,6,7
 641 253.638671875 641 253.638671875 607.64453125 175.645507812 c 0,8,9
 574.548828125 98.2607421875 574.548828125 98.2607421875 509.992321997 53.072265625 c 0,10,11
 448.160951534 8 448.160951534 8 361.047904192 8 c 2,12,-1
 123 8 l 2,13,14
 106.313476562 8 106.313476562 8 94.6572265625 19.6572265625 c 128,-1,15
 83 31.3134765625 83 31.3134765625 83 48 c 2,16,-1
 83 652 l 2,17,18
 83 668.686523438 83 668.686523438 94.6572265625 680.342773438 c 128,-1,19
 106.313476562 692 106.313476562 692 123 692 c 2,20,-1
 361.047904192 692 l 2,0,1
351.526946108 84 m 2,21,22
 452.595077423 84 452.595077423 84 503.427137912 159.897460938 c 0,23,24
 555 234.467773438 555 234.467773438 555 350 c 0,25,26
 555 464.538085938 555 464.538085938 502.945511321 539.611328125 c 0,27,28
 451.636473147 616 451.636473147 616 351.526946108 616 c 2,29,-1
 174 616 l 1,30,-1
 166 616 l 1,31,-1
 166 608 l 1,32,-1
 166 92 l 1,33,-1
 166 84 l 1,34,-1
 174 84 l 1,35,-1
 351.526946108 84 l 2,21,22
EndSplineSet
Validated: 524289
EndChar

StartChar: Eth
Encoding: 208 208 42
Width: 717
GlyphClass: 2
Flags: W
AnchorPoint: "Anchor-8" 0 0 basechar 0
AnchorPoint: "Anchor-7" 131 350 basechar 0
AnchorPoint: "Anchor-6" 310 700 basechar 0
AnchorPoint: "Anchor-5" 0 0 basechar 0
AnchorPoint: "Anchor-4" 319 0 basechar 0
LayerCount: 2
Fore
SplineSet
359.524271845 692 m 2,0,1
 447.445530567 692 447.445530567 692 509.855554081 646.451171875 c 0,2,3
 574.540039062 600.758789062 574.540039062 600.758789062 607.64453125 523.354492188 c 0,4,5
 641 445.361328125 641 445.361328125 641 350 c 0,6,7
 641 253.638671875 641 253.638671875 607.64453125 175.645507812 c 0,8,9
 574.548828125 98.2607421875 574.548828125 98.2607421875 509.887467764 53.072265625 c 0,10,11
 447.467119235 8 447.467119235 8 359.524271845 8 c 2,12,-1
 123 8 l 2,13,14
 106.313476562 8 106.313476562 8 94.6572265625 19.6572265625 c 128,-1,15
 83 31.3134765625 83 31.3134765625 83 48 c 2,16,-1
 83 308 l 1,17,-1
 83 316 l 1,18,-1
 75 316 l 1,19,-1
 45 316 l 2,20,21
 27.134765625 316 27.134765625 316 15.935546875 326.370117188 c 0,22,23
 5 336.495117188 5 336.495117188 5 352 c 128,-1,24
 5 367.407226562 5 367.407226562 15.814453125 377.020507812 c 0,25,26
 27.0419921875 387 27.0419921875 387 45 387 c 2,27,-1
 75 387 l 1,28,-1
 83 387 l 1,29,-1
 83 395 l 1,30,-1
 83 652 l 2,31,32
 83 668.686523438 83 668.686523438 94.6572265625 680.342773438 c 128,-1,33
 106.313476562 692 106.313476562 692 123 692 c 2,34,-1
 359.524271845 692 l 2,0,1
349.912621359 84 m 2,35,36
 451.94348263 84 451.94348263 84 503.259746663 159.897460938 c 0,37,38
 555 234.467773438 555 234.467773438 555 350 c 0,39,40
 555 464.538085938 555 464.538085938 502.773532312 539.611328125 c 0,41,42
 450.975747118 616 450.975747118 616 349.912621359 616 c 2,43,-1
 172.097087379 616 l 1,44,-1
 164.40776699 616 l 1,45,-1
 164.40776699 608 l 1,46,-1
 164.40776699 395 l 1,47,-1
 164.40776699 387 l 1,48,-1
 172.097087379 387 l 1,49,-1
 211.504854369 387 l 2,50,51
 228.76546382 387 228.76546382 387 239.556981948 377.020507812 c 0,52,53
 249.951456311 367.407226562 249.951456311 367.407226562 249.951456311 352 c 128,-1,54
 249.951456311 336.495117188 249.951456311 336.495117188 239.440590868 326.370117188 c 0,55,56
 228.676293234 316 228.676293234 316 211.504854369 316 c 2,57,-1
 172.097087379 316 l 1,58,-1
 164.40776699 316 l 1,59,-1
 164.40776699 308 l 1,60,-1
 164.40776699 92 l 1,61,-1
 164.40776699 84 l 1,62,-1
 172.097087379 84 l 1,63,-1
 349.912621359 84 l 2,35,36
EndSplineSet
Validated: 524289
EndChar

StartChar: E
Encoding: 69 69 49
Width: 570
GlyphClass: 2
Flags: W
AnchorPoint: "Anchor-8" 0 0 basechar 0
AnchorPoint: "Anchor-7" 0 0 basechar 0
AnchorPoint: "Anchor-6" 311 700 basechar 0
AnchorPoint: "Anchor-5" 452 10 basechar 0
AnchorPoint: "Anchor-4" 297 0 basechar 0
LayerCount: 2
Fore
SplineSet
455 84 m 2,0,1
 472.600585938 84 472.600585938 84 483.741210938 72.447265625 c 128,-1,2
 495 60.771484375 495 60.771484375 495 45 c 0,3,4
 495 28.4951171875 495 28.4951171875 484.064453125 18.3701171875 c 0,5,6
 472.865234375 8 472.865234375 8 455 8 c 2,7,-1
 123 8 l 2,8,9
 106.313476562 8 106.313476562 8 94.6572265625 19.6572265625 c 128,-1,10
 83 31.3134765625 83 31.3134765625 83 48 c 2,11,-1
 83 652 l 2,12,13
 83 668.686523438 83 668.686523438 94.6572265625 680.342773438 c 128,-1,14
 106.313476562 692 106.313476562 692 123 692 c 2,15,-1
 455 692 l 2,16,17
 472.774414062 692 472.774414062 692 483.951171875 681.237304688 c 128,-1,18
 495 670.59765625 495 670.59765625 495 653 c 0,19,20
 495 636.495117188 495 636.495117188 484.064453125 626.370117188 c 0,21,22
 472.865234375 616 472.865234375 616 455 616 c 2,23,-1
 174 616 l 1,24,-1
 166 616 l 1,25,-1
 166 608 l 1,26,-1
 166 404 l 1,27,-1
 166 396 l 1,28,-1
 174 396 l 1,29,-1
 410 396 l 2,30,31
 427.774414062 396 427.774414062 396 438.951171875 385.237304688 c 128,-1,32
 450 374.59765625 450 374.59765625 450 358 c 0,33,34
 450 340.592773438 450 340.592773438 439.185546875 330.979492188 c 0,35,36
 427.958007812 321 427.958007812 321 410 321 c 2,37,-1
 174 321 l 1,38,-1
 166 321 l 1,39,-1
 166 313 l 1,40,-1
 166 92 l 1,41,-1
 166 84 l 1,42,-1
 174 84 l 1,43,-1
 455 84 l 2,0,1
EndSplineSet
Validated: 524289
EndChar

StartChar: uni1E1C
Encoding: 7708 7708 53
Width: 570
GlyphClass: 2
Flags: W
AnchorPoint: "Anchor-8" 0 0 basechar 0
AnchorPoint: "Anchor-7" 0 0 basechar 0
AnchorPoint: "Anchor-6" 0 0 basechar 0
AnchorPoint: "Anchor-5" 452 10 basechar 0
AnchorPoint: "Anchor-4" 268 -148 basechar 0
LayerCount: 2
Fore
SplineSet
294.489361702 781 m 0,0,1
 247.207052028 781 247.207052028 781 212.861016456 804.759765625 c 0,2,3
 176.638671875 828.266601562 176.638671875 828.266601562 161.555664062 871.627929688 c 2,4,-1
 161.446289062 871.943359375 l 2,5,6
 158 879.697265625 158 879.697265625 158 887 c 0,7,8
 158 896.5234375 158 896.5234375 162.958984375 901.151367188 c 0,9,10
 168.153320312 906 168.153320312 906 178 906 c 0,11,12
 191.525390625 906 191.525390625 906 198.982421875 900.897460938 c 0,13,14
 206.792698637 895.3125 206.792698637 895.3125 218.001932347 879.465820312 c 0,15,16
 243.394697473 836 243.394697473 836 294.489361702 836 c 0,17,18
 348.569045047 836 348.569045047 836 371.221596576 879.885742188 c 0,19,20
 380.087890625 893.443359375 380.087890625 893.443359375 388.9375 899.34375 c 0,21,22
 397.421875 905 397.421875 905 411 905 c 0,23,24
 422.015625 905 422.015625 905 427.260742188 900.454101562 c 0,25,26
 432 896.346679688 432 896.346679688 432 887 c 0,27,28
 432 880.297851562 432 880.297851562 429.426757812 872.579101562 c 0,29,30
 414.348632812 829.228515625 414.348632812 829.228515625 377.161132812 805.220703125 c 0,31,32
 342.650826961 781 342.650826961 781 294.489361702 781 c 0,0,1
455 79.6826171875 m 2,33,34
 472.600585938 79.6826171875 472.600585938 79.6826171875 483.741210938 67.9189453125 c 128,-1,35
 495 56.0302734375 495 56.0302734375 495 39.9716796875 c 0,36,37
 495 23.1669921875 495 23.1669921875 484.064453125 12.8564453125 c 0,38,39
 472.865234375 2.2978515625 472.865234375 2.2978515625 455 2.2978515625 c 2,40,-1
 302.723404255 2.2978515625 l 1,41,-1
 297.753137467 2.2978515625 l 1,42,-1
 295.91977643 -2.84375 l 1,43,-1
 251.974505485 -126.135742188 l 2,44,45
 244.565118019 -148 244.565118019 -148 226.787234043 -148 c 0,46,47
 214.176176031 -148 214.176176031 -148 197.116210938 -137.139648438 c 0,48,49
 181 -127.470703125 181 -127.470703125 181 -116 c 0,50,51
 181 -105.092773438 181 -105.092773438 188.919921875 -96.3818359375 c 0,52,-1
 189.334960938 -95.884765625 l 1,53,-1
 249.051134475 -12.884765625 l 1,54,-1
 258.141102892 0.2568359375 l 1,55,-1
 243.255319149 0.2568359375 l 1,56,-1
 123 0.2568359375 l 2,57,58
 106.313476562 0.2568359375 106.313476562 0.2568359375 94.6572265625 12.146484375 c 128,-1,59
 83 24.0361328125 83 24.0361328125 83 41.0556640625 c 2,60,-1
 83 652 l 2,61,62
 83 668.686523438 83 668.686523438 94.6572265625 680.342773438 c 128,-1,63
 106.313476562 692 106.313476562 692 123 692 c 2,64,-1
 455 692 l 2,65,66
 472.774414062 692 472.774414062 692 483.951171875 681.237304688 c 128,-1,67
 495 670.59765625 495 670.59765625 495 653 c 0,68,69
 495 636.495117188 495 636.495117188 484.064453125 626.370117188 c 0,70,71
 472.865234375 616 472.865234375 616 455 616 c 2,72,-1
 174 616 l 1,73,-1
 166 616 l 1,74,-1
 166 608 l 1,75,-1
 166 404 l 1,76,-1
 166 396 l 1,77,-1
 174 396 l 1,78,-1
 410 396 l 2,79,80
 427.774414062 396 427.774414062 396 438.951171875 385.237304688 c 128,-1,81
 450 374.59765625 450 374.59765625 450 358 c 0,82,83
 450 340.592773438 450 340.592773438 439.185546875 330.979492188 c 0,84,85
 427.958007812 321 427.958007812 321 410 321 c 2,86,-1
 174 321 l 1,87,-1
 166 321 l 1,88,-1
 166 312.854492188 l 1,89,-1
 166 87.828125 l 1,90,-1
 166 79.6826171875 l 1,91,-1
 174 79.6826171875 l 1,92,-1
 455 79.6826171875 l 2,33,34
EndSplineSet
Validated: 524289
EndChar

StartChar: Eogonek
Encoding: 280 280 70
Width: 575
GlyphClass: 2
Flags: W
AnchorPoint: "Anchor-8" 0 0 basechar 0
AnchorPoint: "Anchor-7" 0 0 basechar 0
AnchorPoint: "Anchor-6" 294 700 basechar 0
AnchorPoint: "Anchor-5" 452 10 basechar 0
AnchorPoint: "Anchor-4" 297 0 basechar 0
LayerCount: 2
Fore
SplineSet
455 78.5087890625 m 2,0,1
 472.774414062 78.5087890625 472.774414062 78.5087890625 483.951171875 67.4970703125 c 128,-1,2
 495 56.611328125 495 56.611328125 495 38.60546875 c 0,3,4
 495 22.9794921875 495 22.9794921875 485.354492188 14.689453125 c 0,5,6
 474.368164062 5.248046875 474.368164062 5.248046875 453.383789062 0.580078125 c 0,7,8
 410.4921875 -7.982421875 410.4921875 -7.982421875 381.434570312 -32.30859375 c 0,9,10
 353.042553191 -57.208984375 353.042553191 -57.208984375 353.042553191 -88 c 0,11,12
 353.042553191 -112.21484375 353.042553191 -112.21484375 365.598217254 -126.53515625 c 0,13,14
 378.5859375 -141 378.5859375 -141 397 -141 c 0,15,16
 417 -141 417 -141 428.46875 -125.708007812 c 0,17,18
 438.145507812 -112 438.145507812 -112 457 -112 c 0,19,20
 468.565429688 -112 468.565429688 -112 475.700195312 -119.509765625 c 128,-1,21
 483 -127.194335938 483 -127.194335938 483 -141 c 0,22,23
 483 -152.9140625 483 -152.9140625 470.572265625 -166.627929688 c 0,24,25
 457.251953125 -181.326171875 457.251953125 -181.326171875 435.3671875 -190.638671875 c 128,-1,26
 413.368164062 -200 413.368164062 -200 389 -200 c 0,27,28
 347.478141622 -200 347.478141622 -200 320.70142121 -175.377929688 c 0,29,30
 294.489361702 -151.275390625 294.489361702 -151.275390625 294.489361702 -106 c 0,31,32
 294.489361702 -53.22265625 294.489361702 -53.22265625 346.193359375 -14.60546875 c 2,33,-1
 365.747423537 0.2900390625 l 1,34,-1
 342.063829787 0.2900390625 l 1,35,-1
 123 0.2900390625 l 2,36,37
 106.313476562 0.2900390625 106.313476562 0.2900390625 94.6572265625 12.1787109375 c 128,-1,38
 83 24.0673828125 83 24.0673828125 83 41.0849609375 c 2,39,-1
 83 652 l 2,40,41
 83 668.686523438 83 668.686523438 94.6572265625 680.342773438 c 128,-1,42
 106.313476562 692 106.313476562 692 123 692 c 2,43,-1
 455 692 l 2,44,45
 472.774414062 692 472.774414062 692 483.951171875 681.237304688 c 128,-1,46
 495 670.59765625 495 670.59765625 495 653 c 0,47,48
 495 638.40234375 495 638.40234375 483.951171875 627.762695312 c 128,-1,49
 472.774414062 617 472.774414062 617 455 617 c 2,50,-1
 174 617 l 1,51,-1
 166 617 l 1,52,-1
 166 609 l 1,53,-1
 166 404 l 1,54,-1
 166 396 l 1,55,-1
 174 396 l 1,56,-1
 410 396 l 2,57,58
 427.774414062 396 427.774414062 396 438.951171875 385.237304688 c 128,-1,59
 450 374.59765625 450 374.59765625 450 358 c 0,60,61
 450 343.399414062 450 343.399414062 438.447265625 332.258789062 c 128,-1,62
 426.771484375 321 426.771484375 321 410 321 c 2,63,-1
 174 321 l 1,64,-1
 166 321 l 1,65,-1
 166 312.814453125 l 1,66,-1
 166 86.6943359375 l 1,67,-1
 166 78.5087890625 l 1,68,-1
 174 78.5087890625 l 1,69,-1
 455 78.5087890625 l 2,0,1
EndSplineSet
Validated: 524289
EndChar

StartChar: F
Encoding: 70 70 72
Width: 564
GlyphClass: 2
Flags: W
AnchorPoint: "Anchor-8" 0 0 basechar 0
AnchorPoint: "Anchor-7" 130 195 basechar 0
AnchorPoint: "Anchor-6" 282 700 basechar 0
AnchorPoint: "Anchor-5" 0 0 basechar 0
AnchorPoint: "Anchor-4" 282 0 basechar 0
LayerCount: 2
Fore
SplineSet
165 616 m 1,0,-1
 165 608 l 1,1,-1
 165 401 l 1,2,-1
 165 393 l 1,3,-1
 173 393 l 1,4,-1
 403 393 l 2,5,6
 420.774414062 393 420.774414062 393 431.951171875 382.237304688 c 128,-1,7
 443 371.59765625 443 371.59765625 443 354 c 0,8,9
 443 339.40234375 443 339.40234375 431.951171875 328.762695312 c 128,-1,10
 420.774414062 318 420.774414062 318 403 318 c 2,11,-1
 173 318 l 1,12,-1
 165 318 l 1,13,-1
 165 310 l 1,14,-1
 165 48 l 2,15,16
 165 31.396484375 165 31.396484375 152.943359375 19.7548828125 c 128,-1,17
 140.768554688 8 140.768554688 8 124 8 c 0,18,19
 106.313476562 8 106.313476562 8 94.6572265625 19.6572265625 c 128,-1,20
 83 31.3134765625 83 31.3134765625 83 48 c 2,21,-1
 83 652 l 2,22,23
 83 668.686523438 83 668.686523438 94.6572265625 680.342773438 c 128,-1,24
 106.313476562 692 106.313476562 692 123 692 c 2,25,-1
 448 692 l 2,26,27
 465.774414062 692 465.774414062 692 476.951171875 681.237304688 c 128,-1,28
 488 670.59765625 488 670.59765625 488 653 c 0,29,30
 488 638.399414062 488 638.399414062 476.447265625 627.258789062 c 128,-1,31
 464.771484375 616 464.771484375 616 448 616 c 2,32,-1
 173 616 l 1,33,-1
 165 616 l 1,0,-1
EndSplineSet
Validated: 524289
EndChar

StartChar: G
Encoding: 71 71 73
Width: 695
GlyphClass: 2
Flags: W
AnchorPoint: "Anchor-8" 0 0 basechar 0
AnchorPoint: "Anchor-7" 0 0 basechar 0
AnchorPoint: "Anchor-6" 385 700 basechar 0
AnchorPoint: "Anchor-5" 0 0 basechar 0
AnchorPoint: "Anchor-4" 398 0 basechar 0
LayerCount: 2
Fore
SplineSet
573 360 m 2,0,1
 589.600585938 360 589.600585938 360 600.741210938 348.19140625 c 128,-1,2
 612 336.2578125 612 336.2578125 612 319.116210938 c 2,3,-1
 612 89.1435546875 l 2,4,5
 612 66.0791015625 612 66.0791015625 591.694335938 53.107421875 c 0,6,7
 546.596679688 23.0458984375 546.596679688 23.0458984375 492.701171875 6.51953125 c 0,8,9
 441.292204484 -10 441.292204484 -10 387.101449275 -10 c 0,10,11
 293.775823709 -10 293.775823709 -10 215.913980412 38.001953125 c 0,12,13
 136.83984375 86.00390625 136.83984375 86.00390625 89.9150390625 168.489257812 c 128,-1,14
 43 250.95703125 43 250.95703125 43 350 c 128,-1,15
 43 449.04296875 43 449.04296875 89.9150390625 531.510742188 c 128,-1,16
 136.83984375 613.99609375 136.83984375 613.99609375 215.913980412 661.998046875 c 0,17,18
 293.775823709 710 293.775823709 710 387.101449275 710 c 0,19,20
 433.892312047 710 433.892312047 710 477.369706748 699.21484375 c 0,21,22
 521.965820312 688.497070312 521.965820312 688.497070312 557.96875 667.08984375 c 0,23,24
 568.196289062 661.124023438 568.196289062 661.124023438 573.139648438 652.883789062 c 128,-1,25
 578 644.784179688 578 644.784179688 578 635 c 0,26,27
 578 618.147460938 578 618.147460938 566.64453125 605.951171875 c 0,28,29
 555.517578125 594 555.517578125 594 540 594 c 0,30,31
 527.330078125 594 527.330078125 594 518.294921875 599.749023438 c 0,32,-1
 517.352539062 600.263671875 l 1,33,34
 452.669562387 631 452.669562387 631 387.101449275 631 c 0,35,36
 316.362910439 631 316.362910439 631 257.831493433 593.837890625 c 128,-1,37
 199.327083333 556.69140625 199.327083333 556.69140625 165.418515059 491.98046875 c 0,38,39
 130 427.306640625 130 427.306640625 130 350 c 128,-1,40
 130 272.677734375 130 272.677734375 165.432484149 208.508789062 c 0,41,42
 199.327083333 144.353515625 199.327083333 144.353515625 257.791448709 106.703125 c 128,-1,43
 316.337766078 69 316.337766078 69 387.101449275 69 c 0,44,45
 420.329257246 69 420.329257246 69 456.877052197 77.4970703125 c 128,-1,46
 493.606445312 86.0185546875 493.606445312 86.0185546875 521.470703125 99.9599609375 c 2,47,-1
 526 102.2265625 l 1,48,-1
 526 107.451171875 l 1,49,-1
 526 272.686523438 l 1,50,-1
 526 281 l 1,51,-1
 518 281 l 1,52,-1
 401.405797101 281 l 2,53,54
 385.412120697 281 385.412120697 281 374.277824955 292.258789062 c 128,-1,55
 363.260869565 303.399414062 363.260869565 303.399414062 363.260869565 320 c 0,56,57
 363.260869565 337.600585938 363.260869565 337.600585938 374.277824955 348.741210938 c 128,-1,58
 385.412120697 360 385.412120697 360 401.405797101 360 c 2,59,-1
 573 360 l 2,0,1
EndSplineSet
Validated: 524289
EndChar

StartChar: H
Encoding: 72 72 80
Width: 719
GlyphClass: 2
Flags: W
AnchorPoint: "Anchor-8" 0 0 basechar 0
AnchorPoint: "Anchor-7" 360 350 basechar 0
AnchorPoint: "Anchor-6" 360 700 basechar 0
AnchorPoint: "Anchor-5" 0 0 basechar 0
AnchorPoint: "Anchor-4" 360 0 basechar 0
LayerCount: 2
Fore
SplineSet
563 692 m 0,0,1
 581.771484375 692 581.771484375 692 593.447265625 680.741210938 c 128,-1,2
 605 669.600585938 605 669.600585938 605 652 c 2,3,-1
 605 49.1962890625 l 2,4,5
 604.098632812 31.4130859375 604.098632812 31.4130859375 592.342773438 19.6572265625 c 128,-1,6
 580.686523438 8 580.686523438 8 562 8 c 0,7,8
 545.231445312 8 545.231445312 8 533.056640625 19.7548828125 c 128,-1,9
 521 31.396484375 521 31.396484375 521 49 c 2,10,-1
 521 308 l 1,11,-1
 521 316 l 1,12,-1
 513 316 l 1,13,-1
 174 316 l 1,14,-1
 166 316 l 1,15,-1
 166 308 l 1,16,-1
 166 49 l 2,17,18
 166 31.4765625 166 31.4765625 153.541015625 19.8486328125 c 0,19,20
 140.846679688 8 140.846679688 8 124 8 c 0,21,22
 105.399414062 8 105.399414062 8 94.2587890625 19.552734375 c 128,-1,23
 83 31.228515625 83 31.228515625 83 49 c 2,24,-1
 83 652 l 2,25,26
 83 668.686523438 83 668.686523438 94.6572265625 680.342773438 c 128,-1,27
 106.313476562 692 106.313476562 692 125 692 c 0,28,29
 141.768554688 692 141.768554688 692 153.943359375 680.245117188 c 128,-1,30
 166 668.603515625 166 668.603515625 166 652 c 2,31,-1
 166 400 l 1,32,-1
 166 392 l 1,33,-1
 174 392 l 1,34,-1
 513 392 l 1,35,-1
 521 392 l 1,36,-1
 521 400 l 1,37,-1
 521 652 l 2,38,39
 521 668.5234375 521 668.5234375 533.458984375 680.151367188 c 0,40,41
 546.153320312 692 546.153320312 692 563 692 c 0,0,1
605 49.1962890625 m 1,42,-1
 605 49.1962890625 l 1,42,-1
EndSplineSet
Validated: 524289
EndChar

StartChar: Hbar
Encoding: 294 294 81
Width: 816
GlyphClass: 2
Flags: W
AnchorPoint: "Anchor-8" 0 0 basechar 0
AnchorPoint: "Anchor-7" 408 350 basechar 0
AnchorPoint: "Anchor-6" 408 700 basechar 0
AnchorPoint: "Anchor-5" 0 0 basechar 0
AnchorPoint: "Anchor-4" 408 0 basechar 0
LayerCount: 2
Fore
SplineSet
692 563 m 2,0,1
 706.78515625 563 706.78515625 563 716.46484375 553.723632812 c 128,-1,2
 726 544.5859375 726 544.5859375 726 530 c 0,3,4
 726 516.4140625 726 516.4140625 716.46484375 507.276367188 c 128,-1,5
 706.78515625 498 706.78515625 498 692 498 c 2,6,-1
 661 498 l 1,7,-1
 653 498 l 1,8,-1
 653 490 l 1,9,-1
 653 49 l 2,10,11
 653 31.396484375 653 31.396484375 640.943359375 19.7548828125 c 128,-1,12
 628.768554688 8 628.768554688 8 610 8 c 0,13,14
 593.771680569 8 593.771680569 8 582.536423797 19.6572265625 c 128,-1,15
 571.300225734 31.3134765625 571.300225734 31.3134765625 571.300225734 49 c 2,16,-1
 571.300225734 308 l 1,17,-1
 571.300225734 316 l 1,18,-1
 563.589164786 316 l 1,19,-1
 220.446952596 316 l 1,20,-1
 212.735891648 316 l 1,21,-1
 212.735891648 308 l 1,22,-1
 212.735891648 49 l 2,23,24
 212.735891648 31.4765625 212.735891648 31.4765625 200.726893165 19.8486328125 c 0,25,26
 188.491043401 8 188.491043401 8 172 8 c 0,27,28
 153.399414062 8 153.399414062 8 142.258789062 19.552734375 c 128,-1,29
 131 31.228515625 131 31.228515625 131 49 c 2,30,-1
 131 490 l 1,31,-1
 131 498 l 1,32,-1
 123 498 l 1,33,-1
 92 498 l 2,34,35
 77.3134765625 498 77.3134765625 498 68.1572265625 507.157226562 c 128,-1,36
 59 516.313476562 59 516.313476562 59 531 c 0,37,38
 59 544.686523438 59 544.686523438 68.1572265625 553.842773438 c 128,-1,39
 77.3134765625 563 77.3134765625 563 92 563 c 2,40,-1
 123 563 l 1,41,-1
 131 563 l 1,42,-1
 131 571 l 1,43,-1
 131 652 l 2,44,45
 131 668.603515625 131 668.603515625 143.056640625 680.245117188 c 128,-1,46
 155.231445312 692 155.231445312 692 174 692 c 0,47,48
 189.37962269 692 189.37962269 692 201.114705312 680.245117188 c 128,-1,49
 212.735891648 668.603515625 212.735891648 668.603515625 212.735891648 652 c 2,50,-1
 212.735891648 571 l 1,51,-1
 212.735891648 563 l 1,52,-1
 220.446952596 563 l 1,53,-1
 563.589164786 563 l 1,54,-1
 571.300225734 563 l 1,55,-1
 571.300225734 571 l 1,56,-1
 571.300225734 652 l 2,57,58
 571.300225734 668.5234375 571.300225734 668.5234375 583.309224217 680.151367188 c 0,59,60
 595.545073981 692 595.545073981 692 612 692 c 0,61,62
 630.686523438 692 630.686523438 692 641.842773438 680.842773438 c 128,-1,63
 653 669.686523438 653 669.686523438 653 652 c 2,64,-1
 653 571 l 1,65,-1
 653 563 l 1,66,-1
 661 563 l 1,67,-1
 692 563 l 2,0,1
571.300225734 498 m 1,68,-1
 563.589164786 498 l 1,69,-1
 220.446952596 498 l 1,70,-1
 212.735891648 498 l 1,71,-1
 212.735891648 490 l 1,72,-1
 212.735891648 400 l 1,73,-1
 212.735891648 392 l 1,74,-1
 220.446952596 392 l 1,75,-1
 563.589164786 392 l 1,76,-1
 571.300225734 392 l 1,77,-1
 571.300225734 400 l 1,78,-1
 571.300225734 490 l 1,79,-1
 571.300225734 498 l 1,68,-1
EndSplineSet
Validated: 524289
EndChar

StartChar: I
Encoding: 73 73 85
Width: 265
GlyphClass: 2
Flags: W
AnchorPoint: "Anchor-8" 0 0 basechar 0
AnchorPoint: "Anchor-7" 0 0 basechar 0
AnchorPoint: "Anchor-6" 134 700 basechar 0
AnchorPoint: "Anchor-5" 241 10 basechar 0
AnchorPoint: "Anchor-4" 134 0 basechar 0
LayerCount: 2
Fore
SplineSet
166 49 m 2,0,1
 166 31.4765625 166 31.4765625 153.541015625 19.8486328125 c 0,2,3
 140.846679688 8 140.846679688 8 124 8 c 0,4,5
 105.399414062 8 105.399414062 8 94.2587890625 19.552734375 c 128,-1,6
 83 31.228515625 83 31.228515625 83 49 c 2,7,-1
 83 652 l 2,8,9
 83 668.686523438 83 668.686523438 94.6572265625 680.342773438 c 128,-1,10
 106.313476562 692 106.313476562 692 125 692 c 0,11,12
 141.768554688 692 141.768554688 692 153.943359375 680.245117188 c 128,-1,13
 166 668.603515625 166 668.603515625 166 652 c 2,14,-1
 166 49 l 2,0,1
EndSplineSet
Validated: 524289
EndChar

StartChar: IJ
Encoding: 306 306 86
Width: 592
GlyphClass: 2
Flags: W
AnchorPoint: "Anchor-8" 0 0 basechar 0
AnchorPoint: "Anchor-7" 0 0 basechar 0
AnchorPoint: "Anchor-6" 79 700 basechar 0
AnchorPoint: "Anchor-5" 78 10 basechar 0
AnchorPoint: "Anchor-4" -29 164 basechar 0
LayerCount: 2
Fore
SplineSet
264.6 -10 m 0,0,1
 213.060248162 -10 213.060248162 -10 166.438476562 16.962890625 c 0,2,3
 118.796875 43.912109375 118.796875 43.912109375 90.8095703125 91.2021484375 c 0,4,5
 83 103.349609375 83 103.349609375 83 114 c 0,6,7
 83 129.4375 83 129.4375 95.3515625 140.553710938 c 0,8,9
 108.0703125 152 108.0703125 152 121 152 c 0,10,11
 139.895507812 152 139.895507812 152 158.634765625 130.142578125 c 0,12,13
 202.375 69 202.375 69 264.6 69 c 0,14,15
 317.36853171 69 317.36853171 69 353.902837776 109.290039062 c 0,16,17
 394 149.668945312 394 149.668945312 394 208.538085938 c 2,18,-1
 394 658.958984375 l 2,19,20
 394 675.913085938 394 675.913085938 406.458984375 687.84375 c 0,21,22
 419.153320312 700 419.153320312 700 436 700 c 0,23,24
 454.686523438 700 454.686523438 700 465.842773438 688.5859375 c 128,-1,25
 477 677.171875 477 677.171875 477 659.078125 c 2,26,-1
 477 209.95703125 l 2,27,28
 477 149.779296875 477 149.779296875 448.104492188 99.5244140625 c 128,-1,29
 419.192382812 49.240234375 419.192382812 49.240234375 368.059570312 19.6298828125 c 0,30,31
 320.667394301 -10 320.667394301 -10 264.6 -10 c 0,0,1
175 303 m 2,32,33
 175 286.4765625 175 286.4765625 162.541015625 274.848632812 c 0,34,35
 149.846679688 263 149.846679688 263 133 263 c 0,36,37
 114.313476562 263 114.313476562 263 103.157226562 274.157226562 c 128,-1,38
 92 285.313476562 92 285.313476562 92 303 c 2,39,-1
 92 660 l 2,40,41
 92 676.603515625 92 676.603515625 104.056640625 688.245117188 c 128,-1,42
 116.231445312 700 116.231445312 700 135 700 c 0,43,44
 150.768554688 700 150.768554688 700 162.943359375 688.245117188 c 128,-1,45
 175 676.603515625 175 676.603515625 175 660 c 2,46,-1
 175 303 l 2,32,33
EndSplineSet
Validated: 524289
EndChar

StartChar: Iogonek
Encoding: 302 302 100
Width: 261
GlyphClass: 2
Flags: W
AnchorPoint: "Anchor-8" 0 0 basechar 0
AnchorPoint: "Anchor-7" 0 0 basechar 0
AnchorPoint: "Anchor-6" 133 700 basechar 0
AnchorPoint: "Anchor-5" 241 10 basechar 0
AnchorPoint: "Anchor-4" 134 0 basechar 0
LayerCount: 2
Fore
SplineSet
156 -112 m 0,0,1
 167.686523438 -112 167.686523438 -112 175.342773438 -119.657226562 c 128,-1,2
 183 -127.313476562 183 -127.313476562 183 -141 c 0,3,4
 183 -152.9140625 183 -152.9140625 170.572265625 -166.627929688 c 0,5,6
 157.251953125 -181.326171875 157.251953125 -181.326171875 135.3671875 -190.638671875 c 128,-1,7
 113.368164062 -200 113.368164062 -200 89 -200 c 0,8,9
 44.91796875 -200 44.91796875 -200 15.650390625 -175.377929688 c 0,10,11
 1.30859375 -163.313476562 1.30859375 -163.313476562 -5.845703125 -146.165039062 c 128,-1,12
 -13 -129.016601562 -13 -129.016601562 -13 -106 c 0,13,14
 -13 -24.4931640625 -13 -24.4931640625 77.3623046875 18.2060546875 c 2,15,-1
 82 20.3984375 l 1,16,-1
 82 25.6123046875 l 1,17,-1
 82 659.189453125 l 2,18,19
 82 676.047851562 82 676.047851562 94.458984375 687.911132812 c 0,20,21
 107.153320312 700 107.153320312 700 126 700 c 128,-1,22
 144.768554688 700 144.768554688 700 156.943359375 687.983398438 c 128,-1,23
 169 676.083007812 169 676.083007812 169 659.109375 c 2,24,-1
 169 26.330078125 l 2,25,26
 169 7.689453125 169 7.689453125 150.526367188 1.39453125 c 0,27,28
 108.182617188 -12.330078125 108.182617188 -12.330078125 80.53125 -34.73046875 c 0,29,30
 51 -58.1318359375 51 -58.1318359375 51 -88 c 0,31,32
 51 -112.21484375 51 -112.21484375 64.7236328125 -126.53515625 c 128,-1,33
 78.5859375 -141 78.5859375 -141 97 -141 c 0,34,35
 108.125 -141 108.125 -141 116.96875 -135.946289062 c 0,36,37
 124.80078125 -131.470703125 124.80078125 -131.470703125 132.461914062 -123.8515625 c 0,38,39
 139.766601562 -117.481445312 139.766601562 -117.481445312 145.03125 -114.41015625 c 0,40,41
 149.163085938 -112 149.163085938 -112 156 -112 c 0,0,1
132.657226562 -123.657226562 m 2,42,-1
 132.461914062 -123.8515625 l 0,43,44
 132.559570312 -123.75390625 132.559570312 -123.75390625 132.657226562 -123.657226562 c 2,42,-1
EndSplineSet
Validated: 524293
EndChar

StartChar: J
Encoding: 74 74 102
Width: 560
GlyphClass: 2
Flags: W
AnchorPoint: "Anchor-8" 0 0 basechar 0
AnchorPoint: "Anchor-7" 0 0 basechar 0
AnchorPoint: "Anchor-6" 428 700 basechar 0
AnchorPoint: "Anchor-5" 0 0 basechar 0
AnchorPoint: "Anchor-4" 280 0 basechar 0
LayerCount: 2
Fore
SplineSet
232.6 -10 m 0,0,1
 181.060248162 -10 181.060248162 -10 134.438476562 16.962890625 c 0,2,3
 86.796875 43.912109375 86.796875 43.912109375 58.8095703125 91.2021484375 c 0,4,5
 51 103.349609375 51 103.349609375 51 114 c 0,6,7
 51 129.4375 51 129.4375 63.3515625 140.553710938 c 0,8,9
 76.0703125 152 76.0703125 152 89 152 c 0,10,11
 107.130859375 152 107.130859375 152 127.703125 130.028320312 c 1,12,13
 169.265625 69 169.265625 69 232.6 69 c 0,14,15
 285.36853171 69 285.36853171 69 321.902837776 109.290039062 c 0,16,17
 362 149.668945312 362 149.668945312 362 208.538085938 c 2,18,-1
 362 658.958984375 l 2,19,20
 362 675.913085938 362 675.913085938 374.458984375 687.84375 c 0,21,22
 387.153320312 700 387.153320312 700 404 700 c 0,23,24
 422.686523438 700 422.686523438 700 433.842773438 688.5859375 c 128,-1,25
 445 677.171875 445 677.171875 445 659.078125 c 2,26,-1
 445 209.95703125 l 2,27,28
 445 149.779296875 445 149.779296875 416.104492188 99.5244140625 c 128,-1,29
 387.18359375 49.224609375 387.18359375 49.224609375 336.53125 19.61328125 c 0,30,31
 289.557352941 -10 289.557352941 -10 232.6 -10 c 0,0,1
EndSplineSet
Validated: 524289
EndChar

StartChar: K
Encoding: 75 75 104
Width: 663
GlyphClass: 2
Flags: W
AnchorPoint: "Anchor-8" 0 0 basechar 0
AnchorPoint: "Anchor-7" 0 0 basechar 0
AnchorPoint: "Anchor-6" 332 700 basechar 0
AnchorPoint: "Anchor-5" 0 0 basechar 0
AnchorPoint: "Anchor-4" 319 0 basechar 0
LayerCount: 2
Fore
SplineSet
584.708984375 84.0576171875 m 2,0,1
 594 72.2333984375 594 72.2333984375 594 56 c 0,2,3
 594 37.7041015625 594 37.7041015625 580.32421875 26.099609375 c 0,4,5
 566.063476562 14 566.063476562 14 548 14 c 0,6,7
 531.747070312 14 531.747070312 14 519.234375 29.015625 c 2,8,-1
 287.339860763 341.90625 l 1,9,-1
 282.231316012 348.875 l 1,10,-1
 276.180364629 342.810546875 l 1,11,-1
 168.500976562 236.810546875 l 1,12,-1
 166 234.443359375 l 1,13,-1
 166 231 l 1,14,-1
 166 57 l 2,15,16
 166 39.3134765625 166 39.3134765625 154.342773438 27.6572265625 c 128,-1,17
 142.686523438 16 142.686523438 16 124 16 c 128,-1,18
 105.399414062 16 105.399414062 16 94.2587890625 27.552734375 c 128,-1,19
 83 39.228515625 83 39.228515625 83 57 c 2,20,-1
 83 660 l 2,21,22
 83 676.686523438 83 676.686523438 94.6572265625 688.342773438 c 128,-1,23
 106.313476562 700 106.313476562 700 125 700 c 128,-1,24
 143.686523438 700 143.686523438 700 154.842773438 688.842773438 c 128,-1,25
 166 677.686523438 166 677.686523438 166 660 c 2,26,-1
 166 349 l 1,27,-1
 166 330.108398438 l 1,28,-1
 179.567382812 343.254882812 l 1,29,-1
 518.453125 687.14453125 l 2,30,31
 535.056640625 702 535.056640625 702 551 702 c 0,32,33
 565.346679688 702 565.346679688 702 575.954101562 689.760742188 c 0,34,35
 587 677.015625 587 677.015625 587 663 c 0,36,37
 587 651.373046875 587 651.373046875 575.245117188 637.568359375 c 2,38,-1
 346.058617569 413.814453125 l 1,39,-1
 341.083780216 408.833984375 l 1,40,-1
 345.274815576 403.102539062 l 1,41,-1
 584.708984375 84.0576171875 l 2,0,1
EndSplineSet
Validated: 524289
EndChar

StartChar: L
Encoding: 76 76 106
Width: 550
GlyphClass: 2
Flags: W
AnchorPoint: "Anchor-8" 530 700 basechar 0
AnchorPoint: "Anchor-7" 275 350 basechar 0
AnchorPoint: "Anchor-6" 125 700 basechar 0
AnchorPoint: "Anchor-5" 0 0 basechar 0
AnchorPoint: "Anchor-4" 283 0 basechar 0
LayerCount: 2
Fore
SplineSet
445 93 m 2,0,1
 462.774414062 93 462.774414062 93 473.951171875 82.2373046875 c 128,-1,2
 485 71.59765625 485 71.59765625 485 54 c 0,3,4
 485 37.40234375 485 37.40234375 473.951171875 26.7626953125 c 128,-1,5
 462.774414062 16 462.774414062 16 445 16 c 2,6,-1
 123 16 l 2,7,8
 105.399414062 16 105.399414062 16 94.2587890625 27.552734375 c 128,-1,9
 83 39.228515625 83 39.228515625 83 56 c 2,10,-1
 83 660 l 2,11,12
 83 676.686523438 83 676.686523438 94.6572265625 688.342773438 c 128,-1,13
 106.313476562 700 106.313476562 700 125 700 c 0,14,15
 141.768554688 700 141.768554688 700 153.943359375 688.245117188 c 128,-1,16
 166 676.603515625 166 676.603515625 166 660 c 2,17,-1
 166 101 l 1,18,-1
 166 93 l 1,19,-1
 174 93 l 1,20,-1
 445 93 l 2,0,1
EndSplineSet
Validated: 524289
EndChar

StartChar: Lcaron
Encoding: 317 317 109
Width: 550
Flags: W
LayerCount: 2
Fore
SplineSet
445 95 m 2,0,1
 462.600585938 95 462.600585938 95 473.741210938 83.447265625 c 128,-1,2
 485 71.771484375 485 71.771484375 485 55 c 128,-1,3
 485 38.3134765625 485 38.3134765625 473.842773438 27.1572265625 c 128,-1,4
 462.686523438 16 462.686523438 16 445 16 c 2,5,-1
 123 16 l 2,6,7
 105.399414062 16 105.399414062 16 94.2587890625 27.552734375 c 128,-1,8
 83 39.228515625 83 39.228515625 83 56 c 2,9,-1
 83 660 l 2,10,11
 83 676.686523438 83 676.686523438 94.6572265625 688.342773438 c 128,-1,12
 106.313476562 700 106.313476562 700 123 700 c 128,-1,13
 139.600585938 700 139.600585938 700 150.741210938 688.447265625 c 128,-1,14
 162 676.771484375 162 676.771484375 162 660 c 2,15,-1
 162 111 l 2,16,17
 162 95 162 95 178 95 c 2,18,-1
 445 95 l 2,0,1
484 602 m 0,19,20
 484 577.862304688 484 577.862304688 468.822265625 547.033203125 c 0,21,22
 453.484375 515.877929688 453.484375 515.877929688 430.088867188 494.392578125 c 0,23,24
 407.883789062 474 407.883789062 474 385 474 c 0,25,26
 370.73046875 474 370.73046875 474 362.171008164 480.830078125 c 0,27,28
 354.988764045 486.928710938 354.988764045 486.928710938 354.988764045 499 c 0,29,30
 354.988764045 508.3203125 354.988764045 508.3203125 358.816746401 511.92578125 c 0,31,32
 364.059669066 516.86328125 364.059669066 516.86328125 371.909179688 519.37109375 c 0,33,34
 381.693359375 522.4609375 381.693359375 522.4609375 386.970703125 524.572265625 c 0,35,-1
 387.578125 524.844726562 l 2,36,37
 420 541.055664062 420 541.055664062 420 576 c 0,38,39
 420 590.45703125 420 590.45703125 408.983398438 600.825195312 c 0,40,41
 398.172851562 611 398.172851562 611 381 611 c 0,42,43
 365.676757812 611 365.676757812 611 354.739016415 604.329101562 c 1,44,45
 349.965370435 607.702148438 349.965370435 607.702148438 347.395014045 611.9375 c 0,46,47
 344.06741573 617.421875 344.06741573 617.421875 344.06741573 627.833007812 c 0,48,49
 344.826435218 647.844726562 344.826435218 647.844726562 364.780470945 664.069335938 c 0,50,51
 387.637695312 681 387.637695312 681 413 681 c 0,52,53
 446.471679688 681 446.471679688 681 465.091796875 660.60546875 c 0,54,55
 484 639.897460938 484 639.897460938 484 602 c 0,19,20
EndSplineSet
Validated: 524289
EndChar

StartChar: Lslash
Encoding: 321 321 115
Width: 611
Flags: W
LayerCount: 2
Fore
SplineSet
506 95 m 2,0,1
 523.600585938 95 523.600585938 95 534.741210938 83.447265625 c 128,-1,2
 546 71.771484375 546 71.771484375 546 55 c 128,-1,3
 546 38.3134765625 546 38.3134765625 534.842773438 27.1572265625 c 128,-1,4
 523.686523438 16 523.686523438 16 506 16 c 2,5,-1
 182.638297872 16 l 2,6,7
 166.03632674 16 166.03632674 16 155.258789062 27.552734375 c 0,8,9
 144 39.228515625 144 39.228515625 144 56 c 2,10,-1
 144 326 l 1,11,-1
 144 338.202148438 l 1,12,-1
 132.810546875 333.336914062 l 1,13,-1
 87.109375 313.466796875 l 2,14,15
 76.4033203125 310 76.4033203125 310 72 310 c 0,16,17
 56.9130859375 310 56.9130859375 310 48.814453125 320.411132812 c 0,18,19
 40 331.745117188 40 331.745117188 40 345 c 0,20,21
 40 353.62890625 40 353.62890625 45.2080078125 361.639648438 c 128,-1,22
 50.359375 369.56640625 50.359375 369.56640625 60.1591796875 373.649414062 c 2,23,-1
 139.240234375 408.685546875 l 1,24,-1
 144 410.793945312 l 1,25,-1
 144 416 l 1,26,-1
 144 660 l 2,27,28
 144 676.686523438 144 676.686523438 155.657226562 688.342773438 c 0,29,30
 166.898527538 700 166.898527538 700 182.638297872 700 c 128,-1,31
 198.297006594 700 198.297006594 700 208.805539395 688.447265625 c 128,-1,32
 219.425531915 676.771484375 219.425531915 676.771484375 219.425531915 660 c 2,33,-1
 219.425531915 458 l 1,34,-1
 219.425531915 445.745117188 l 1,35,-1
 230.007757092 450.676757812 l 1,36,-1
 315.844636525 490.676757812 l 1,37,-1
 316.183621454 490.844726562 l 2,38,39
 322.136123116 494 322.136123116 494 330.730496454 494 c 0,40,41
 344.961415392 494 344.961415392 494 352.600551308 483.588867188 c 0,42,43
 360.914893617 472.254882812 360.914893617 472.254882812 360.914893617 460 c 0,44,45
 360.914893617 441.006835938 360.914893617 441.006835938 340.713049922 430.236328125 c 2,46,-1
 223.912476452 375.3125 l 1,47,-1
 219.425531915 373.203125 l 1,48,-1
 219.425531915 368 l 1,49,-1
 219.425531915 103 l 1,50,-1
 219.425531915 95 l 1,51,-1
 226.971631206 95 l 1,52,-1
 506 95 l 2,0,1
340.561059397 422.155273438 m 2,53,-1
 340.713049922 422.236328125 l 0,54,55
 340.637515237 422.1953125 340.637515237 422.1953125 340.561059397 422.155273438 c 2,53,-1
EndSplineSet
Validated: 524289
EndChar

StartChar: M
Encoding: 77 77 116
Width: 822
GlyphClass: 2
Flags: W
AnchorPoint: "Anchor-8" 0 0 basechar 0
AnchorPoint: "Anchor-7" 0 0 basechar 0
AnchorPoint: "Anchor-6" 412 700 basechar 0
AnchorPoint: "Anchor-5" 0 0 basechar 0
AnchorPoint: "Anchor-4" 412 0 basechar 0
LayerCount: 2
Fore
SplineSet
666.801757812 701 m 0,0,1
 683.671875 700.096679688 683.671875 700.096679688 695.447265625 688.741210938 c 0,2,3
 707 677.600585938 707 677.600585938 707 661 c 2,4,-1
 707 56 l 2,5,6
 707 39.228515625 707 39.228515625 695.741210938 27.552734375 c 128,-1,7
 684.600585938 16 684.600585938 16 666 16 c 128,-1,8
 647.228515625 16 647.228515625 16 635.552734375 27.2587890625 c 128,-1,9
 624 38.3994140625 624 38.3994140625 624 56 c 2,10,-1
 624 519 l 1,11,-1
 624 545.649414062 l 1,12,-1
 609.322265625 523.40625 l 1,13,-1
 422.343125 229.6484375 l 2,14,15
 416.373125 221.936523438 416.373125 221.936523438 407.99 216.946289062 c 0,16,17
 400.008125 212.1953125 400.008125 212.1953125 391.855625 212.966796875 c 2,18,-1
 391.1253125 213.036132812 l 1,19,-1
 390.3959375 212.959960938 l 2,20,21
 383.2390625 212.21484375 383.2390625 212.21484375 375.29 216.946289062 c 0,22,23
 366.906875 221.936523438 366.906875 221.936523438 360.9584375 229.620117188 c 2,24,-1
 172.727539062 532.329101562 l 1,25,-1
 158 555.212890625 l 1,26,-1
 158 528 l 1,27,-1
 158 56 l 2,28,29
 158 38.134765625 158 38.134765625 147.629882812 26.935546875 c 0,30,31
 137.504882812 16 137.504882812 16 120 16 c 0,32,33
 103.495117188 16 103.495117188 16 93.3701171875 26.935546875 c 0,34,35
 83 38.134765625 83 38.134765625 83 56 c 2,36,-1
 83 661 l 2,37,38
 83 676.768554688 83 676.768554688 94.7548828125 688.943359375 c 128,-1,39
 106.396484375 701 106.396484375 701 124 701 c 0,40,41
 134.038085938 701 134.038085938 701 143.799804688 695.907226562 c 128,-1,42
 153.56640625 690.811523438 153.56640625 690.811523438 159.383789062 682.501953125 c 2,43,-1
 388.5903125 323.592773438 l 1,44,-1
 394.9596875 313.54296875 l 1,45,-1
 401.384375 323.553710938 l 1,46,-1
 633.5625 682.422851562 l 2,47,48
 647.010742188 700.913085938 647.010742188 700.913085938 666.801757812 701 c 0,0,1
666.801757812 701 m 1,49,-1
 666.801757812 701 l 1,49,-1
EndSplineSet
Validated: 524289
EndChar

StartChar: N
Encoding: 78 78 118
Width: 732
GlyphClass: 2
Flags: W
AnchorPoint: "Anchor-8" 0 0 basechar 0
AnchorPoint: "Anchor-7" 0 0 basechar 0
AnchorPoint: "Anchor-6" 366 700 basechar 0
AnchorPoint: "Anchor-5" 0 0 basechar 0
AnchorPoint: "Anchor-4" 366 0 basechar 0
LayerCount: 2
Fore
SplineSet
582 700 m 128,-1,1
 597.58984375 700 597.58984375 700 607.228515625 689.959960938 c 128,-1,2
 617 679.78125 617 679.78125 617 664 c 2,3,-1
 617 57 l 2,4,5
 617 39.228515625 617 39.228515625 605.741210938 27.552734375 c 128,-1,6
 594.600585938 16 594.600585938 16 577 16 c 0,7,8
 567.297851562 16 567.297851562 16 558.030273438 19.08984375 c 0,9,10
 549.631835938 21.888671875 549.631835938 21.888671875 545.07421875 27.2060546875 c 2,11,-1
 168.345703125 538.87109375 l 1,12,-1
 154 557.561523438 l 1,13,-1
 154 534 l 1,14,-1
 154 52 l 2,15,16
 154 36.3134765625 154 36.3134765625 143.842773438 26.1572265625 c 128,-1,17
 133.686523438 16 133.686523438 16 118 16 c 128,-1,18
 102.41015625 16 102.41015625 16 92.771484375 26.0400390625 c 128,-1,19
 83 36.21875 83 36.21875 83 52 c 2,20,-1
 83 660 l 2,21,22
 83 677.686523438 83 677.686523438 94.1572265625 688.842773438 c 128,-1,23
 105.313476562 700 105.313476562 700 122 700 c 0,24,25
 132.426757812 700 132.426757812 700 141.970703125 696.095703125 c 0,26,27
 150.926757812 692.431640625 150.926757812 692.431640625 155.643554688 686.142578125 c 2,28,-1
 531.643554688 173.142578125 l 1,29,-1
 546 154.354492188 l 1,30,-1
 546 178 l 1,31,-1
 546 664 l 2,32,33
 546 679.686523438 546 679.686523438 556.157226562 689.842773438 c 128,-1,0
 566.313476562 700 566.313476562 700 582 700 c 128,-1,1
EndSplineSet
Validated: 524289
EndChar

StartChar: Eng
Encoding: 330 330 125
Width: 752
Flags: W
LayerCount: 2
Fore
SplineSet
598 698.977539062 m 128,-1,1
 614.600585938 698.977539062 614.600585938 698.977539062 625.741210938 687.166015625 c 128,-1,2
 637 675.228515625 637 675.228515625 637 658.08203125 c 2,3,-1
 637 -31 l 2,4,5
 637 -115.583007812 637 -115.583007812 592.96875 -157.720703125 c 128,-1,6
 548.7890625 -200 548.7890625 -200 474.181818182 -200 c 0,7,8
 453.837606534 -200 453.837606534 -200 441.573839962 -190.548828125 c 0,9,10
 430.412121212 -181.946289062 430.412121212 -181.946289062 430.412121212 -166 c 0,11,12
 430.412121212 -150.313476562 430.412121212 -150.313476562 440.552633759 -139.657226562 c 128,-1,13
 450.848325047 -128.8359375 450.848325047 -128.8359375 466.841027462 -127.99609375 c 0,14,15
 514.622141335 -126.927734375 514.622141335 -126.927734375 536.296875 -104.013671875 c 128,-1,16
 558 -81.197265625 558 -81.197265625 558 -35 c 2,17,-1
 558 22.24609375 l 1,18,-1
 558 25.115234375 l 1,19,-1
 556.247070312 27.3544921875 l 1,20,-1
 176.247070312 533.370117188 l 1,21,-1
 162 551.575195312 l 1,22,-1
 162 528.26171875 l 1,23,-1
 162 41.6689453125 l 2,24,25
 162 24.611328125 162 24.611328125 150.342773438 12.6953125 c 128,-1,26
 138.686523438 0.779296875 138.686523438 0.779296875 122 0.779296875 c 128,-1,27
 105.399414062 0.779296875 105.399414062 0.779296875 94.2587890625 12.5888671875 c 128,-1,28
 83 24.5244140625 83 24.5244140625 83 41.6689453125 c 2,29,-1
 83 659.110351562 l 2,30,31
 83 677.102539062 83 677.102539062 94.552734375 688.490234375 c 128,-1,32
 106.228515625 700 106.228515625 700 123 700 c 0,33,34
 143.038085938 700 143.038085938 700 156.69140625 681.6796875 c 2,35,-1
 543.747070312 165.306640625 l 1,36,-1
 558 147.046875 l 1,37,-1
 558 170.408203125 l 1,38,-1
 558 658.08203125 l 2,39,40
 558 675.142578125 558 675.142578125 569.657226562 687.059570312 c 128,-1,0
 581.313476562 698.977539062 581.313476562 698.977539062 598 698.977539062 c 128,-1,1
EndSplineSet
Validated: 524289
EndChar

StartChar: uni019D
Encoding: 413 413 126
Width: 732
GlyphClass: 2
Flags: W
AnchorPoint: "Anchor-8" 0 0 basechar 0
AnchorPoint: "Anchor-7" 0 0 basechar 0
AnchorPoint: "Anchor-6" 320 700 basechar 0
AnchorPoint: "Anchor-5" 0 0 basechar 0
AnchorPoint: "Anchor-4" 320 0 basechar 0
LayerCount: 2
Fore
SplineSet
581 700 m 0,0,1
 596.686523438 700 596.686523438 700 606.842773438 689.616210938 c 128,-1,2
 617 679.233398438 617 679.233398438 617 663.196289062 c 2,3,-1
 617 42.6513671875 l 2,4,5
 617 24.4833984375 617 24.4833984375 605.741210938 12.546875 c 128,-1,6
 594.600585938 0.736328125 594.600585938 0.736328125 577 0.736328125 c 0,7,8
 567.297851562 0.736328125 567.297851562 0.736328125 558.030273438 3.89453125 c 0,9,10
 549.631835938 6.7568359375 549.631835938 6.7568359375 545.07421875 12.1923828125 c 2,11,-1
 168.486253005 531.186523438 l 1,12,-1
 154.692307692 550.290039062 l 1,13,-1
 154.692307692 526.206054688 l 1,14,-1
 154.692307692 -33 l 2,15,16
 154.692307692 -126.80078125 154.692307692 -126.80078125 109.939453125 -158.915039062 c 0,17,18
 62.591796875 -191.94140625 62.591796875 -191.94140625 13.6015625 -197.000976562 c 0,19,20
 -1.984375 -196.702148438 -1.984375 -196.702148438 -12.3427734375 -186.342773438 c 0,21,22
 -23 -175.686523438 -23 -175.686523438 -23 -161 c 0,23,24
 -23 -140.092773438 -23 -140.092773438 -15.080078125 -131.381835938 c 0,25,26
 -6.6123046875 -122.06640625 -6.6123046875 -122.06640625 12.111328125 -116.716796875 c 0,27,28
 83 -98.1767578125 83 -98.1767578125 83 -9 c 2,29,-1
 83 659.076171875 l 2,30,31
 83 677.170898438 83 677.170898438 94.1572265625 688.5859375 c 0,32,33
 104.993727464 700 104.993727464 700 121.038461538 700 c 0,34,35
 131.064190204 700 131.064190204 700 140.241060697 696.095703125 c 0,36,37
 148.852651743 692.431640625 148.852651743 692.431640625 153.388033353 686.142578125 c 2,38,-1
 528.643554688 177.142578125 l 1,39,-1
 543 158.357421875 l 1,40,-1
 543 182 l 1,41,-1
 543 664 l 2,42,43
 543 679.59375 543 679.59375 553.544921875 689.733398438 c 128,-1,44
 564.22265625 700 564.22265625 700 581 700 c 0,0,1
EndSplineSet
Validated: 524289
EndChar

StartChar: O
Encoding: 79 79 130
Width: 762
GlyphClass: 2
Flags: W
AnchorPoint: "Anchor-8" 383 706 basechar 0
AnchorPoint: "Anchor-7" 381 350 basechar 0
AnchorPoint: "Anchor-6" 381 700 basechar 0
AnchorPoint: "Anchor-5" 686 10 basechar 0
AnchorPoint: "Anchor-4" 381 0 basechar 0
LayerCount: 2
Fore
SplineSet
687 350 m 128,-1,1
 687 248.740234375 687 248.740234375 644.432617188 166.674804688 c 128,-1,2
 601.951171875 84.7744140625 601.951171875 84.7744140625 528.331240699 37.361328125 c 0,3,4
 492.208147321 13.66796875 492.208147321 13.66796875 451.435221354 1.833984375 c 128,-1,5
 410.663234747 -10 410.663234747 -10 365 -10 c 0,6,7
 273.877371652 -10 273.877371652 -10 201.668759301 37.361328125 c 0,8,9
 128.048828125 84.7744140625 128.048828125 84.7744140625 85.5673828125 166.674804688 c 128,-1,10
 43 248.740234375 43 248.740234375 43 350 c 128,-1,11
 43 451.259765625 43 451.259765625 85.5673828125 533.325195312 c 128,-1,12
 128.048828125 615.225585938 128.048828125 615.225585938 201.668759301 662.638671875 c 0,13,14
 273.877371652 710 273.877371652 710 365 710 c 128,-1,15
 456.122628348 710 456.122628348 710 528.331240699 662.638671875 c 0,16,17
 601.951171875 615.225585938 601.951171875 615.225585938 644.432617188 533.325195312 c 128,-1,0
 687 451.259765625 687 451.259765625 687 350 c 128,-1,1
600 350 m 128,-1,19
 600 429.126953125 600 429.126953125 569.166992188 493.12890625 c 0,20,21
 539.286058408 557.434570312 539.286058408 557.434570312 486.0421875 594.174804688 c 128,-1,22
 432.675260417 631 432.675260417 631 365 631 c 128,-1,23
 297.351981027 631 297.351981027 631 244.001023065 594.71875 c 128,-1,24
 190.726153274 558.490234375 190.726153274 558.490234375 160.833007812 494.158203125 c 0,25,26
 130 430.15625 130 430.15625 130 350 c 0,27,28
 130 270.873046875 130 270.873046875 160.833007812 206.87109375 c 0,29,30
 190.713941592 142.565429688 190.713941592 142.565429688 243.9578125 105.825195312 c 128,-1,31
 297.324739583 69 297.324739583 69 365 69 c 128,-1,32
 432.675260417 69 432.675260417 69 486.0421875 105.825195312 c 128,-1,33
 539.286058408 142.565429688 539.286058408 142.565429688 569.166992188 206.87109375 c 0,34,18
 600 270.873046875 600 270.873046875 600 350 c 128,-1,19
EndSplineSet
Validated: 524289
Substitution2: "Single Substitution lookup 20 subtable" ordmasculine
EndChar

StartChar: Ohorn
Encoding: 416 416 147
Width: 762
GlyphClass: 2
Flags: W
AnchorPoint: "Anchor-8" 383 706 basechar 0
AnchorPoint: "Anchor-7" 381 350 basechar 0
AnchorPoint: "Anchor-6" 381 700 basechar 0
AnchorPoint: "Anchor-5" 686 10 basechar 0
AnchorPoint: "Anchor-4" 381 0 basechar 0
LayerCount: 2
Fore
SplineSet
545.248177083 650.107421875 m 2,0,1
 610.7265625 602.216796875 610.7265625 602.216796875 648.826171875 523.288085938 c 128,-1,2
 687 444.208007812 687 444.208007812 687 349.985351562 c 0,3,4
 687 248.729492188 687 248.729492188 644.432617188 166.66796875 c 128,-1,5
 601.951171875 84.7705078125 601.951171875 84.7705078125 528.331240699 37.359375 c 0,6,7
 492.208147321 13.6669921875 492.208147321 13.6669921875 451.435221354 1.833984375 c 128,-1,8
 410.663234747 -10 410.663234747 -10 365 -10 c 0,9,10
 273.877371652 -10 273.877371652 -10 201.668759301 37.361328125 c 0,11,12
 128.048828125 84.7744140625 128.048828125 84.7744140625 85.5673828125 166.674804688 c 128,-1,13
 43 248.740234375 43 248.740234375 43 350 c 128,-1,14
 43 451.259765625 43 451.259765625 85.5673828125 533.325195312 c 128,-1,15
 128.048828125 615.225585938 128.048828125 615.225585938 201.668759301 662.638671875 c 0,16,17
 273.877371652 710 273.877371652 710 365 710 c 0,18,19
 408.217140997 710 408.217140997 710 449.547107515 698.282226562 c 2,20,-1
 450.844363839 697.9140625 l 1,21,-1
 452.184830729 698.025390625 l 2,22,23
 531.40952381 704.614257812 531.40952381 704.614257812 531.40952381 774 c 0,24,25
 531.40952381 789.333007812 531.40952381 789.333007812 539.970851935 801.200195312 c 0,26,27
 547.761904762 812 547.761904762 812 562.19047619 812 c 0,28,29
 578.760742188 812 578.760742188 812 585.879882812 801.5078125 c 0,30,31
 594 789.541992188 594 789.541992188 594 774 c 0,32,33
 594 739.716796875 594 739.716796875 581.205078125 711.283203125 c 0,34,35
 568.529296875 682.4765625 568.529296875 682.4765625 544.993610491 663.276367188 c 2,36,-1
 536.718787202 656.508789062 l 1,37,-1
 545.248177083 650.107421875 l 2,0,1
365 69 m 128,-1,39
 432.675260417 69 432.675260417 69 486.0421875 105.825195312 c 128,-1,40
 539.286058408 142.565429688 539.286058408 142.565429688 569.166992188 206.87109375 c 0,41,42
 600 270.873046875 600 270.873046875 600 350 c 128,-1,43
 600 429.126953125 600 429.126953125 569.166992188 493.12890625 c 0,44,45
 539.286058408 557.434570312 539.286058408 557.434570312 486.0421875 594.174804688 c 128,-1,46
 432.675260417 631 432.675260417 631 365 631 c 128,-1,47
 297.351981027 631 297.351981027 631 244.001023065 594.71875 c 128,-1,48
 190.726153274 558.490234375 190.726153274 558.490234375 160.833007812 494.158203125 c 0,49,50
 130 430.15625 130 430.15625 130 350 c 0,51,52
 130 270.873046875 130 270.873046875 160.833007812 206.87109375 c 0,53,54
 190.713941592 142.565429688 190.713941592 142.565429688 243.9578125 105.825195312 c 128,-1,38
 297.324739583 69 297.324739583 69 365 69 c 128,-1,39
EndSplineSet
Validated: 524289
EndChar

StartChar: uni01EA
Encoding: 490 490 158
Width: 762
GlyphClass: 2
Flags: W
AnchorPoint: "Anchor-8" 383 706 basechar 0
AnchorPoint: "Anchor-7" 381 350 basechar 0
AnchorPoint: "Anchor-6" 381 700 basechar 0
AnchorPoint: "Anchor-5" 686 10 basechar 0
AnchorPoint: "Anchor-4" 381 0 basechar 0
LayerCount: 2
Fore
SplineSet
431.626934524 -2.708984375 m 2,0,1
 397.932087054 -15.724609375 397.932087054 -15.724609375 379.769559152 -38.87890625 c 0,2,3
 361.152380952 -62.103515625 361.152380952 -62.103515625 361.152380952 -88 c 0,4,5
 361.152380952 -112.112304688 361.152380952 -112.112304688 373.75577567 -126.40625 c 0,6,7
 386.62406994 -141 386.62406994 -141 405.4 -141 c 0,8,9
 423.747581845 -141 423.747581845 -141 433.673800223 -126.809570312 c 0,10,11
 444.754492187 -112 444.754492187 -112 462.152380952 -112 c 0,12,13
 473.393703497 -112 473.393703497 -112 480.75828683 -119.657226562 c 128,-1,14
 488.123809524 -127.313476562 488.123809524 -127.313476562 488.123809524 -141 c 0,15,16
 488.123809524 -152.9140625 488.123809524 -152.9140625 476.169512649 -166.627929688 c 0,17,18
 463.356640625 -181.326171875 463.356640625 -181.326171875 442.305580357 -190.638671875 c 128,-1,19
 421.144614955 -200 421.144614955 -200 397.704761905 -200 c 0,20,21
 355.302046131 -200 355.302046131 -200 327.149423363 -175.377929688 c 0,22,23
 299.59047619 -151.275390625 299.59047619 -151.275390625 299.59047619 -106 c 0,24,25
 299.59047619 -57.123046875 299.59047619 -57.123046875 331.222488839 -21.419921875 c 2,26,-1
 341.456817336 -9.8671875 l 1,27,-1
 326.450539435 -8.0537109375 l 2,28,29
 245.733203125 1.92578125 245.733203125 1.92578125 181.957226563 51.2900390625 c 0,30,31
 116.336914062 100.705078125 116.336914062 100.705078125 79.7099609375 178.625976562 c 128,-1,32
 43 256.72265625 43 256.72265625 43 349.977539062 c 0,33,34
 43 451.244140625 43 451.244140625 85.5673828125 533.313476562 c 128,-1,35
 128.048828125 615.219726562 128.048828125 615.219726562 201.668759301 662.635742188 c 0,36,37
 273.877371652 710 273.877371652 710 365 710 c 128,-1,38
 456.122628348 710 456.122628348 710 528.331240699 662.680664062 c 0,39,40
 601.951171875 615.30859375 601.951171875 615.30859375 644.432617188 533.479492188 c 128,-1,41
 687 451.486328125 687 451.486328125 687 350.315429688 c 0,42,43
 687 263.168945312 687 263.168945312 654.204101562 188.641601562 c 128,-1,44
 621.467773438 114.251953125 621.467773438 114.251953125 562.57843192 64.373046875 c 0,45,46
 505.822293527 14.544921875 505.822293527 14.544921875 432.61889881 -2.404296875 c 0,47,-1
 431.626934524 -2.708984375 l 2,0,1
130 358 m 0,48,49
 130 281.125 130 281.125 160.833007812 218.946289062 c 0,50,51
 190.713941592 156.471679688 190.713941592 156.471679688 243.9578125 120.776367188 c 128,-1,52
 297.324739583 85 297.324739583 85 365 85 c 128,-1,53
 432.675260417 85 432.675260417 85 486.0421875 120.776367188 c 128,-1,54
 539.286058408 156.471679688 539.286058408 156.471679688 569.166992188 218.946289062 c 0,55,56
 600 281.125 600 281.125 600 358 c 128,-1,57
 600 434.875 600 434.875 569.166992188 497.053710938 c 0,58,59
 539.286058408 559.528320312 539.286058408 559.528320312 486.0421875 595.223632812 c 128,-1,60
 432.675260417 631 432.675260417 631 365 631 c 128,-1,61
 297.351981027 631 297.351981027 631 244.001023065 595.751953125 c 128,-1,62
 190.726153274 560.5546875 190.726153274 560.5546875 160.833007812 498.053710938 c 0,63,64
 130 435.875 130 435.875 130 358 c 0,48,49
EndSplineSet
Validated: 524289
EndChar

StartChar: Oslash
Encoding: 216 216 159
Width: 733
GlyphClass: 2
Flags: W
AnchorPoint: "Anchor-8" 383 706 basechar 0
AnchorPoint: "Anchor-7" 381 350 basechar 0
AnchorPoint: "Anchor-6" 367 700 basechar 0
AnchorPoint: "Anchor-5" 686 10 basechar 0
AnchorPoint: "Anchor-4" 367 0 basechar 0
LayerCount: 2
Fore
SplineSet
594.107421875 606.303710938 m 2,0,1
 638.064453125 557.349609375 638.064453125 557.349609375 662.518554688 491.322265625 c 128,-1,2
 687 425.220703125 687 425.220703125 687 350.01171875 c 0,3,4
 687 248.749023438 687 248.749023438 644.432617188 166.680664062 c 128,-1,5
 601.951171875 84.77734375 601.951171875 84.77734375 528.331240699 37.3623046875 c 0,6,7
 492.208147321 13.6689453125 492.208147321 13.6689453125 451.435221354 1.8349609375 c 128,-1,8
 410.663234747 -10 410.663234747 -10 365 -10 c 0,9,10
 255.114592634 -10 255.114592634 -10 172.557989211 57.2958984375 c 2,11,-1
 166.593052455 62.1572265625 l 1,12,-1
 161.780273438 56.03125 l 1,13,-1
 106.830078125 -11.9072265625 l 2,14,15
 93.2783203125 -28 93.2783203125 -28 78 -28 c 0,16,17
 66.21875 -28 66.21875 -28 56.0400390625 -18.228515625 c 128,-1,18
 46 -8.3740234375 46 -8.3740234375 46 4.4990234375 c 0,19,20
 46 17.109375 46 17.109375 53.294921875 27.0556640625 c 2,21,-1
 117.184570312 106.669921875 l 1,22,-1
 121.262695312 111.751953125 l 1,23,-1
 117.286132812 116.91796875 l 2,24,25
 81.1611328125 163.836914062 81.1611328125 163.836914062 62.1025390625 223.297851562 c 128,-1,26
 43 282.893554688 43 282.893554688 43 350.092773438 c 0,27,28
 43 451.326171875 43 451.326171875 85.5673828125 533.370117188 c 128,-1,29
 128.048828125 615.25 128.048828125 615.25 201.668759301 662.651367188 c 0,30,31
 273.877371652 710 273.877371652 710 365 710 c 0,32,33
 459.871614583 710 459.871614583 710 534.910518973 659.291992188 c 2,34,-1
 540.703552827 655.37890625 l 1,35,-1
 545.068759301 660.944335938 l 1,36,-1
 597.208984375 725.955078125 l 2,37,38
 607.807617188 739 607.807617188 739 624 739 c 0,39,40
 636.981445312 739 636.981445312 739 647.21484375 729.994140625 c 0,41,42
 657 721.383789062 657 721.383789062 657 709 c 128,-1,43
 657 696.44140625 657 696.44140625 648.736328125 685.454101562 c 2,44,-1
 593.81640625 617.029296875 l 1,45,-1
 589.408203125 611.537109375 l 1,46,-1
 594.107421875 606.303710938 l 2,0,1
175.439006696 192.083007812 m 1,47,-1
 182.416573661 200.92578125 l 1,48,-1
 485.416573661 584.92578125 l 1,49,-1
 490.976646205 591.973632812 l 1,50,-1
 483.534095982 596.791015625 l 2,51,52
 430.685695685 631 430.685695685 631 365 631 c 0,53,54
 297.351981027 631 297.351981027 631 244.001023065 595.751953125 c 128,-1,55
 190.726153274 560.5546875 190.726153274 560.5546875 160.833007812 498.053710938 c 0,56,57
 130 435.875 130 435.875 130 358 c 0,58,59
 130 269.813476562 130 269.813476562 169.841359747 201.9296875 c 2,60,-1
 175.439006696 192.083007812 l 1,47,-1
365 69 m 0,61,62
 432.675260417 69 432.675260417 69 486.0421875 104.776367188 c 128,-1,63
 539.286058408 140.471679688 539.286058408 140.471679688 569.166992188 202.946289062 c 0,64,65
 600 265.125 600 265.125 600 342 c 0,66,67
 600 449.71484375 600 449.71484375 543.286793155 524.869140625 c 2,68,-1
 537.371642485 532.884765625 l 1,69,-1
 531.222591146 525.0625 l 1,70,-1
 221.489257812 131.0625 l 1,71,-1
 216.538829985 124.765625 l 1,72,-1
 222.676609003 119.723632812 l 2,73,74
 284.412295387 69 284.412295387 69 365 69 c 0,61,62
EndSplineSet
Validated: 524289
EndChar

StartChar: OE
Encoding: 338 338 165
Width: 977
GlyphClass: 2
Flags: W
AnchorPoint: "Anchor-8" 0 0 basechar 0
AnchorPoint: "Anchor-7" 0 0 basechar 0
AnchorPoint: "Anchor-6" 487 700 basechar 0
AnchorPoint: "Anchor-5" 0 0 basechar 0
AnchorPoint: "Anchor-4" 487 0 basechar 0
LayerCount: 2
Fore
SplineSet
861 87 m 2,0,1
 878.686523438 87 878.686523438 87 890.342773438 75.3427734375 c 128,-1,2
 902 63.6865234375 902 63.6865234375 902 47 c 128,-1,3
 902 30.3994140625 902 30.3994140625 890.447265625 19.2587890625 c 128,-1,4
 878.771484375 8 878.771484375 8 861 8 c 2,5,-1
 327.741732283 8 l 2,6,7
 238.536772576 8 238.536772576 8 174.734764087 53.087890625 c 0,8,9
 109.4453125 98.2744140625 109.4453125 98.2744140625 76.35546875 175.645507812 c 0,10,11
 43 254.004882812 43 254.004882812 43 350.819335938 c 0,12,13
 43 448.16015625 43 448.16015625 76.8388671875 527.7734375 c 0,14,15
 110.440429688 606.830078125 110.440429688 606.830078125 175.277379122 653.494140625 c 0,16,17
 238.572946912 700 238.572946912 700 327.741732283 700 c 2,18,-1
 861 700 l 2,19,20
 878.686523438 700 878.686523438 700 890.342773438 688.342773438 c 128,-1,21
 902 676.686523438 902 676.686523438 902 660 c 128,-1,22
 902 643.399414062 902 643.399414062 890.447265625 632.258789062 c 128,-1,23
 878.771484375 621 878.771484375 621 861 621 c 2,24,-1
 575.341732283 621 l 1,25,-1
 567.543307087 621 l 1,26,-1
 567.543307087 612.712890625 l 1,27,-1
 567.543307087 398.287109375 l 1,28,-1
 567.543307087 390 l 1,29,-1
 575.341732283 390 l 1,30,-1
 816 390 l 2,31,32
 833.771484375 390 833.771484375 390 845.447265625 378.741210938 c 128,-1,33
 857 367.600585938 857 367.600585938 857 350 c 0,34,35
 857 333.399414062 857 333.399414062 845.447265625 322.258789062 c 128,-1,36
 833.771484375 311 833.771484375 311 816 311 c 2,37,-1
 575.341732283 311 l 1,38,-1
 567.543307087 311 l 1,39,-1
 567.543307087 303 l 1,40,-1
 567.543307087 95 l 1,41,-1
 567.543307087 87 l 1,42,-1
 575.341732283 87 l 1,43,-1
 861 87 l 2,0,1
122 358 m 0,44,45
 122 242.424804688 122 242.424804688 174.213092089 169.333007812 c 0,46,47
 226.261297367 95 226.261297367 95 330.666141732 95 c 2,48,-1
 482.735433071 95 l 1,49,-1
 490.533858268 95 l 1,50,-1
 490.533858268 103 l 1,51,-1
 490.533858268 613 l 1,52,-1
 490.533858268 621 l 1,53,-1
 482.735433071 621 l 1,54,-1
 330.666141732 621 l 2,55,56
 227.226580955 621 227.226580955 621 174.690974102 545.654296875 c 0,57,58
 122 471.56640625 122 471.56640625 122 358 c 0,44,45
EndSplineSet
Validated: 524289
EndChar

StartChar: P
Encoding: 80 80 166
Width: 600
GlyphClass: 2
Flags: W
AnchorPoint: "Anchor-8" 0 0 basechar 0
AnchorPoint: "Anchor-7" 134 162 basechar 0
AnchorPoint: "Anchor-6" 300 700 basechar 0
AnchorPoint: "Anchor-5" 0 0 basechar 0
AnchorPoint: "Anchor-4" 300 0 basechar 0
LayerCount: 2
Fore
SplineSet
343.945454545 700 m 2,0,1
 390.939346591 700 390.939346591 700 432.719726562 672.215820312 c 0,2,3
 475.956054688 644.3046875 475.956054688 644.3046875 501.462890625 596.231445312 c 128,-1,4
 527 548.102539062 527 548.102539062 527 490.029296875 c 128,-1,5
 527 431.918945312 527 431.918945312 501.431640625 382.74609375 c 128,-1,6
 475.91015625 333.6640625 475.91015625 333.6640625 432.666015625 305.258789062 c 0,7,8
 390.907652699 277 390.907652699 277 343.945454545 277 c 2,9,-1
 167 277 l 1,10,-1
 159 277 l 1,11,-1
 159 269 l 1,12,-1
 159 48 l 2,13,14
 159 31.1416015625 159 31.1416015625 148.137695312 19.443359375 c 0,15,16
 137.51171875 8 137.51171875 8 121 8 c 0,17,18
 103.495117188 8 103.495117188 8 93.3701171875 18.935546875 c 0,19,20
 83 30.134765625 83 30.134765625 83 48 c 2,21,-1
 83 659.228515625 l 2,22,23
 83 676.237304688 83 676.237304688 94.6572265625 688.118164062 c 128,-1,24
 106.313476562 700 106.313476562 700 123 700 c 2,25,-1
 343.945454545 700 l 2,0,1
343.945454545 352 m 2,26,27
 371.482919034 352 371.482919034 352 394.800568182 371.712890625 c 0,28,29
 418.41796875 390.977539062 418.41796875 390.977539062 432.752929688 422.703125 c 128,-1,30
 447 454.236328125 447 454.236328125 447 490.060546875 c 0,31,32
 447 545.583984375 447 545.583984375 415.653320312 584.44921875 c 0,33,34
 385.44453125 624 385.44453125 624 343.945454545 624 c 2,35,-1
 167 624 l 1,36,-1
 159 624 l 1,37,-1
 159 615.7578125 l 1,38,-1
 159 360.2421875 l 1,39,-1
 159 352 l 1,40,-1
 167 352 l 1,41,-1
 343.945454545 352 l 2,26,27
EndSplineSet
Validated: 524289
EndChar

StartChar: Thorn
Encoding: 222 222 167
Width: 597
GlyphClass: 2
Flags: W
AnchorPoint: "Anchor-8" 0 0 basechar 0
AnchorPoint: "Anchor-7" 0 0 basechar 0
AnchorPoint: "Anchor-6" 269 700 basechar 0
AnchorPoint: "Anchor-5" 0 0 basechar 0
AnchorPoint: "Anchor-4" 269 0 basechar 0
LayerCount: 2
Fore
SplineSet
340.037037037 601.484375 m 2,0,1
 386.962673611 601.484375 386.962673611 601.484375 428.719726562 573.799804688 c 0,2,3
 471.956054688 545.989257812 471.956054688 545.989257812 497.462890625 498.087890625 c 128,-1,4
 523 450.130859375 523 450.130859375 523 391.25 c 0,5,6
 523 333.400390625 523 333.400390625 496.9765625 284.9453125 c 128,-1,7
 470.953125 236.489257812 470.953125 236.489257812 427.666015625 208.158203125 c 0,8,9
 386.005099826 180 386.005099826 180 340.037037037 180 c 2,10,-1
 170 180 l 1,11,-1
 162 180 l 1,12,-1
 162 172 l 1,13,-1
 162 48 l 2,14,15
 162 31.3134765625 162 31.3134765625 150.342773438 19.6572265625 c 128,-1,16
 138.686523438 8 138.686523438 8 122 8 c 0,17,18
 104.40234375 8 104.40234375 8 93.7626953125 19.048828125 c 128,-1,19
 83 30.2255859375 83 30.2255859375 83 48 c 2,20,-1
 83 700 l 2,21,22
 83 716.686523438 83 716.686523438 94.6572265625 728.342773438 c 128,-1,23
 106.313476562 740 106.313476562 740 123 740 c 0,24,25
 140.59765625 740 140.59765625 740 151.237304688 728.951171875 c 128,-1,26
 162 717.774414062 162 717.774414062 162 700 c 2,27,-1
 162 609.609375 l 1,28,-1
 162 601.484375 l 1,29,-1
 170 601.484375 l 1,30,-1
 340.037037037 601.484375 l 2,0,1
340.037037037 259 m 2,31,32
 381.438765914 259 381.438765914 259 412.110351562 297.3359375 c 0,33,34
 444 335.072265625 444 335.072265625 444 388 c 0,35,36
 444 441.954101562 444 441.954101562 412.580078125 478.69921875 c 0,37,38
 382.338469329 516 382.338469329 516 340.037037037 516 c 2,39,-1
 170 516 l 1,40,-1
 162 516 l 1,41,-1
 162 508 l 1,42,-1
 162 267 l 1,43,-1
 162 259 l 1,44,-1
 170 259 l 1,45,-1
 340.037037037 259 l 2,31,32
EndSplineSet
Validated: 524289
EndChar

StartChar: Q
Encoding: 81 81 168
Width: 763
GlyphClass: 2
Flags: W
AnchorPoint: "Anchor-8" 0 0 basechar 0
AnchorPoint: "Anchor-7" 0 0 basechar 0
AnchorPoint: "Anchor-6" 382 700 basechar 0
AnchorPoint: "Anchor-5" 0 0 basechar 0
AnchorPoint: "Anchor-4" 382 0 basechar 0
LayerCount: 2
Fore
SplineSet
717 -56 m 0,0,1
 730.686523438 -56 730.686523438 -56 741.842773438 -67.1572265625 c 128,-1,2
 753 -78.3134765625 753 -78.3134765625 753 -93 c 0,3,4
 753 -115 753 -115 724.200195312 -136.599609375 c 0,5,6
 693.259765625 -159.8046875 693.259765625 -159.8046875 648.51953125 -174.39453125 c 0,7,8
 604.692185892 -189 604.692185892 -189 569.172839506 -189 c 0,9,10
 511.373862686 -189 511.373862686 -189 475.761963895 -177.37109375 c 0,11,12
 439.771355774 -165.619140625 439.771355774 -165.619140625 400.752961838 -142.985351562 c 0,13,14
 370.28811005 -125.709960938 370.28811005 -125.709960938 350.428063915 -118.009765625 c 0,15,16
 329.772822627 -110 329.772822627 -110 302.259259259 -110 c 0,17,18
 289.399197049 -110 289.399197049 -110 278.053027746 -113.91015625 c 0,19,20
 267.377391172 -117.58984375 267.377391172 -117.58984375 257.214570473 -122.844726562 c 0,21,22
 235.638527199 -134 235.638527199 -134 217.156378601 -134 c 0,23,24
 202.149667245 -134 202.149667245 -134 191.389033565 -122.048828125 c 0,25,26
 180.407407407 -109.852539062 180.407407407 -109.852539062 180.407407407 -95 c 0,27,28
 180.407407407 -69.568359375 180.407407407 -69.568359375 201.441358025 -61.5126953125 c 2,29,-1
 309.754115226 -20.5126953125 l 1,30,-1
 336.951300476 -10.2177734375 l 1,31,-1
 308.412105356 -5.0009765625 l 2,32,33
 232.024261349 8.9619140625 232.024261349 8.9619140625 172.645282761 58.7998046875 c 0,34,35
 111.467773438 108.72265625 111.467773438 108.72265625 77.2666015625 184.67578125 c 128,-1,36
 43 260.7734375 43 260.7734375 43 350.002929688 c 0,37,38
 43 451.26171875 43 451.26171875 85.5673828125 533.326171875 c 128,-1,39
 128.048828125 615.2265625 128.048828125 615.2265625 201.876732092 662.638671875 c 0,40,41
 274.47370515 710 274.47370515 710 366.086419753 710 c 128,-1,42
 457.699134356 710 457.699134356 710 530.296107414 662.668945312 c 128,-1,43
 602.973355517 615.28515625 602.973355517 615.28515625 644.432617188 533.435546875 c 0,44,45
 687 451.421875 687 451.421875 687 350.2265625 c 0,46,47
 687 262.047851562 687 262.047851562 654.211914062 188.020507812 c 0,48,49
 621.84837963 114.094726562 621.84837963 114.094726562 565.187419624 64.19140625 c 128,-1,50
 508.655844104 14.4033203125 508.655844104 14.4033203125 435.128624936 -1.537109375 c 0,51,-1
 434.008551955 -1.875 l 1,52,-1
 360.510609568 -30.4931640625 l 1,53,-1
 330.350802951 -41.9833984375 l 1,54,-1
 362.263438786 -45.943359375 l 2,55,56
 385.382651749 -48.8115234375 385.382651749 -48.8115234375 404.223677019 -56.8896484375 c 0,57,58
 423.747512378 -65.2607421875 423.747512378 -65.2607421875 451.550065908 -80.130859375 c 0,59,60
 486.846530993 -98.3798828125 486.846530993 -98.3798828125 513.415682067 -108.046875 c 0,61,62
 540.773417406 -118 540.773417406 -118 574.008230453 -118 c 0,63,64
 603.477671682 -118 603.477671682 -118 625.116046168 -109.475585938 c 128,-1,65
 646.866210938 -101.087890625 646.866210938 -101.087890625 666.799804688 -86.400390625 c 0,66,67
 674.918945312 -80.3115234375 674.918945312 -80.3115234375 685.533203125 -71.7177734375 c 0,68,69
 695.4296875 -63.70703125 695.4296875 -63.70703125 703.243164062 -59.5703125 c 0,70,71
 709.987304688 -56 709.987304688 -56 717 -56 c 0,0,1
130 350 m 0,72,73
 130 270.873046875 130 270.873046875 160.833007812 206.87109375 c 0,74,75
 190.862995917 142.565429688 190.862995917 142.565429688 244.393229167 105.825195312 c 128,-1,76
 298.047180427 69 298.047180427 69 366.086419753 69 c 128,-1,77
 434.125659079 69 434.125659079 69 487.77961034 105.825195312 c 128,-1,78
 541.309843589 142.565429688 541.309843589 142.565429688 571.268490387 206.87109375 c 0,79,80
 601.086419753 270.873046875 601.086419753 270.873046875 601.086419753 350 c 128,-1,81
 601.086419753 429.126953125 601.086419753 429.126953125 571.268490387 493.12890625 c 0,82,83
 541.309843589 557.434570312 541.309843589 557.434570312 487.77961034 594.174804688 c 128,-1,84
 434.125659079 631 434.125659079 631 366.086419753 631 c 128,-1,85
 298.074568383 631 298.074568383 631 244.436672132 594.71875 c 128,-1,86
 190.875273277 558.490234375 190.875273277 558.490234375 160.833007812 494.158203125 c 0,87,88
 130 430.15625 130 430.15625 130 350 c 0,72,73
EndSplineSet
Validated: 524289
EndChar

StartChar: R
Encoding: 82 82 169
Width: 680
GlyphClass: 2
Flags: W
AnchorPoint: "Anchor-8" 0 0 basechar 0
AnchorPoint: "Anchor-7" 0 0 basechar 0
AnchorPoint: "Anchor-6" 339 700 basechar 0
AnchorPoint: "Anchor-5" 0 0 basechar 0
AnchorPoint: "Anchor-4" 339 0 basechar 0
LayerCount: 2
Fore
SplineSet
587.823242188 73.1572265625 m 0,0,1
 596.157226562 67.1015625 596.157226562 67.1015625 601.053710938 58.53125 c 128,-1,2
 606 49.875 606 49.875 606 41 c 0,3,4
 606 24.0302734375 606 24.0302734375 595.73828125 16.4287109375 c 0,5,6
 584.359375 8 584.359375 8 568 8 c 0,7,8
 551.264648438 8 551.264648438 8 540.069335938 14.888671875 c 0,9,10
 512.065429688 30.7578125 512.065429688 30.7578125 494.155273438 66.578125 c 0,11,12
 476.535117057 102.888671875 476.535117057 102.888671875 476.535117057 175 c 0,13,14
 476.535117057 228.844726562 476.535117057 228.844726562 445.299154735 255.247070312 c 0,15,16
 414.830365541 281 414.830365541 281 366.742474916 281 c 2,17,-1
 174 281 l 1,18,-1
 166 281 l 1,19,-1
 166 273 l 1,20,-1
 166 48 l 2,21,22
 166 30.0419921875 166 30.0419921875 156.020507812 18.814453125 c 0,23,24
 146.407226562 8 146.407226562 8 131 8 c 0,25,26
 110.936523438 8 110.936523438 8 96.67578125 20.099609375 c 0,27,28
 83 31.7041015625 83 31.7041015625 83 48 c 2,29,-1
 83 659.221679688 l 2,30,31
 83 676.232421875 83 676.232421875 94.6572265625 688.116210938 c 128,-1,32
 106.313476562 700 106.313476562 700 123 700 c 2,33,-1
 393.244147157 700 l 2,34,35
 442.290542041 700 442.290542041 700 483.104152514 674.112304688 c 0,36,37
 526.133789062 648.180664062 526.133789062 648.180664062 552.08203125 602.624023438 c 128,-1,38
 578 557.118164062 578 557.118164062 578 500.184570312 c 0,39,40
 578 445.413085938 578 445.413085938 549.196289062 397.94140625 c 128,-1,41
 520.372070312 350.434570312 520.372070312 350.434570312 475.930621603 327.002929688 c 2,42,-1
 462.762048626 319.759765625 l 1,43,-1
 475.915832724 312.484375 l 2,44,45
 510.404296875 294.265625 510.404296875 294.265625 530.73828125 261.724609375 c 0,46,47
 551.102539062 229.521484375 551.102539062 229.521484375 553.012695312 186.541992188 c 0,48,49
 557.067382812 128.763671875 557.067382812 128.763671875 562.227539062 107.604492188 c 0,50,51
 567.927734375 84.2353515625 567.927734375 84.2353515625 587.823242188 73.1572265625 c 0,0,1
391.954741717 348.026367188 m 2,52,53
 417.931408732 350.287109375 417.931408732 350.287109375 441.03995741 370.40234375 c 0,54,55
 463.738114679 390.16015625 463.738114679 390.16015625 477.737637829 423.346679688 c 0,56,57
 492 456.393554688 492 456.393554688 492 497.328125 c 0,58,59
 492 549.872070312 492 549.872070312 461.868245715 586.706054688 c 0,60,61
 431.685991064 624 431.685991064 624 388.511705686 624 c 2,62,-1
 174 624 l 1,63,-1
 166 624 l 1,64,-1
 166 615.760742188 l 1,65,-1
 166 356.239257812 l 1,66,-1
 166 348 l 1,67,-1
 174 348 l 1,68,-1
 391.351170569 348 l 1,69,-1
 391.954741717 348.026367188 l 2,52,53
EndSplineSet
Validated: 524289
EndChar

StartChar: S
Encoding: 83 83 177
Width: 582
GlyphClass: 2
Flags: W
AnchorPoint: "Anchor-8" 0 0 basechar 0
AnchorPoint: "Anchor-7" 0 0 basechar 0
AnchorPoint: "Anchor-6" 292 700 basechar 0
AnchorPoint: "Anchor-5" 0 0 basechar 0
AnchorPoint: "Anchor-4" 292 0 basechar 0
LayerCount: 2
Fore
SplineSet
278.575510204 -10 m 0,0,1
 211.668223852 -10 211.668223852 -10 160.570408163 10.0126953125 c 0,2,3
 106.206054688 29.9794921875 106.206054688 29.9794921875 56.283203125 75.0078125 c 0,4,5
 38 90.6796875 38 90.6796875 38 110 c 0,6,7
 38 124.768554688 38 124.768554688 49.7548828125 136.943359375 c 128,-1,8
 61.396484375 149 61.396484375 149 77 149 c 0,9,10
 90.888671875 149 90.888671875 149 100.567382812 140.126953125 c 0,11,12
 141.624023438 102.150390625 141.624023438 102.150390625 183.661180644 84.1025390625 c 0,13,14
 224.753025351 66 224.753025351 66 276.706122449 66 c 0,15,16
 337.855548469 66 337.855548469 66 380.39872449 97.1162109375 c 0,17,18
 427 129.291015625 427 129.291015625 427 178.881835938 c 0,19,20
 425.91796875 236.559570312 425.91796875 236.559570312 380.416067443 268.166992188 c 0,21,22
 339.510431282 298.26171875 339.510431282 298.26171875 256.752598852 318.090820312 c 0,23,24
 162.345778858 339.208007812 162.345778858 339.208007812 108.733398438 387.026367188 c 0,25,26
 56 433.795898438 56 433.795898438 56 517.209960938 c 0,27,28
 56 575.137695312 56 575.137695312 85.564453125 618.658203125 c 0,29,30
 115.271484375 662.388671875 115.271484375 662.388671875 167.533147321 686.073242188 c 0,31,32
 217.511886161 710 217.511886161 710 280.444897959 710 c 0,33,34
 337.078766741 710 337.078766741 710 387.265625 690.481445312 c 0,35,36
 440.657226562 671.06640625 440.657226562 671.06640625 473.427734375 639.259765625 c 2,37,-1
 473.584960938 639.106445312 l 2,38,39
 494 621.354492188 494 621.354492188 494 602 c 0,40,41
 494 587.228515625 494 587.228515625 482.741210938 575.552734375 c 128,-1,42
 471.600585938 564 471.600585938 564 456 564 c 0,43,44
 445.459960938 564 445.459960938 564 438.536132812 569.780273438 c 0,45,46
 410.908203125 597.061523438 410.908203125 597.061523438 365.422628348 615.450195312 c 0,47,48
 321.113209503 634 321.113209503 634 280.444897959 634 c 0,49,50
 215.473632812 634 215.473632812 634 176.627244101 604.328125 c 0,51,52
 135 573.6796875 135 573.6796875 135 523.248046875 c 0,53,54
 135 468.578125 135 468.578125 176.788807398 439.485351562 c 0,55,56
 214.831030772 412.012695312 214.831030772 412.012695312 289.08990354 393.211914062 c 0,57,58
 361.232023278 375.9609375 361.232023278 375.9609375 408.12890625 352.7578125 c 0,59,60
 455.568359375 330.153320312 455.568359375 330.153320312 481.318359375 290.0546875 c 128,-1,61
 507 250.063476562 507 250.063476562 507 184.840820312 c 0,62,63
 507 128.015625 507 128.015625 476.014648438 84.01953125 c 0,64,65
 444.774414062 39.662109375 444.774414062 39.662109375 390.739257812 14.9248046875 c 0,66,67
 339.606273916 -10 339.606273916 -10 278.575510204 -10 c 0,0,1
EndSplineSet
Validated: 524289
EndChar

StartChar: Scedilla
Encoding: 350 350 182
Width: 582
GlyphClass: 2
Flags: W
AnchorPoint: "Anchor-8" 0 0 basechar 0
AnchorPoint: "Anchor-7" 0 0 basechar 0
AnchorPoint: "Anchor-6" 0 0 basechar 0
AnchorPoint: "Anchor-5" 0 0 basechar 0
AnchorPoint: "Anchor-4" 263 -148 basechar 0
LayerCount: 2
Fore
SplineSet
507 184.840820312 m 0,0,1
 507 130.970703125 507 130.970703125 478.390625 87.9404296875 c 0,2,3
 449.580078125 44.609375 449.580078125 44.609375 399.477539062 19.4140625 c 0,4,5
 375.038839286 6.7041015625 375.038839286 6.7041015625 348.892055963 -0.654296875 c 128,-1,6
 322.746185427 -8.0126953125 322.746185427 -8.0126953125 293.991569675 -10.015625 c 2,7,-1
 289.301670121 -10.3349609375 l 1,8,-1
 287.535427296 -14.994140625 l 1,9,-1
 245.431301818 -126.107421875 l 2,10,11
 237.852431441 -148 237.852431441 -148 219.689795918 -148 c 0,12,13
 206.805807557 -148 206.805807557 -148 189.888213489 -137.139648438 c 0,14,15
 174.824489796 -127.470703125 174.824489796 -127.470703125 174.824489796 -116 c 0,16,17
 174.824489796 -105.092773438 174.824489796 -105.092773438 182.227192283 -96.3818359375 c 0,18,-1
 182.637946429 -95.853515625 l 1,19,-1
 236.850191327 -19.853515625 l 1,20,-1
 245.044280134 -8.3662109375 l 1,21,-1
 231.595276626 -7.0341796875 l 2,22,23
 182.381453284 -2.1591796875 182.381453284 -2.1591796875 140.31640625 17.7802734375 c 0,24,25
 96.4912109375 37.7451171875 96.4912109375 37.7451171875 56.32421875 74.97265625 c 0,26,27
 38 90.6796875 38 90.6796875 38 110 c 0,28,29
 38 124.768554688 38 124.768554688 49.7548828125 136.943359375 c 128,-1,30
 61.396484375 149 61.396484375 149 77 149 c 0,31,32
 90.888671875 149 90.888671875 149 100.567382812 140.126953125 c 0,33,34
 141.624023438 102.150390625 141.624023438 102.150390625 183.661180644 84.1025390625 c 0,35,36
 224.753025351 66 224.753025351 66 276.706122449 66 c 0,37,38
 337.855548469 66 337.855548469 66 380.39872449 97.1162109375 c 0,39,40
 427 129.291015625 427 129.291015625 427 178.881835938 c 0,41,42
 425.91796875 236.559570312 425.91796875 236.559570312 380.416067443 268.166992188 c 0,43,44
 339.510431282 298.26171875 339.510431282 298.26171875 256.752598852 318.090820312 c 0,45,46
 162.345778858 339.208007812 162.345778858 339.208007812 108.733398438 387.026367188 c 0,47,48
 56 433.795898438 56 433.795898438 56 517.209960938 c 0,49,50
 56 575.137695312 56 575.137695312 85.564453125 618.658203125 c 0,51,52
 115.271484375 662.388671875 115.271484375 662.388671875 167.533147321 686.073242188 c 0,53,54
 217.511886161 710 217.511886161 710 280.444897959 710 c 0,55,56
 337.078766741 710 337.078766741 710 387.265625 690.481445312 c 0,57,58
 440.657226562 671.06640625 440.657226562 671.06640625 473.427734375 639.259765625 c 2,59,-1
 473.584960938 639.106445312 l 2,60,61
 494 621.354492188 494 621.354492188 494 602 c 0,62,63
 494 587.228515625 494 587.228515625 482.741210938 575.552734375 c 128,-1,64
 471.600585938 564 471.600585938 564 456 564 c 0,65,66
 445.459960938 564 445.459960938 564 438.536132812 569.780273438 c 0,67,68
 410.908203125 597.061523438 410.908203125 597.061523438 365.422628348 615.450195312 c 0,69,70
 321.113209503 634 321.113209503 634 280.444897959 634 c 0,71,72
 215.473632812 634 215.473632812 634 176.627244101 604.328125 c 0,73,74
 135 573.6796875 135 573.6796875 135 523.248046875 c 0,75,76
 135 468.578125 135 468.578125 176.788807398 439.485351562 c 0,77,78
 214.831030772 412.012695312 214.831030772 412.012695312 289.08990354 393.211914062 c 0,79,80
 361.232023278 375.9609375 361.232023278 375.9609375 408.12890625 352.7578125 c 0,81,82
 455.568359375 330.153320312 455.568359375 330.153320312 481.318359375 290.0546875 c 128,-1,83
 507 250.063476562 507 250.063476562 507 184.840820312 c 0,0,1
EndSplineSet
Validated: 524289
Substitution2: "'locl' Localized Forms in Latin lookup 2 subtable" uni0218
Substitution2: "'locl' Localized Forms in Latin lookup 1 subtable" uni0218
EndChar

StartChar: uni1E9E
Encoding: 7838 7838 188
Width: 729
Flags: W
LayerCount: 2
Fore
SplineSet
498.66226979 376.127929688 m 0,0,1
 547.373046875 354.897460938 547.373046875 354.897460938 578.836914062 335.291992188 c 0,2,3
 609.161132812 316.396484375 609.161132812 316.396484375 631.647460938 278.234375 c 0,4,5
 654 240.301757812 654 240.301757812 654 179.176757812 c 0,6,7
 654 128.502929688 654 128.502929688 625.3671875 85.0712890625 c 0,8,9
 596.50390625 41.291015625 596.50390625 41.291015625 548.309570312 15.6640625 c 0,10,11
 501.609642359 -10 501.609642359 -10 449.103746398 -10 c 0,12,13
 397.23874561 -10 397.23874561 -10 348.111522312 11.8642578125 c 0,14,15
 299.839446934 33.34765625 299.839446934 33.34765625 271.221800702 71.646484375 c 0,16,17
 260.233429395 89.8115234375 260.233429395 89.8115234375 260.233429395 109 c 0,18,19
 260.233429395 125.245117188 260.233429395 125.245117188 270.539918048 139.075195312 c 0,20,21
 280.171976315 152 280.171976315 152 295.527377522 152 c 0,22,23
 301.797530732 152 301.797530732 152 309.582357709 148.993164062 c 0,24,25
 316.78125 146.212890625 316.78125 146.212890625 321.177157443 140.8359375 c 0,26,27
 345.884225279 109.754882812 345.884225279 109.754882812 380.007235568 89.53515625 c 0,28,29
 414.664014657 69 414.664014657 69 448.149855908 69 c 0,30,31
 501.227713549 69 501.227713549 69 532.82347296 94.2587890625 c 0,32,33
 567 120.364257812 567 120.364257812 567 165.615234375 c 0,34,35
 567 198.219726562 567 198.219726562 550.340820312 220.478515625 c 0,36,37
 534.399414062 241.779296875 534.399414062 241.779296875 512.127589157 255.948242188 c 0,38,39
 491.086106358 269.345703125 491.086106358 269.345703125 454.46844887 287.045898438 c 0,40,41
 447.128894993 291.470703125 447.128894993 291.470703125 434.122821731 297.477539062 c 0,42,43
 377.357022244 326.555664062 377.357022244 326.555664062 344.949896997 363.469726562 c 0,44,45
 313.65129683 399.122070312 313.65129683 399.122070312 313.65129683 463.685546875 c 0,46,47
 313.65129683 535.310546875 313.65129683 535.310546875 353.387729084 578.126953125 c 0,48,49
 393.756672708 621.625 393.756672708 621.625 459.26584733 636.537109375 c 2,50,-1
 493.432639702 644.315429688 l 1,51,-1
 459.369247568 652.603515625 l 2,52,53
 428.969577405 660 428.969577405 660 378.515850144 660 c 0,54,55
 283.862712761 660 283.862712761 660 228.227795164 603.758789062 c 0,56,57
 171 547.399414062 171 547.399414062 171 451.041015625 c 2,58,-1
 169 57 l 2,59,60
 169 39.482421875 169 39.482421875 157.048828125 28.35546875 c 0,61,62
 144.852539062 17 144.852539062 17 125 17 c 0,63,64
 106.228515625 17 106.228515625 17 94.552734375 28.2587890625 c 128,-1,65
 83 39.3994140625 83 39.3994140625 83 56.95703125 c 2,66,-1
 85 429 l 2,67,68
 85 511.111328125 85 511.111328125 118.655273438 578.421875 c 0,69,70
 152.122070312 645.35546875 152.122070312 645.35546875 217.924101112 685.658203125 c 0,71,72
 281.442588256 726 281.442588256 726 371.838616715 726 c 0,73,74
 428.214103589 726 428.214103589 726 475.549056083 714.69921875 c 0,75,76
 522.781539873 703.168945312 522.781539873 703.168945312 556.341796875 685.235351562 c 2,77,-1
 556.556640625 685.122070312 l 2,78,79
 579.963867188 674.58984375 579.963867188 674.58984375 590.232421875 661.350585938 c 0,80,81
 600 648.756835938 600 648.756835938 600 632.177734375 c 0,82,83
 600 618.470703125 600 618.470703125 591.96875 613.6796875 c 0,84,85
 581.3046875 607.318359375 581.3046875 607.318359375 556.661132812 601.399414062 c 0,86,87
 547.168945312 600.197265625 547.168945312 600.197265625 534.1171875 596.174804688 c 0,88,89
 467.929110568 583.50390625 467.929110568 583.50390625 434.532696551 560.865234375 c 0,90,91
 398.547550432 536.471679688 398.547550432 536.471679688 398.547550432 489.017578125 c 0,92,93
 398.547550432 448.571289062 398.547550432 448.571289062 425.862912577 422.10546875 c 0,94,95
 451.636586478 397.1328125 451.636586478 397.1328125 498.66226979 376.127929688 c 0,0,1
EndSplineSet
Validated: 524289
EndChar

StartChar: uni018F
Encoding: 399 399 189
Width: 769
Flags: W
LayerCount: 2
Fore
SplineSet
366.093676815 710 m 0,0,1
 453.433808731 710 453.433808731 710 527.620000549 661.606445312 c 0,2,3
 603.048828125 613.11328125 603.048828125 613.11328125 648.53125 530.584960938 c 128,-1,4
 694 448.080078125 694 448.080078125 694 350 c 128,-1,5
 694 251.899414062 694 251.899414062 649.012695312 169.381835938 c 128,-1,6
 604.025390625 86.865234375 604.025390625 86.865234375 529.04499506 38.380859375 c 0,7,8
 455.346647669 -10 455.346647669 -10 368.018735363 -10 c 0,9,10
 288.125985711 -10 288.125985711 -10 215.707877452 30.8916015625 c 0,11,12
 142.568359375 71.7587890625 142.568359375 71.7587890625 95.19140625 145.543945312 c 128,-1,13
 47.927734375 219.150390625 47.927734375 219.150390625 43 312.767578125 c 1,14,-1
 43 335.004882812 l 2,15,16
 43 357.859375 43 357.859375 57.29296875 370.731445312 c 0,17,18
 72.0244140625 384 72.0244140625 384 93 384 c 2,19,-1
 599 384 l 1,20,-1
 607.947265625 384 l 1,21,-1
 606.950195312 393.189453125 l 2,22,23
 594.603515625 506.966796875 594.603515625 506.966796875 527.566422259 569.021484375 c 0,24,25
 461.383134971 631 461.383134971 631 366.093676815 631 c 0,26,27
 306.013614699 631 306.013614699 631 256.12282732 612.01171875 c 128,-1,28
 206.40687436 593.08984375 206.40687436 593.08984375 163.628839926 549.961914062 c 0,29,30
 149.763671875 539 149.763671875 539 136 539 c 0,31,32
 121.958984375 539 121.958984375 539 110.206054688 549.07421875 c 0,33,-1
 109.911132812 549.314453125 l 2,34,35
 95 560.913085938 95 560.913085938 95 579 c 0,36,37
 95 596.192382812 95 596.192382812 108.044921875 606.791015625 c 0,38,-1
 108.657226562 607.342773438 l 2,39,40
 163.427686347 662.130859375 163.427686347 662.130859375 223.96739379 686.021484375 c 0,41,42
 284.728934152 710 284.728934152 710 366.093676815 710 c 0,0,1
43 314.213867188 m 1,43,-1
 43 314.213867188 l 1,43,-1
368.018735363 69 m 0,44,45
 426.657823478 69 426.657823478 69 476.432994548 96.298828125 c 128,-1,46
 526.248584327 123.620117188 526.248584327 123.620117188 560.070584657 174.967773438 c 0,47,48
 594.620117188 226.247070312 594.620117188 226.247070312 604.907226562 295.459960938 c 2,49,-1
 606.325195312 305 l 1,50,-1
 597 305 l 1,51,-1
 137 305 l 1,52,-1
 127.530273438 305 l 1,53,-1
 129.112304688 295.3359375 l 2,54,55
 139.418945312 232.395507812 139.418945312 232.395507812 174.532491858 180.647460938 c 0,56,57
 208.761499195 128.899414062 208.761499195 128.899414062 259.39768278 99.0048828125 c 128,-1,58
 310.217160513 69 310.217160513 69 368.018735363 69 c 0,44,45
EndSplineSet
Validated: 524289
EndChar

StartChar: T
Encoding: 84 84 190
Width: 617
GlyphClass: 2
Flags: W
AnchorPoint: "Anchor-8" 0 0 basechar 0
AnchorPoint: "Anchor-7" 308 350 basechar 0
AnchorPoint: "Anchor-6" 308 700 basechar 0
AnchorPoint: "Anchor-5" 0 0 basechar 0
AnchorPoint: "Anchor-4" 308 0 basechar 0
LayerCount: 2
Fore
SplineSet
513 700 m 2,0,1
 530.865234375 700 530.865234375 700 542.064453125 689.629882812 c 0,2,3
 553 679.504882812 553 679.504882812 553 662 c 128,-1,4
 553 644.592773438 553 644.592773438 542.185546875 634.979492188 c 0,5,6
 530.958007812 625 530.958007812 625 513 625 c 2,7,-1
 340.279461279 625 l 1,8,-1
 332.71043771 625 l 1,9,-1
 332.71043771 617 l 1,10,-1
 332.71043771 56 l 2,11,12
 332.71043771 39.396484375 332.71043771 39.396484375 321.303313079 27.7548828125 c 128,-1,13
 309.784390125 16 309.784390125 16 292.026936027 16 c 128,-1,14
 274.269481929 16 274.269481929 16 262.750558975 27.7548828125 c 128,-1,15
 251.343434343 39.396484375 251.343434343 39.396484375 251.343434343 56 c 2,16,-1
 251.343434343 617 l 1,17,-1
 251.343434343 625 l 1,18,-1
 243.774410774 625 l 1,19,-1
 72 625 l 2,20,21
 54.134765625 625 54.134765625 625 42.935546875 635.370117188 c 0,22,23
 32 645.495117188 32 645.495117188 32 663 c 0,24,25
 32 679.504882812 32 679.504882812 42.935546875 689.629882812 c 0,26,27
 54.134765625 700 54.134765625 700 72 700 c 2,28,-1
 513 700 l 2,0,1
EndSplineSet
Validated: 524289
EndChar

StartChar: Tbar
Encoding: 358 358 191
Width: 617
GlyphClass: 2
Flags: W
AnchorPoint: "Anchor-8" 0 0 basechar 0
AnchorPoint: "Anchor-7" 308 350 basechar 0
AnchorPoint: "Anchor-6" 308 700 basechar 0
AnchorPoint: "Anchor-5" 0 0 basechar 0
AnchorPoint: "Anchor-4" 308 0 basechar 0
LayerCount: 2
Fore
SplineSet
513 700 m 2,0,1
 530.865234375 700 530.865234375 700 542.064453125 689.629882812 c 0,2,3
 553 679.504882812 553 679.504882812 553 662 c 128,-1,4
 553 644.592773438 553 644.592773438 542.185546875 634.979492188 c 0,5,6
 530.958007812 625 530.958007812 625 513 625 c 2,7,-1
 340.279461279 625 l 1,8,-1
 332.71043771 625 l 1,9,-1
 332.71043771 616.731445312 l 1,10,-1
 332.71043771 387.268554688 l 1,11,-1
 332.71043771 379 l 1,12,-1
 340.279461279 379 l 1,13,-1
 379.070707071 379 l 2,14,15
 396.052040588 379 396.052040588 379 407.144097222 368.532226562 c 0,16,17
 417.861952862 358.41796875 417.861952862 358.41796875 417.861952862 343 c 128,-1,18
 417.861952862 327.58203125 417.861952862 327.58203125 407.144097222 317.467773438 c 0,19,20
 396.052040588 307 396.052040588 307 379.070707071 307 c 2,21,-1
 340.279461279 307 l 1,22,-1
 332.71043771 307 l 1,23,-1
 332.71043771 299 l 1,24,-1
 332.71043771 48 l 2,25,26
 332.71043771 31.396484375 332.71043771 31.396484375 321.303313079 19.7548828125 c 128,-1,27
 309.784390125 8 309.784390125 8 292.026936027 8 c 128,-1,28
 274.269481929 8 274.269481929 8 262.750558975 19.7548828125 c 128,-1,29
 251.343434343 31.396484375 251.343434343 31.396484375 251.343434343 48 c 2,30,-1
 251.343434343 299 l 1,31,-1
 251.343434343 307 l 1,32,-1
 243.774410774 307 l 1,33,-1
 219.175084175 307 l 2,34,35
 202.272286669 307 202.272286669 307 191.676392835 317.370117188 c 0,36,37
 181.32996633 327.495117188 181.32996633 327.495117188 181.32996633 344 c 0,38,39
 181.32996633 359.407226562 181.32996633 359.407226562 191.561822654 369.020507812 c 0,40,41
 202.184511127 379 202.184511127 379 219.175084175 379 c 2,42,-1
 243.774410774 379 l 1,43,-1
 251.343434343 379 l 1,44,-1
 251.343434343 387.268554688 l 1,45,-1
 251.343434343 616.731445312 l 1,46,-1
 251.343434343 625 l 1,47,-1
 243.774410774 625 l 1,48,-1
 72 625 l 2,49,50
 54.134765625 625 54.134765625 625 42.935546875 635.370117188 c 0,51,52
 32 645.495117188 32 645.495117188 32 663 c 0,53,54
 32 679.504882812 32 679.504882812 42.935546875 689.629882812 c 0,55,56
 54.134765625 700 54.134765625 700 72 700 c 2,57,-1
 513 700 l 2,0,1
EndSplineSet
Validated: 524289
EndChar

StartChar: uni0162
Encoding: 354 354 193
Width: 617
GlyphClass: 2
Flags: W
AnchorPoint: "Anchor-8" 0 0 basechar 0
AnchorPoint: "Anchor-7" 308 350 basechar 0
AnchorPoint: "Anchor-6" 0 0 basechar 0
AnchorPoint: "Anchor-5" 0 0 basechar 0
AnchorPoint: "Anchor-4" 280 -148 basechar 0
LayerCount: 2
Fore
SplineSet
513 700 m 2,0,1
 530.865234375 700 530.865234375 700 542.064453125 689.629882812 c 0,2,3
 553 679.504882812 553 679.504882812 553 662 c 128,-1,4
 553 644.592773438 553 644.592773438 542.185546875 634.979492188 c 0,5,6
 530.958007812 625 530.958007812 625 513 625 c 2,7,-1
 340.279461279 625 l 1,8,-1
 332.71043771 625 l 1,9,-1
 332.71043771 616.826171875 l 1,10,-1
 332.71043771 43.615234375 l 2,11,12
 332.71043771 32.5673828125 332.71043771 32.5673828125 327.61298861 23.2509765625 c 128,-1,13
 322.52477904 13.951171875 322.52477904 13.951171875 313.947722669 8.8994140625 c 2,14,-1
 311.576859086 7.501953125 l 1,15,-1
 310.559586753 4.7998046875 l 1,16,-1
 261.316583807 -126.104492188 l 2,17,18
 253.644077494 -148 253.644077494 -148 236.205387205 -148 c 0,19,20
 223.163789589 -148 223.163789589 -148 206.039243345 -137.139648438 c 0,21,22
 190.791245791 -127.470703125 190.791245791 -127.470703125 190.791245791 -116 c 0,23,24
 190.791245791 -105.092773438 190.791245791 -105.092773438 198.284505208 -96.3818359375 c 0,25,-1
 198.691968513 -95.8642578125 l 1,26,-1
 266.813180634 0.26953125 l 1,27,-1
 271.463436448 6.830078125 l 1,28,-1
 265.345943156 11.7890625 l 2,29,30
 259.206274989 16.7666015625 259.206274989 16.7666015625 255.274854666 25.2666015625 c 128,-1,31
 251.343434343 33.765625 251.343434343 33.765625 251.343434343 43.083984375 c 2,32,-1
 251.343434343 616.818359375 l 1,33,-1
 251.343434343 625 l 1,34,-1
 243.774410774 625 l 1,35,-1
 72 625 l 2,36,37
 54.134765625 625 54.134765625 625 42.935546875 635.370117188 c 0,38,39
 32 645.495117188 32 645.495117188 32 663 c 0,40,41
 32 679.504882812 32 679.504882812 42.935546875 689.629882812 c 0,42,43
 54.134765625 700 54.134765625 700 72 700 c 2,44,-1
 513 700 l 2,0,1
EndSplineSet
Validated: 524289
Substitution2: "'locl' Localized Forms in Latin lookup 2 subtable" uni021A
Substitution2: "'locl' Localized Forms in Latin lookup 1 subtable" uni021A
EndChar

StartChar: U
Encoding: 85 85 197
Width: 708
GlyphClass: 2
Flags: W
AnchorPoint: "Anchor-8" 497 708 basechar 0
AnchorPoint: "Anchor-7" 0 0 basechar 0
AnchorPoint: "Anchor-6" 355 700 basechar 0
AnchorPoint: "Anchor-5" 637 10 basechar 0
AnchorPoint: "Anchor-4" 355 0 basechar 0
LayerCount: 2
Fore
SplineSet
555 701 m 128,-1,1
 572.504882812 701 572.504882812 701 582.629882812 690.064453125 c 0,2,3
 593 678.865234375 593 678.865234375 593 661 c 2,4,-1
 593 277 l 2,5,6
 593 200.073242188 593 200.073242188 559.006835938 138.884765625 c 128,-1,7
 525.08203125 77.8212890625 525.08203125 77.8212890625 465.920502349 43.4287109375 c 0,8,9
 409.612728092 9 409.612728092 9 338.944055944 9 c 0,10,11
 267.316576978 9 267.316576978 9 210.529399312 43.4423828125 c 0,12,13
 150.91015625 77.833984375 150.91015625 77.833984375 116.993164062 138.884765625 c 128,-1,14
 83 200.073242188 83 200.073242188 83 277 c 2,15,-1
 83 661 l 2,16,17
 83 678.600585938 83 678.600585938 94.552734375 689.741210938 c 128,-1,18
 106.228515625 701 106.228515625 701 125 701 c 0,19,20
 140.768554688 701 140.768554688 701 152.943359375 689.245117188 c 128,-1,21
 165 677.603515625 165 677.603515625 165 661 c 2,22,-1
 165 277 l 2,23,24
 165 222.853515625 165 222.853515625 190.07421875 179.495117188 c 0,25,26
 214.470648492 136.135742188 214.470648492 136.135742188 253.991006064 112.064453125 c 128,-1,27
 293.50122241 88 293.50122241 88 338.944055944 88 c 0,28,29
 386.232592603 88 386.232592603 88 426.660128934 112.022460938 c 128,-1,30
 467.141137183 136.077148438 467.141137183 136.077148438 492.388671875 179.432617188 c 0,31,32
 518 222.814453125 518 222.814453125 518 277 c 2,33,-1
 518 661 l 2,34,35
 518 678.958007812 518 678.958007812 527.979492188 690.185546875 c 0,36,0
 537.592773438 701 537.592773438 701 555 701 c 128,-1,1
EndSplineSet
Validated: 524289
EndChar

StartChar: Uhorn
Encoding: 431 431 207
Width: 708
GlyphClass: 2
Flags: W
AnchorPoint: "Anchor-8" 497 708 basechar 0
AnchorPoint: "Anchor-7" 0 0 basechar 0
AnchorPoint: "Anchor-6" 360 700 basechar 0
AnchorPoint: "Anchor-5" 637 10 basechar 0
AnchorPoint: "Anchor-4" 359 0 basechar 0
LayerCount: 2
Fore
SplineSet
708 776 m 0,0,1
 708 724.67578125 708 724.67578125 680.610351562 688.313476562 c 0,2,3
 653.415039062 652.209960938 653.415039062 652.209960938 599.3515625 640.828125 c 2,4,-1
 593 639.491210938 l 1,5,-1
 593 633 l 1,6,-1
 593 277 l 2,7,8
 593 200.073242188 593 200.073242188 560.163670414 138.884765625 c 0,9,10
 527.592473893 77.8212890625 527.592473893 77.8212890625 470.388718146 43.4287109375 c 128,-1,11
 413.124018567 9 413.124018567 9 341.25436409 9 c 0,12,13
 268.409608303 9 268.409608303 9 210.65735807 43.4423828125 c 0,14,15
 150.91015625 77.833984375 150.91015625 77.833984375 116.993164062 138.884765625 c 128,-1,16
 83 200.073242188 83 200.073242188 83 277 c 2,17,-1
 83 661 l 2,18,19
 83 678.600585938 83 678.600585938 94.552734375 689.741210938 c 128,-1,20
 106.228515625 701 106.228515625 701 125 701 c 0,21,22
 140.768554688 701 140.768554688 701 152.943359375 689.245117188 c 128,-1,23
 165 677.603515625 165 677.603515625 165 661 c 2,24,-1
 165 277 l 2,25,26
 165 222.853515625 165 222.853515625 190.07421875 179.495117188 c 0,27,28
 214.665587009 136.135742188 214.665587009 136.135742188 254.8575753 112.064453125 c 128,-1,29
 295.039250019 88 295.039250019 88 341.25436409 88 c 0,30,31
 389.34654818 88 389.34654818 88 430.461132325 112.022460938 c 128,-1,32
 471.63009712 136.077148438 471.63009712 136.077148438 496.20358771 179.432617188 c 128,-1,33
 520.793017456 222.814453125 520.793017456 222.814453125 520.793017456 277 c 2,34,-1
 520.793017456 661 l 2,35,36
 520.793017456 678.958007812 520.793017456 678.958007812 530.374325417 690.185546875 c 0,37,38
 539.604034348 701 539.604034348 701 556.316708229 701 c 2,39,-1
 563.037406484 701 l 1,40,-1
 563.554960256 701.018554688 l 2,41,42
 601.8515625 703.674804688 601.8515625 703.674804688 622.92578125 722.75 c 128,-1,43
 644 741.826171875 644 741.826171875 644 776 c 0,44,45
 644 791.333007812 644 791.333007812 652.900390625 803.200195312 c 0,46,47
 661 814 661 814 676 814 c 0,48,49
 692.760742188 814 692.760742188 814 699.879882812 803.5078125 c 0,50,51
 708 791.541992188 708 791.541992188 708 776 c 0,0,1
EndSplineSet
Validated: 524289
EndChar

StartChar: Uogonek
Encoding: 370 370 217
Width: 708
GlyphClass: 2
Flags: W
AnchorPoint: "Anchor-8" 688 700 basechar 0
AnchorPoint: "Anchor-7" 0 0 basechar 0
AnchorPoint: "Anchor-6" 355 700 basechar 0
AnchorPoint: "Anchor-5" 637 10 basechar 0
AnchorPoint: "Anchor-4" 355 0 basechar 0
LayerCount: 2
Fore
SplineSet
555 701 m 0,0,1
 572.504882812 701 572.504882812 701 582.629882812 689.838867188 c 0,2,3
 593 678.407226562 593 678.407226562 593 660.171875 c 2,4,-1
 593 268.223632812 l 2,5,6
 593 199.6015625 593 199.6015625 563.74609375 135.404296875 c 0,7,8
 534.799804688 71.880859375 534.799804688 71.880859375 478.84375 38.400390625 c 0,9,10
 380.482517483 -28.3759765625 380.482517483 -28.3759765625 380.482517483 -88 c 0,11,12
 380.482517483 -112.21484375 380.482517483 -112.21484375 393.438394613 -126.53515625 c 128,-1,13
 406.525185752 -141 406.525185752 -141 424.853146853 -141 c 0,14,15
 442.79020979 -141 442.79020979 -141 453.617351399 -125.708007812 c 0,16,17
 462.752752131 -112 462.752752131 -112 481 -112 c 0,18,19
 492.686523438 -112 492.686523438 -112 500.342773438 -119.657226562 c 128,-1,20
 508 -127.313476562 508 -127.313476562 508 -141 c 0,21,22
 508 -152.9140625 508 -152.9140625 495.572265625 -166.627929688 c 0,23,24
 482.272460938 -181.302734375 482.272460938 -181.302734375 460.654440286 -190.615234375 c 0,25,26
 439.391977163 -200 439.391977163 -200 416.356643357 -200 c 0,27,28
 374.740739729 -200 374.740739729 -200 347.110508632 -175.377929688 c 0,29,30
 320.062937063 -151.275390625 320.062937063 -151.275390625 320.062937063 -106 c 0,31,32
 320.062937063 -59.7001953125 320.062937063 -59.7001953125 348.727573208 -19.8486328125 c 2,33,-1
 357.968995848 -6.7080078125 l 1,34,-1
 342.72027972 -6.7080078125 l 1,35,-1
 338.944055944 -6.7080078125 l 2,36,37
 267.316576978 -6.7080078125 267.316576978 -6.7080078125 210.529399312 28.515625 c 0,38,39
 150.91015625 63.6884765625 150.91015625 63.6884765625 116.993164062 126.125 c 128,-1,40
 83 188.702148438 83 188.702148438 83 267.375 c 2,41,-1
 83 660.091796875 l 2,42,43
 83 678.092773438 83 678.092773438 94.552734375 689.485351562 c 128,-1,44
 106.228515625 701 106.228515625 701 125 701 c 128,-1,45
 143.59765625 701 143.59765625 701 154.237304688 689.951171875 c 128,-1,46
 165 678.774414062 165 678.774414062 165 661 c 2,47,-1
 165 277 l 2,48,49
 165 222.853515625 165 222.853515625 190.07421875 179.495117188 c 0,50,51
 214.470648492 136.135742188 214.470648492 136.135742188 253.991006064 112.064453125 c 128,-1,52
 293.50122241 88 293.50122241 88 338.944055944 88 c 0,53,54
 386.232592603 88 386.232592603 88 426.660128934 112.022460938 c 128,-1,55
 467.141137183 136.077148438 467.141137183 136.077148438 492.388671875 179.432617188 c 0,56,57
 518 222.814453125 518 222.814453125 518 277 c 2,58,-1
 518 661 l 2,59,60
 518 677.771484375 518 677.771484375 529.258789062 689.447265625 c 128,-1,61
 540.399414062 701 540.399414062 701 555 701 c 0,0,1
EndSplineSet
Validated: 524289
EndChar

StartChar: V
Encoding: 86 86 221
Width: 672
GlyphClass: 2
Flags: W
AnchorPoint: "Anchor-8" 0 0 basechar 0
AnchorPoint: "Anchor-7" 0 0 basechar 0
AnchorPoint: "Anchor-6" 336 700 basechar 0
AnchorPoint: "Anchor-5" 0 0 basechar 0
AnchorPoint: "Anchor-4" 336 0 basechar 0
LayerCount: 2
Fore
SplineSet
568 701 m 0,0,1
 584.938476562 701 584.938476562 701 597.159179688 690.04296875 c 0,2,3
 609 679.427734375 609 679.427734375 609 664 c 0,4,5
 609 655.599609375 609 655.599609375 604.631835938 645.116210938 c 2,6,-1
 356.002879891 42.2509765625 l 2,7,8
 350.347553891 29.556640625 350.347553891 29.556640625 339.887158618 22.8134765625 c 0,9,10
 329.67568719 16.2314453125 329.67568719 16.2314453125 318.40325945 15.998046875 c 0,11,12
 307.881332441 17.0625 307.881332441 17.0625 298.895834255 23.201171875 c 128,-1,13
 289.976529302 29.2939453125 289.976529302 29.2939453125 284.019138412 41.30859375 c 2,14,-1
 35.3701171875 645.111328125 l 1,15,-1
 35.1552734375 645.578125 l 2,16,17
 32 651.888671875 32 651.888671875 32 663 c 0,18,19
 32 680.346679688 32 680.346679688 44.2392578125 690.954101562 c 0,20,21
 56.984375 702 56.984375 702 72 702 c 0,22,23
 96.767578125 702 96.767578125 702 108.651367188 674.836914062 c 2,24,-1
 318.717444228 159.881835938 l 1,25,-1
 325.957678603 141.965820312 l 1,26,-1
 332.843639341 160.034179688 l 1,27,-1
 531.313476562 675.7421875 l 2,28,29
 537.587890625 687.837890625 537.587890625 687.837890625 547.068359375 694.432617188 c 128,-1,30
 556.508789062 701 556.508789062 701 568 701 c 0,0,1
EndSplineSet
Validated: 524289
EndChar

StartChar: W
Encoding: 87 87 222
Width: 953
GlyphClass: 2
Flags: W
AnchorPoint: "Anchor-8" 0 0 basechar 0
AnchorPoint: "Anchor-7" 0 0 basechar 0
AnchorPoint: "Anchor-6" 477 700 basechar 0
AnchorPoint: "Anchor-5" 0 0 basechar 0
AnchorPoint: "Anchor-4" 477 0 basechar 0
LayerCount: 2
Fore
SplineSet
856 703 m 0,0,1
 871.994140625 703 871.994140625 703 885.732421875 690.979492188 c 0,2,3
 899 679.370117188 899 679.370117188 899 660 c 0,4,5
 899 653.297851562 899 653.297851562 896.430664062 645.58984375 c 2,6,-1
 691.625318542 40.58984375 l 1,7,-1
 691.560539397 40.3955078125 l 2,8,9
 688.450187835 29.234375 688.450187835 29.234375 678.898121949 23.3603515625 c 0,10,11
 668.680164565 17.0751953125 668.680164565 17.0751953125 656.785570504 15.998046875 c 0,12,13
 645.248214371 16.2314453125 645.248214371 16.2314453125 634.814008961 22.8134765625 c 128,-1,14
 624.330266558 29.4267578125 624.330266558 29.4267578125 619.401335782 42.0576171875 c 2,15,-1
 467.188446652 407.14453125 l 1,16,-1
 459.989387921 424.411132812 l 1,17,-1
 452.829387203 407.126953125 l 1,18,-1
 301.59485368 42.0498046875 l 2,19,20
 296.669733442 29.4267578125 296.669733442 29.4267578125 286.185991039 22.8134765625 c 128,-1,21
 275.744164553 16.2265625 275.744164553 16.2265625 263.239884428 15.9970703125 c 0,22,23
 251.562491027 17.0712890625 251.562491027 17.0712890625 241.927545942 23.65625 c 0,24,25
 232.534570013 30.076171875 232.534570013 30.076171875 229.413739472 40.4716796875 c 2,26,-1
 24.58984375 645.530273438 l 2,27,28
 22 653.297851562 22 653.297851562 22 660 c 0,29,30
 22 678.379882812 22 678.379882812 35.78125 690.490234375 c 0,31,32
 50.015625 703 50.015625 703 66 703 c 0,33,34
 79.6171875 703 79.6171875 703 90.6220703125 695.8046875 c 0,35,36
 101.126953125 688.935546875 101.126953125 688.935546875 104.307617188 677.801757812 c 0,37,-1
 104.419921875 677.443359375 l 1,38,-1
 270.199831906 176.443359375 l 1,39,-1
 276.906378613 156.060546875 l 1,40,-1
 284.82181847 175.982421875 l 1,41,-1
 426.242311627 531.915039062 l 2,42,43
 431.153142348 543.663085938 431.153142348 543.663085938 440.929077335 550.34375 c 128,-1,44
 450.668812213 557 450.668812213 557 462.938744257 557 c 128,-1,45
 475.208676302 557 475.208676302 557 484.948411179 550.34375 c 128,-1,46
 494.724346167 543.663085938 494.724346167 543.663085938 499.620887371 531.951171875 c 2,47,-1
 637.126052833 176.053710938 l 1,48,-1
 644.990050428 155.69921875 l 1,49,-1
 651.78042897 176.45703125 l 1,50,-1
 816.584960938 677.45703125 l 1,51,-1
 816.665039062 677.6953125 l 2,52,53
 819.908203125 689.857421875 819.908203125 689.857421875 830.192382812 696.186523438 c 0,54,55
 841.264648438 703 841.264648438 703 856 703 c 0,0,1
EndSplineSet
Validated: 524289
EndChar

StartChar: X
Encoding: 88 88 227
Width: 634
GlyphClass: 2
Flags: W
AnchorPoint: "Anchor-8" 0 0 basechar 0
AnchorPoint: "Anchor-7" 0 0 basechar 0
AnchorPoint: "Anchor-6" 318 700 basechar 0
AnchorPoint: "Anchor-5" 0 0 basechar 0
AnchorPoint: "Anchor-4" 318 0 basechar 0
LayerCount: 2
Fore
SplineSet
350.779961069 354.21875 m 1,0,-1
 553.592773438 75.208984375 l 2,1,2
 561 65.3330078125 561 65.3330078125 561 51 c 0,3,4
 561 33.572265625 561 33.572265625 549.159179688 22.95703125 c 0,5,6
 536.938476562 12 536.938476562 12 522 12 c 0,7,8
 501.165039062 12 501.165039062 12 489.484375 28.6875 c 2,9,-1
 303.309100116 288.784179688 l 1,10,-1
 297.19068287 297.450195312 l 1,11,-1
 291.139714199 288.732421875 l 1,12,-1
 108.51953125 29.69140625 l 2,13,14
 101.969726562 20.5205078125 101.969726562 20.5205078125 94.0595703125 16.2607421875 c 128,-1,15
 86.150390625 12 86.150390625 12 76 12 c 0,16,17
 61.3134765625 12 61.3134765625 12 51.1572265625 22.1572265625 c 128,-1,18
 41 32.3134765625 41 32.3134765625 41 45 c 0,19,20
 41 59.333984375 41 59.333984375 51.447265625 73.2626953125 c 2,21,-1
 251.305325389 352.262695312 l 1,22,-1
 254.617697154 357.028320312 l 1,23,-1
 251.27853075 361.774414062 l 1,24,-1
 50.380859375 638.826171875 l 2,25,26
 42 649.720703125 42 649.720703125 42 663 c 0,27,28
 42 679.603515625 42 679.603515625 54.056640625 691.245117188 c 128,-1,29
 66.2314453125 703 66.2314453125 703 82 703 c 0,30,31
 91.1923828125 703 91.1923828125 703 100.060546875 698.77734375 c 0,32,33
 108.65625 694.684570312 108.65625 694.684570312 114.512695312 686.317382812 c 2,34,-1
 298.73922822 428.223632812 l 1,35,-1
 304.807751999 419.60546875 l 1,36,-1
 310.880895544 428.219726562 l 1,37,-1
 493.373046875 683.1640625 l 2,38,39
 507.928710938 702 507.928710938 702 525 702 c 0,40,41
 539.686523438 702 539.686523438 702 550.842773438 690.842773438 c 128,-1,42
 562 679.686523438 562 679.686523438 562 666 c 0,43,44
 562 653.563476562 562 653.563476562 553.541992188 641.721679688 c 2,45,-1
 350.788276647 363.79296875 l 1,46,-1
 347.401064683 359.008789062 l 1,47,-1
 350.779961069 354.21875 l 1,0,-1
EndSplineSet
Validated: 524289
EndChar

StartChar: Y
Encoding: 89 89 228
Width: 581
GlyphClass: 2
Flags: W
AnchorPoint: "Anchor-8" 0 0 basechar 0
AnchorPoint: "Anchor-7" 0 0 basechar 0
AnchorPoint: "Anchor-6" 291 700 basechar 0
AnchorPoint: "Anchor-5" 0 0 basechar 0
AnchorPoint: "Anchor-4" 294 -1 basechar 0
LayerCount: 2
Fore
SplineSet
532 663 m 0,0,1
 532 650.625 532 650.625 524.314453125 637.40234375 c 1,2,-1
 315.132105334 334.629882812 l 1,3,-1
 313.737931034 332.549804688 l 1,4,-1
 313.737931034 330 l 1,5,-1
 313.737931034 56 l 2,6,7
 313.737931034 39.228515625 313.737931034 39.228515625 303.100316541 27.552734375 c 128,-1,8
 292.574346713 16 292.574346713 16 277.834482759 16 c 0,9,10
 262.068595097 16 262.068595097 16 251.055448545 27.6572265625 c 128,-1,11
 240.04137931 39.3134765625 240.04137931 39.3134765625 240.04137931 56 c 2,12,-1
 240.04137931 338 l 1,13,-1
 240.04137931 340.639648438 l 1,14,-1
 238.557704741 342.760742188 l 1,15,-1
 30.373046875 631.836914062 l 2,16,17
 18 647.745117188 18 647.745117188 18 663 c 0,18,19
 18 679.370117188 18 679.370117188 31.267578125 690.979492188 c 0,20,21
 45.005859375 703 45.005859375 703 61 703 c 0,22,23
 79.92578125 703 79.92578125 703 93.517578125 684.3125 c 2,24,-1
 273.599366918 424.3125 l 1,25,-1
 279.829323815 415.193359375 l 1,26,-1
 285.91995555 424.416992188 l 1,27,-1
 459.567382812 683.431640625 l 2,28,29
 473.1796875 703 473.1796875 703 493 703 c 0,30,31
 508.686523438 703 508.686523438 703 520.342773438 691.342773438 c 128,-1,32
 532 679.686523438 532 679.686523438 532 663 c 0,0,1
EndSplineSet
Validated: 524289
EndChar

StartChar: Z
Encoding: 90 90 238
Width: 646
GlyphClass: 2
Flags: W
AnchorPoint: "Anchor-8" 0 0 basechar 0
AnchorPoint: "Anchor-7" 0 0 basechar 0
AnchorPoint: "Anchor-6" 323 700 basechar 0
AnchorPoint: "Anchor-5" 0 0 basechar 0
AnchorPoint: "Anchor-4" 323 0 basechar 0
LayerCount: 2
Fore
SplineSet
525 91 m 2,0,1
 542.865234375 91 542.865234375 91 554.064453125 80.6298828125 c 0,2,3
 565 70.5048828125 565 70.5048828125 565 54 c 128,-1,4
 565 37.48828125 565 37.48828125 553.556640625 26.8623046875 c 0,5,6
 541.858398438 16 541.858398438 16 525 16 c 2,7,-1
 85 16 l 2,8,9
 67.3134765625 16 67.3134765625 16 55.1572265625 28.1572265625 c 128,-1,10
 43 40.3134765625 43 40.3134765625 43 55 c 0,11,12
 43 68.2333984375 43 68.2333984375 52.3193359375 80.0947265625 c 2,13,-1
 444.901024756 612.131835938 l 1,14,-1
 454.257482752 625 l 1,15,-1
 438.883116883 625 l 1,16,-1
 119 625 l 2,17,18
 101.225585938 625 101.225585938 625 90.048828125 635.762695312 c 128,-1,19
 79 646.40234375 79 646.40234375 79 663 c 128,-1,20
 79 679.504882812 79 679.504882812 89.935546875 689.629882812 c 0,21,22
 101.134765625 700 101.134765625 700 119 700 c 2,23,-1
 531 700 l 2,24,25
 548.076171875 700 548.076171875 700 561.840820312 688.385742188 c 0,26,27
 575 677.283203125 575 677.283203125 575 661 c 0,28,29
 575 649.5546875 575 649.5546875 565.522460938 635.700195312 c 2,30,-1
 173.098975244 103.868164062 l 1,31,-1
 163.742517248 91 l 1,32,-1
 179.116883117 91 l 1,33,-1
 525 91 l 2,0,1
565.407226562 627.532226562 m 2,34,-1
 565.522460938 627.700195312 l 0,35,36
 565.465820312 627.616210938 565.465820312 627.616210938 565.407226562 627.532226562 c 2,34,-1
EndSplineSet
Validated: 524289
EndChar

StartChar: a
Encoding: 97 97 243
Width: 614
GlyphClass: 2
Flags: W
AnchorPoint: "Anchor-8" 0 0 basechar 0
AnchorPoint: "Anchor-7" 0 0 basechar 0
AnchorPoint: "Anchor-6" 298 510 basechar 0
AnchorPoint: "Anchor-5" 550 3 basechar 0
AnchorPoint: "Anchor-4" 301 0 basechar 0
LayerCount: 2
Fore
SplineSet
472 531 m 128,-1,1
 489.686523438 531 489.686523438 531 500.842773438 519.502929688 c 128,-1,2
 512 508.005859375 512 508.005859375 512 488.75 c 2,3,-1
 512 41.5234375 l 2,4,5
 512 24.2412109375 512 24.2412109375 500.741210938 12.2099609375 c 128,-1,6
 489.600585938 0.3046875 489.600585938 0.3046875 472 0.3046875 c 128,-1,7
 454.40234375 0.3046875 454.40234375 0.3046875 443.762695312 11.6904296875 c 128,-1,8
 433 23.2080078125 433 23.2080078125 433 41.5234375 c 2,9,-1
 433 68.31640625 l 1,10,-1
 433 93.23828125 l 1,11,-1
 418.578125 73.232421875 l 2,12,13
 393.627929688 38.6220703125 393.627929688 38.6220703125 352.862367439 14.2431640625 c 0,14,15
 339.358974962 6.146484375 339.358974962 6.146484375 325.201293455 0.7626953125 c 128,-1,16
 311.044525759 -4.62109375 311.044525759 -4.62109375 296.172243662 -7.310546875 c 128,-1,17
 281.300875377 -10 281.300875377 -10 265.674698795 -10 c 0,18,19
 204.207168518 -10 204.207168518 -10 153.767578125 24.7861328125 c 0,20,21
 100.14453125 59.623046875 100.14453125 59.623046875 69.6435546875 121.967773438 c 0,22,23
 39 184.604492188 39 184.604492188 39 263 c 128,-1,24
 39 341.395507812 39 341.395507812 69.6435546875 404.032226562 c 0,25,26
 100.153320312 466.393554688 100.153320312 466.393554688 153.294921875 501.231445312 c 0,27,28
 203.288787964 536 203.288787964 536 262.86746988 536 c 0,29,30
 310.746623212 536 310.746623212 536 351.779500816 514.797851562 c 128,-1,31
 392.872070312 493.59375 392.872070312 493.59375 418.735351562 461.025390625 c 2,32,-1
 433 443.061523438 l 1,33,-1
 433 466 l 1,34,-1
 433 490 l 2,35,36
 433 507.858398438 433 507.858398438 443.862304688 519.556640625 c 0,37,0
 454.48828125 531 454.48828125 531 472 531 c 128,-1,1
275.967871486 62 m 128,-1,39
 322.188456953 62 322.188456953 62 358.215475182 88.365234375 c 128,-1,40
 394.227539062 114.614257812 394.227539062 114.614257812 415.689453125 160.407226562 c 0,41,42
 437 205.877929688 437 205.877929688 437 263 c 0,43,44
 437 319.080078125 437 319.080078125 415.689453125 364.55078125 c 0,45,46
 394.245117188 410.305664062 394.245117188 410.305664062 358.274872929 437.0703125 c 128,-1,47
 322.226837036 464 322.226837036 464 275.967871486 464 c 128,-1,48
 229.747286019 464 229.747286019 464 193.72026779 437.634765625 c 128,-1,49
 157.772460938 411.385742188 157.772460938 411.385742188 136.310546875 365.592773438 c 0,50,51
 115 320.122070312 115 320.122070312 115 263 c 128,-1,52
 115 205.877929688 115 205.877929688 136.310546875 160.407226562 c 0,53,54
 157.772460938 114.614257812 157.772460938 114.614257812 193.72026779 88.365234375 c 128,-1,38
 229.747286019 62 229.747286019 62 275.967871486 62 c 128,-1,39
EndSplineSet
Validated: 524289
Substitution2: "Single Substitution lookup 20 subtable" ordfeminine
Substitution2: "'ss01' Style Set 1 lookup 17 subtable" a.ss01
Substitution2: "'salt' Stylistic Alternatives lookup 16 subtable" a.ss01
EndChar

StartChar: aogonek
Encoding: 261 261 265
Width: 614
GlyphClass: 2
Flags: W
AnchorPoint: "Anchor-8" 0 0 basechar 0
AnchorPoint: "Anchor-7" 0 0 basechar 0
AnchorPoint: "Anchor-6" 308 510 basechar 0
AnchorPoint: "Anchor-5" 550 3 basechar 0
AnchorPoint: "Anchor-4" 308 0 basechar 0
LayerCount: 2
Fore
SplineSet
499 -119 m 0,0,1
 510.686523438 -119 510.686523438 -119 518.342773438 -126.657226562 c 128,-1,2
 526 -134.313476562 526 -134.313476562 526 -148 c 0,3,4
 526 -159.9140625 526 -159.9140625 513.572265625 -173.627929688 c 0,5,6
 500.272460938 -188.302734375 500.272460938 -188.302734375 477.922851562 -197.615234375 c 128,-1,7
 455.400390625 -207 455.400390625 -207 431 -207 c 0,8,9
 388.07885278 -207 388.07885278 -207 360.591811728 -182.377929688 c 0,10,11
 333.684410646 -158.275390625 333.684410646 -158.275390625 333.684410646 -113 c 0,12,13
 333.684410646 -29.396484375 333.684410646 -29.396484375 427.99609375 10.58203125 c 2,14,-1
 433 12.603515625 l 1,15,-1
 433 18 l 1,16,-1
 433 66 l 1,17,-1
 433 90.1845703125 l 1,18,-1
 418.578125 70.7705078125 l 2,19,20
 394.380603167 37.1845703125 394.380603167 37.1845703125 353.571014288 13.5263671875 c 0,21,22
 340.018261347 5.6689453125 340.018261347 5.6689453125 325.808827679 0.4443359375 c 128,-1,23
 311.600311163 -4.779296875 311.600311163 -4.779296875 296.673664746 -7.3896484375 c 128,-1,24
 281.74793548 -10 281.74793548 -10 266.064638783 -10 c 0,25,26
 204.37241935 -10 204.37241935 -10 153.767578125 24.7861328125 c 0,27,28
 100.14453125 59.623046875 100.14453125 59.623046875 69.6435546875 121.967773438 c 0,29,30
 39 184.604492188 39 184.604492188 39 263 c 128,-1,31
 39 341.395507812 39 341.395507812 69.6435546875 404.032226562 c 0,32,33
 100.153320312 466.393554688 100.153320312 466.393554688 153.294921875 501.231445312 c 0,34,35
 203.450681737 536 203.450681737 536 263.247148289 536 c 0,36,37
 311.301319659 536 311.301319659 536 352.484189342 514.797851562 c 128,-1,38
 393.670727632 493.59375 393.670727632 493.59375 418.735351562 461.025390625 c 2,39,-1
 433 443.061523438 l 1,40,-1
 433 466 l 1,41,-1
 433 490 l 2,42,43
 433 507.858398438 433 507.858398438 443.862304688 519.556640625 c 0,44,45
 454.48828125 531 454.48828125 531 472 531 c 128,-1,46
 489.686523438 531 489.686523438 531 500.842773438 519.50390625 c 128,-1,47
 512 508.0078125 512 508.0078125 512 488.75390625 c 2,48,-1
 512 15.8017578125 l 2,49,50
 512 -3.9501953125 512 -3.9501953125 489.625976562 -11.359375 c 0,51,52
 448.252929688 -23.771484375 448.252929688 -23.771484375 421.5625 -44.705078125 c 0,53,54
 393.790874525 -67.107421875 393.790874525 -67.107421875 393.790874525 -95 c 0,55,56
 393.790874525 -119.21484375 393.790874525 -119.21484375 406.723632812 -133.53515625 c 0,57,58
 420.5859375 -148 420.5859375 -148 440 -148 c 0,59,60
 459 -148 459 -148 470.46875 -132.708007812 c 0,61,62
 480.145507812 -119 480.145507812 -119 499 -119 c 0,0,1
276.395437262 62 m 128,-1,64
 322.784978018 62 322.784978018 62 358.943689847 88.365234375 c 128,-1,65
 394.943734405 114.614257812 394.943734405 114.614257812 415.689453125 160.407226562 c 0,66,67
 437 205.877929688 437 205.877929688 437 263 c 0,68,69
 437 319.080078125 437 319.080078125 415.689453125 364.55078125 c 0,70,71
 394.960243138 410.305664062 394.960243138 410.305664062 359.003304717 437.0703125 c 0,72,73
 322.823498396 464 322.823498396 464 276.395437262 464 c 128,-1,74
 230.005896507 464 230.005896507 464 193.847184678 437.634765625 c 128,-1,75
 157.772460938 411.385742188 157.772460938 411.385742188 136.310546875 365.592773438 c 0,76,77
 115 320.122070312 115 320.122070312 115 263 c 128,-1,78
 115 205.877929688 115 205.877929688 136.310546875 160.407226562 c 0,79,80
 157.772460938 114.614257812 157.772460938 114.614257812 193.847184678 88.365234375 c 128,-1,63
 230.005896507 62 230.005896507 62 276.395437262 62 c 128,-1,64
EndSplineSet
Validated: 524289
Substitution2: "'ss01' Style Set 1 lookup 17 subtable" aogonek.ss01
Substitution2: "'salt' Stylistic Alternatives lookup 16 subtable" aogonek.ss01
EndChar

StartChar: ae
Encoding: 230 230 269
Width: 907
GlyphClass: 2
Flags: W
AnchorPoint: "Anchor-8" 0 0 basechar 0
AnchorPoint: "Anchor-7" 0 0 basechar 0
AnchorPoint: "Anchor-6" 429 515 basechar 0
AnchorPoint: "Anchor-5" 852 10 basechar 0
AnchorPoint: "Anchor-4" 413 0 basechar 0
LayerCount: 2
Fore
SplineSet
835.998046875 283.14453125 m 0,0,1
 834.87890625 268.056640625 834.87890625 268.056640625 823.671875 257.765625 c 0,2,3
 811.948242188 247 811.948242188 247 796 247 c 2,4,-1
 451.621687629 247 l 1,5,-1
 443.064666458 247 l 1,6,-1
 443.880976853 237.83984375 l 2,7,8
 450.972436106 158.3203125 450.972436106 158.3203125 500.34212941 110.157226562 c 128,-1,9
 549.706127524 62 549.706127524 62 620.746014209 62 c 0,10,11
 669.12569386 62 669.12569386 62 699.848389837 76.7509765625 c 0,12,13
 730.088867188 91.080078125 730.088867188 91.080078125 753.859375 113.581054688 c 0,14,15
 766.609375 121 766.609375 121 778 121 c 0,16,17
 791.5859375 121 791.5859375 121 800.723632812 111.46484375 c 128,-1,18
 810 101.78515625 810 101.78515625 810 89 c 0,19,20
 810 71.69921875 810 71.69921875 792.818359375 57.095703125 c 0,21,-1
 792.342773438 56.6572265625 l 2,22,23
 764.461914062 28.7763671875 764.461914062 28.7763671875 717.922851562 9.384765625 c 0,24,25
 672.650066528 -10 672.650066528 -10 624.633929763 -10 c 0,26,27
 556.444485072 -10 556.444485072 -10 502.16743742 17.1923828125 c 128,-1,28
 448.088772177 44.28515625 448.088772177 44.28515625 415.224685212 92.587890625 c 2,29,-1
 409.234295793 101.392578125 l 1,30,-1
 402.755069336 92.9619140625 l 2,31,32
 370.578201819 51.0947265625 370.578201819 51.0947265625 321.236035261 20.3427734375 c 0,33,34
 272.549764613 -10 272.549764613 -10 209.59894442 -10 c 0,35,36
 168.421780203 -10 168.421780203 -10 129.140625 7.2890625 c 0,37,38
 90.158203125 24.3525390625 90.158203125 24.3525390625 65.4541015625 58.9453125 c 0,39,40
 41 93.1875 41 93.1875 41 143.833984375 c 0,41,42
 41 222.90625 41 222.90625 95.4306640625 266.592773438 c 0,43,44
 150.7578125 311 150.7578125 311 263.057783281 311 c 2,45,-1
 363.171608785 311 l 1,46,-1
 370.947439892 311 l 1,47,-1
 370.947439892 319.44140625 l 1,48,-1
 370.947439892 359.538085938 l 2,49,50
 370.947439892 420.342773438 370.947439892 420.342773438 334.976627437 442.826171875 c 0,51,52
 301.099746063 464 301.099746063 464 254.309973286 464 c 0,53,54
 166.423718133 464 166.423718133 464 105.817382812 386.083984375 c 0,55,56
 93.3896484375 372 93.3896484375 372 76 372 c 0,57,58
 63.0185546875 372 63.0185546875 372 52.78515625 381.005859375 c 0,59,60
 43 389.616210938 43 389.616210938 43 402 c 0,61,62
 43 416.380859375 43 416.380859375 52.345703125 429.125 c 0,63,64
 88.3359375 473.870117188 88.3359375 473.870117188 140.606445312 505.134765625 c 0,65,66
 191.335423139 536 191.335423139 536 256.253931062 536 c 0,67,68
 313.153613157 536 313.153613157 536 359.452650499 518.015625 c 0,69,70
 404.550003006 500.498046875 404.550003006 500.498046875 426.485971864 462.883789062 c 2,71,-1
 431.839449335 453.705078125 l 1,72,-1
 438.879651889 461.586914062 l 2,73,74
 470.823016665 497.3515625 470.823016665 497.3515625 513.554967424 516.676757812 c 128,-1,75
 556.285019786 536 556.285019786 536 602.27841533 536 c 0,76,77
 662.364555557 536 662.364555557 536 714.9681669 503.200195312 c 0,78,79
 769.1484375 470.344726562 769.1484375 470.344726562 802.098632812 412.536132812 c 0,80,81
 834.791015625 355.178710938 834.791015625 355.178710938 835.998046875 283.14453125 c 0,0,1
602.27841533 464 m 0,82,83
 545.205029977 464 545.205029977 464 503.259015273 429.014648438 c 0,84,85
 461.082345422 393.836914062 461.082345422 393.836914062 447.879948588 321.072265625 c 2,86,-1
 446.052742181 311 l 1,87,-1
 455.509603182 311 l 1,88,-1
 743 311 l 1,89,-1
 751 311 l 1,90,-1
 751 319.44140625 l 1,91,-1
 751 327.8828125 l 1,92,-1
 750.96484375 328.67578125 l 2,93,94
 745.646484375 388.163085938 745.646484375 388.163085938 700.932374105 426.274414062 c 0,95,96
 657.493270737 464 657.493270737 464 602.27841533 464 c 0,82,83
369.370821793 247 m 1,97,-1
 362.199629897 247 l 1,98,-1
 255.281952174 247 l 2,99,100
 187.448456783 247 187.448456783 247 154.526367188 219.071289062 c 0,101,102
 120 190.444335938 120 190.444335938 120 146.709960938 c 0,103,104
 120 104.921875 120 104.921875 149.200195312 82.04296875 c 0,105,106
 176.875338778 60 176.875338778 60 213.486859973 60 c 0,107,108
 272.249818003 60 272.249818003 60 316.507130161 92.2587890625 c 0,109,110
 360.321166791 124.1953125 360.321166791 124.1953125 380.660584389 163.544921875 c 2,111,-1
 382.234354894 166.588867188 l 1,112,-1
 381.330718271 169.93359375 l 2,113,114
 372.802173045 201.506835938 372.802173045 201.506835938 369.949832654 239.318359375 c 2,115,-1
 369.370821793 247 l 1,97,-1
EndSplineSet
Validated: 524289
EndChar

StartChar: b
Encoding: 98 98 271
Width: 614
GlyphClass: 2
Flags: W
AnchorPoint: "Anchor-8" 0 0 basechar 0
AnchorPoint: "Anchor-7" 0 0 basechar 0
AnchorPoint: "Anchor-6" 308 510 basechar 0
AnchorPoint: "Anchor-5" 0 0 basechar 0
AnchorPoint: "Anchor-4" 308 0 basechar 0
LayerCount: 2
Fore
SplineSet
317.290322581 536 m 0,0,1
 378.723475302 536 378.723475302 536 428.705078125 501.231445312 c 0,2,3
 481.859375 466.385742188 481.859375 466.385742188 512.368164062 404.5234375 c 0,4,5
 543 342.411132812 543 342.411132812 543 264.030273438 c 128,-1,6
 543 185.62109375 543 185.62109375 512.344726562 122.458984375 c 0,7,8
 481.8359375 59.599609375 481.8359375 59.599609375 428.705078125 24.7685546875 c 0,9,10
 403.47999622 7.3486328125 403.47999622 7.3486328125 376.248645413 -1.326171875 c 128,-1,11
 349.017294607 -10 349.017294607 -10 319.161290323 -10 c 0,12,13
 272.317666331 -10 272.317666331 -10 231.825100806 12.6337890625 c 0,14,15
 191.112367692 35.390625 191.112367692 35.390625 164.17578125 68.86328125 c 2,16,-1
 150 86.47265625 l 1,17,-1
 150 63.66015625 l 1,18,-1
 150 33.9912109375 l 2,19,20
 150 16.833984375 150 16.833984375 138.741210938 4.888671875 c 128,-1,21
 127.600585938 -6.9306640625 127.600585938 -6.9306640625 110 -6.9306640625 c 0,22,23
 93.3134765625 -6.9306640625 93.3134765625 -6.9306640625 82.1572265625 4.4833984375 c 128,-1,24
 71 15.8974609375 71 15.8974609375 71 33.9912109375 c 2,25,-1
 71 700 l 2,26,27
 71 717.774414062 71 717.774414062 81.7626953125 728.951171875 c 128,-1,28
 92.40234375 740 92.40234375 740 110 740 c 128,-1,29
 127.600585938 740 127.600585938 740 138.741210938 728.447265625 c 128,-1,30
 150 716.771484375 150 716.771484375 150 700 c 2,31,-1
 150 456 l 1,32,-1
 150 429.578125 l 1,33,-1
 164.65625 451.5625 l 2,34,35
 187.59765625 485.974609375 187.59765625 485.974609375 229.295457409 511.03515625 c 0,36,37
 270.613879788 536 270.613879788 536 317.290322581 536 c 0,0,1
307 62 m 0,38,39
 352.285093246 62 352.285093246 62 388.77718624 88.900390625 c 128,-1,40
 425.25 115.680664062 425.25 115.680664062 446.705078125 162.004882812 c 0,41,42
 468 207.981445312 468 207.981445312 468 264.041015625 c 128,-1,43
 468 320.122070312 468 320.122070312 446.689453125 365.592773438 c 0,44,45
 425.215820312 411.411132812 425.215820312 411.411132812 388.71780494 437.663085938 c 128,-1,46
 352.24672379 464 352.24672379 464 307 464 c 0,47,48
 260.817792339 464 260.817792339 464 224.34671119 437.663085938 c 128,-1,49
 187.801757812 411.421875 187.801757812 411.421875 166.327148438 366.1484375 c 0,50,51
 145 321.18359375 145 321.18359375 145 264.041015625 c 128,-1,52
 145 206.919921875 145 206.919921875 166.310546875 161.44921875 c 0,53,54
 187.766601562 115.668945312 187.766601562 115.668945312 224.287329889 88.900390625 c 128,-1,55
 260.779422883 62 260.779422883 62 307 62 c 0,38,39
EndSplineSet
Validated: 524289
EndChar

StartChar: c
Encoding: 99 99 272
Width: 514
GlyphClass: 2
Flags: W
AnchorPoint: "Anchor-8" 0 0 basechar 0
AnchorPoint: "Anchor-7" 0 0 basechar 0
AnchorPoint: "Anchor-6" 298 510 basechar 0
AnchorPoint: "Anchor-5" 0 0 basechar 0
AnchorPoint: "Anchor-4" 258 0 basechar 0
LayerCount: 2
Fore
SplineSet
280 536 m 0,0,1
 352.192382812 536 352.192382812 536 403.060546875 511.77734375 c 0,2,3
 451 488.94921875 451 488.94921875 451 455 c 0,4,5
 451 440.846679688 451 440.846679688 441.797851562 429.553710938 c 0,6,7
 433.19921875 419 433.19921875 419 420 419 c 0,8,9
 409 419 409 419 403.264648438 422.05859375 c 0,10,11
 396.4765625 425.6796875 396.4765625 425.6796875 384.12109375 434.184570312 c 0,12,13
 377.3671875 440.706054688 377.3671875 440.706054688 364.192382812 448.813476562 c 0,14,-1
 363.578125 449.155273438 l 2,15,16
 350.555664062 455.666992188 350.555664062 455.666992188 328.061442057 459.87109375 c 0,17,18
 307.244873047 464 307.244873047 464 290.083333333 464 c 0,19,20
 240.385498047 464 240.385498047 464 201.976806641 437.817382812 c 128,-1,21
 163.526936849 411.607421875 163.526936849 411.607421875 140.895507812 365.247070312 c 0,22,23
 118 319.18359375 118 319.18359375 118 263 c 0,24,25
 118 205.794921875 118 205.794921875 140.37890625 160.265625 c 0,26,27
 162.574462891 114.448242188 162.574462891 114.448242188 200.073649089 88.23046875 c 128,-1,28
 237.590738932 62 237.590738932 62 285.5 62 c 0,29,30
 334.897949219 62 334.897949219 62 368.578125 78.8447265625 c 0,31,-1
 368.96875 79.0537109375 l 2,32,33
 376.401367188 83.30078125 376.401367188 83.30078125 388.900390625 92.6748046875 c 0,34,35
 398.418945312 100.290039062 398.418945312 100.290039062 405.264648438 103.94140625 c 0,36,37
 411 107 411 107 420 107 c 0,38,39
 436.489257812 107 436.489257812 107 445.612304688 97.083984375 c 0,40,41
 455 86.8798828125 455 86.8798828125 455 70 c 128,-1,42
 455 52.92578125 455 52.92578125 431.60546875 34.828125 c 0,43,44
 406.302734375 15.25390625 406.302734375 15.25390625 363.256835938 2.6787109375 c 0,45,46
 321.117513021 -10 321.117513021 -10 275.416666667 -10 c 0,47,48
 207.816080729 -10 207.816080729 -10 156.176757812 25.359375 c 0,49,50
 100.119140625 60.7060546875 100.119140625 60.7060546875 69.6435546875 122.998046875 c 0,51,52
 39 185.634765625 39 185.634765625 39 263 c 128,-1,53
 39 340.282226562 39 340.282226562 71.07421875 402.86328125 c 0,54,55
 103.034179688 465.219726562 103.034179688 465.219726562 160.030354818 500.608398438 c 0,56,57
 212.369873047 536 212.369873047 536 280 536 c 0,0,1
EndSplineSet
Validated: 524289
EndChar

StartChar: ccedilla
Encoding: 231 231 275
Width: 514
GlyphClass: 2
Flags: W
AnchorPoint: "Anchor-8" 0 0 basechar 0
AnchorPoint: "Anchor-7" 0 0 basechar 0
AnchorPoint: "Anchor-6" 0 0 basechar 0
AnchorPoint: "Anchor-5" 0 0 basechar 0
AnchorPoint: "Anchor-4" 258 -148 basechar 0
LayerCount: 2
Fore
SplineSet
455 70 m 0,0,1
 455 54.6533203125 455 54.6533203125 435.260742188 37.5458984375 c 0,2,3
 413.961914062 19.0869140625 413.961914062 19.0869140625 376.469726562 6.58984375 c 0,4,5
 338.44921875 -6.083984375 338.44921875 -6.083984375 296.939534505 -9.0166015625 c 2,6,-1
 292.332926432 -9.3447265625 l 1,7,-1
 290.612386068 -14.017578125 l 1,8,-1
 249.324788411 -126.119140625 l 2,9,10
 241.895670573 -148 241.895670573 -148 225 -148 c 0,11,12
 211.418294271 -148 211.418294271 -148 195.266520182 -137.609375 c 0,13,14
 181 -128.430664062 181 -128.430664062 181 -116 c 0,15,16
 181 -105.092773438 181 -105.092773438 188.259928385 -96.3818359375 c 0,17,-1
 188.662760417 -95.853515625 l 1,18,-1
 241.829427083 -19.853515625 l 1,19,-1
 249.303304036 -9.1708984375 l 1,20,-1
 237.132405599 -7.033203125 l 2,21,22
 180.347412109 2.9384765625 180.347412109 2.9384765625 135.924804688 40.2548828125 c 0,23,24
 89.4775390625 77.638671875 89.4775390625 77.638671875 64.2890625 135.028320312 c 0,25,26
 39 192.647460938 39 192.647460938 39 262.987304688 c 0,27,28
 39 340.2734375 39 340.2734375 71.07421875 402.857421875 c 0,29,30
 103.034179688 465.216796875 103.034179688 465.216796875 160.030354818 500.606445312 c 0,31,32
 212.369873047 536 212.369873047 536 280 536 c 0,33,34
 352.192382812 536 352.192382812 536 403.060546875 511.77734375 c 0,35,36
 451 488.94921875 451 488.94921875 451 455 c 0,37,38
 451 440.846679688 451 440.846679688 441.797851562 429.553710938 c 0,39,40
 433.19921875 419 433.19921875 419 420 419 c 0,41,42
 409 419 409 419 403.264648438 422.05859375 c 0,43,44
 396.4765625 425.6796875 396.4765625 425.6796875 384.12109375 434.184570312 c 0,45,46
 377.3671875 440.706054688 377.3671875 440.706054688 364.192382812 448.813476562 c 0,47,-1
 363.578125 449.155273438 l 2,48,49
 350.555664062 455.666992188 350.555664062 455.666992188 328.061442057 459.87109375 c 0,50,51
 307.244873047 464 307.244873047 464 290.083333333 464 c 0,52,53
 240.385498047 464 240.385498047 464 201.976806641 437.817382812 c 128,-1,54
 163.526936849 411.607421875 163.526936849 411.607421875 140.895507812 365.247070312 c 0,55,56
 118 319.18359375 118 319.18359375 118 263 c 0,57,58
 118 205.794921875 118 205.794921875 140.37890625 160.265625 c 0,59,60
 162.574462891 114.448242188 162.574462891 114.448242188 200.073649089 88.23046875 c 128,-1,61
 237.590738932 62 237.590738932 62 285.5 62 c 0,62,63
 334.897949219 62 334.897949219 62 368.578125 78.8447265625 c 0,64,-1
 368.96875 79.0537109375 l 2,65,66
 376.401367188 83.30078125 376.401367188 83.30078125 388.900390625 92.6748046875 c 0,67,68
 398.418945312 100.290039062 398.418945312 100.290039062 405.264648438 103.94140625 c 0,69,70
 411 107 411 107 420 107 c 0,71,72
 436.489257812 107 436.489257812 107 445.612304688 97.083984375 c 0,73,74
 455 86.8798828125 455 86.8798828125 455 70 c 0,0,1
EndSplineSet
Validated: 524289
EndChar

StartChar: uni1E09
Encoding: 7689 7689 276
Width: 514
GlyphClass: 2
Flags: W
AnchorPoint: "Anchor-8" 0 0 basechar 0
AnchorPoint: "Anchor-7" 0 0 basechar 0
AnchorPoint: "Anchor-6" 0 0 basechar 0
AnchorPoint: "Anchor-5" 0 0 basechar 0
AnchorPoint: "Anchor-4" 258 -148 basechar 0
LayerCount: 2
Fore
SplineSet
277.25 578 m 0,0,1
 271.516357422 578 271.516357422 578 265.251871745 583.314453125 c 0,2,3
 260.137695312 587.654296875 260.137695312 587.654296875 260.724934896 595.3359375 c 2,4,-1
 260.75 595.666992188 l 2,5,6
 260.75 601.578125 260.75 601.578125 265.018229167 608.5625 c 0,7,-1
 265.233072917 608.934570312 l 1,8,-1
 319.268066406 708.846679688 l 2,9,10
 335.43359375 737 335.43359375 737 357 737 c 0,11,12
 375.686523438 737 375.686523438 737 384.842773438 727.842773438 c 0,13,14
 393.721679688 718.96484375 393.721679688 718.96484375 394.000976562 703.4296875 c 0,15,16
 392.005859375 687.012695312 392.005859375 687.012695312 380.037109375 673.333984375 c 2,17,-1
 307.698730469 591.53125 l 2,18,19
 295.295979818 578 295.295979818 578 277.25 578 c 0,0,1
455 70 m 0,20,21
 455 54.6533203125 455 54.6533203125 435.260742188 37.5458984375 c 0,22,23
 413.961914062 19.0869140625 413.961914062 19.0869140625 376.469726562 6.58984375 c 0,24,25
 338.44921875 -6.083984375 338.44921875 -6.083984375 296.939534505 -9.0166015625 c 2,26,-1
 292.332926432 -9.3447265625 l 1,27,-1
 290.612386068 -14.017578125 l 1,28,-1
 249.324788411 -126.119140625 l 2,29,30
 241.895670573 -148 241.895670573 -148 225 -148 c 0,31,32
 211.418294271 -148 211.418294271 -148 195.266520182 -137.609375 c 0,33,34
 181 -128.430664062 181 -128.430664062 181 -116 c 0,35,36
 181 -105.092773438 181 -105.092773438 188.259928385 -96.3818359375 c 0,37,-1
 188.662760417 -95.853515625 l 1,38,-1
 241.829427083 -19.853515625 l 1,39,-1
 249.303304036 -9.1708984375 l 1,40,-1
 237.132405599 -7.033203125 l 2,41,42
 180.347412109 2.9384765625 180.347412109 2.9384765625 135.924804688 40.2548828125 c 0,43,44
 89.4775390625 77.638671875 89.4775390625 77.638671875 64.2890625 135.028320312 c 0,45,46
 39 192.647460938 39 192.647460938 39 262.987304688 c 0,47,48
 39 340.2734375 39 340.2734375 71.07421875 402.857421875 c 0,49,50
 103.034179688 465.216796875 103.034179688 465.216796875 160.030354818 500.606445312 c 0,51,52
 212.369873047 536 212.369873047 536 280 536 c 0,53,54
 352.192382812 536 352.192382812 536 403.060546875 511.77734375 c 0,55,56
 451 488.94921875 451 488.94921875 451 455 c 0,57,58
 451 440.846679688 451 440.846679688 441.797851562 429.553710938 c 0,59,60
 433.19921875 419 433.19921875 419 420 419 c 0,61,62
 409 419 409 419 403.264648438 422.05859375 c 0,63,64
 396.4765625 425.6796875 396.4765625 425.6796875 384.12109375 434.184570312 c 0,65,66
 377.3671875 440.706054688 377.3671875 440.706054688 364.192382812 448.813476562 c 0,67,-1
 363.578125 449.155273438 l 2,68,69
 350.555664062 455.666992188 350.555664062 455.666992188 328.061442057 459.87109375 c 0,70,71
 307.244873047 464 307.244873047 464 290.083333333 464 c 0,72,73
 240.385498047 464 240.385498047 464 201.976806641 437.817382812 c 128,-1,74
 163.526936849 411.607421875 163.526936849 411.607421875 140.895507812 365.247070312 c 0,75,76
 118 319.18359375 118 319.18359375 118 263 c 0,77,78
 118 205.794921875 118 205.794921875 140.37890625 160.265625 c 0,79,80
 162.574462891 114.448242188 162.574462891 114.448242188 200.073649089 88.23046875 c 128,-1,81
 237.590738932 62 237.590738932 62 285.5 62 c 0,82,83
 334.897949219 62 334.897949219 62 368.578125 78.8447265625 c 0,84,-1
 368.96875 79.0537109375 l 2,85,86
 376.401367188 83.30078125 376.401367188 83.30078125 388.900390625 92.6748046875 c 0,87,88
 398.418945312 100.290039062 398.418945312 100.290039062 405.264648438 103.94140625 c 0,89,90
 411 107 411 107 420 107 c 0,91,92
 436.489257812 107 436.489257812 107 445.612304688 97.083984375 c 0,93,94
 455 86.8798828125 455 86.8798828125 455 70 c 0,20,21
EndSplineSet
Validated: 524289
EndChar

StartChar: d
Encoding: 100 100 279
Width: 614
GlyphClass: 2
Flags: W
AnchorPoint: "Anchor-8" 594 510 basechar 0
AnchorPoint: "Anchor-7" 473 614 basechar 0
AnchorPoint: "Anchor-6" 308 510 basechar 0
AnchorPoint: "Anchor-5" 0 0 basechar 0
AnchorPoint: "Anchor-4" 308 0 basechar 0
LayerCount: 2
Fore
SplineSet
472 740 m 128,-1,1
 489.686523438 740 489.686523438 740 500.842773438 728.842773438 c 128,-1,2
 512 717.686523438 512 717.686523438 512 700 c 2,3,-1
 512 41.15234375 l 2,4,5
 512 23.9951171875 512 23.9951171875 500.741210938 12.0498046875 c 128,-1,6
 489.600585938 0.23046875 489.600585938 0.23046875 472 0.23046875 c 128,-1,7
 454.40234375 0.23046875 454.40234375 0.23046875 443.762695312 11.5341796875 c 128,-1,8
 433 22.96875 433 22.96875 433 41.15234375 c 2,9,-1
 433 69.7978515625 l 1,10,-1
 433 95.9326171875 l 1,11,-1
 418.428710938 74.466796875 l 2,12,13
 394.500976562 39.2158203125 394.500976562 39.2158203125 353.304652203 14.564453125 c 0,14,15
 312.412501569 -10 312.412501569 -10 265.674698795 -10 c 0,16,17
 204.224530936 -10 204.224530936 -10 154.294921875 24.7685546875 c 0,18,19
 101.129882812 59.6220703125 101.129882812 59.6220703125 70.12109375 122.014648438 c 0,20,21
 39 184.6328125 39 184.6328125 39 263 c 128,-1,22
 39 341.395507812 39 341.395507812 69.6435546875 404.032226562 c 0,23,24
 100.153320312 466.393554688 100.153320312 466.393554688 153.294921875 501.231445312 c 0,25,26
 203.288787964 536 203.288787964 536 262.86746988 536 c 0,27,28
 310.730174605 536 310.730174605 536 351.282387362 514.8125 c 128,-1,29
 391.882118317 493.6015625 391.882118317 493.6015625 418.752929688 460.001953125 c 2,30,-1
 433 442.193359375 l 1,31,-1
 433 465 l 1,32,-1
 433 700 l 2,33,34
 433 717.774414062 433 717.774414062 443.762695312 728.951171875 c 128,-1,0
 454.40234375 740 454.40234375 740 472 740 c 128,-1,1
275.967871486 62 m 128,-1,36
 322.188456953 62 322.188456953 62 358.215475182 88.365234375 c 128,-1,37
 394.227539062 114.614257812 394.227539062 114.614257812 415.689453125 160.407226562 c 0,38,39
 437 205.877929688 437 205.877929688 437 263 c 0,40,41
 437 319.059570312 437 319.059570312 415.705078125 365.037109375 c 0,42,43
 394.244140625 411.374023438 394.244140625 411.374023438 358.215475182 437.634765625 c 128,-1,44
 322.188456953 464 322.188456953 464 275.967871486 464 c 128,-1,45
 229.747286019 464 229.747286019 464 193.72026779 437.634765625 c 128,-1,46
 157.755859375 411.374023438 157.755859375 411.374023438 136.294921875 365.037109375 c 0,47,48
 115 319.059570312 115 319.059570312 115 263 c 0,49,50
 115 205.877929688 115 205.877929688 136.310546875 160.407226562 c 0,51,52
 157.772460938 114.614257812 157.772460938 114.614257812 193.72026779 88.365234375 c 128,-1,35
 229.747286019 62 229.747286019 62 275.967871486 62 c 128,-1,36
EndSplineSet
Validated: 524289
EndChar

StartChar: eth
Encoding: 240 240 280
Width: 571
Flags: W
LayerCount: 2
Fore
SplineSet
402.577148438 604.231445312 m 2,0,1
 450.735351562 539.365234375 450.735351562 539.365234375 475.33203125 456.717773438 c 0,2,3
 500 373.834960938 500 373.834960938 500 290 c 0,4,5
 500 204.875976562 500 204.875976562 468.333984375 141.055664062 c 0,6,7
 436.828125 77.5595703125 436.828125 77.5595703125 382.716796875 43.2568359375 c 0,8,9
 332.142528679 9 332.142528679 9 269.966244726 9 c 0,10,11
 208.731556566 9 208.731556566 9 157.798828125 43.7470703125 c 0,12,13
 103.061523438 78.6240234375 103.061523438 78.6240234375 71.048828125 138.282226562 c 128,-1,14
 39 198.010742188 39 198.010742188 39 270 c 0,15,16
 39 339.948242188 39 339.948242188 71.51171875 399.149414062 c 128,-1,17
 104.046875 458.391601562 104.046875 458.391601562 156.866210938 492.796875 c 0,18,19
 205.975066752 527 205.975066752 527 259.708860759 527 c 0,20,21
 326.640476661 527 326.640476661 527 372.964439939 479.233398438 c 2,22,-1
 395.080078125 457.478515625 l 1,23,-1
 385.62890625 487.409179688 l 2,24,25
 367.945024064 546.170898438 367.945024064 546.170898438 331.323868506 587.509765625 c 2,26,-1
 328.332435061 590.88671875 l 1,27,-1
 324.11710921 589.763671875 l 1,28,-1
 181.615601101 551.80859375 l 2,29,30
 173.128490078 550 173.128490078 550 168.324894515 550 c 0,31,32
 157.056640625 550 157.056640625 550 149.833984375 556.461914062 c 0,33,34
 143 562.577148438 143 562.577148438 143 576 c 0,35,36
 143 596.360351562 143 596.360351562 167.834973299 601.13671875 c 2,37,-1
 168.062631857 601.182617188 l 1,38,-1
 256.874056402 625.244140625 l 1,39,-1
 278.706512065 631.158203125 l 1,40,-1
 257.89851991 640.392578125 l 2,41,42
 230.449272317 652.573242188 230.449272317 652.573242188 200.161577828 661.708007812 c 0,43,44
 185.504009263 666.07421875 185.504009263 666.07421875 176.243769778 677.30078125 c 0,45,46
 167.392405063 688.030273438 167.392405063 688.030273438 167.392405063 701 c 0,47,48
 167.392405063 717.333007812 167.392405063 717.333007812 175.691925435 729.200195312 c 0,49,50
 183.244725738 740 183.244725738 740 198.164556962 740 c 0,51,52
 207.572319192 740 207.572319192 740 218.790422271 737.223632812 c 0,53,54
 294.309318961 716.733398438 294.309318961 716.733398438 352.610854266 660.072265625 c 2,55,-1
 355.492100969 657.272460938 l 1,56,-1
 359.282160634 658.201171875 l 1,57,-1
 427.67578125 674.176757812 l 2,58,59
 436.791992188 676 436.791992188 676 441 676 c 0,60,61
 452.9296875 676 452.9296875 676 460.6484375 669.053710938 c 0,62,63
 468 662.4375 468 662.4375 468 650 c 0,64,65
 468 640.180664062 468 640.180664062 461.68359375 633.493164062 c 0,66,67
 455.130859375 626.5546875 455.130859375 626.5546875 442.942382812 624.9296875 c 0,68,-1
 442.217773438 624.798828125 l 1,69,-1
 407.217773438 616.798828125 l 1,70,-1
 395.2734375 614.068359375 l 1,71,-1
 402.577148438 604.231445312 l 2,0,1
181.615601101 551.80859375 m 1,72,-1
 181.615601101 551.80859375 l 1,72,-1
269.966244726 79 m 128,-1,74
 311.430153118 79 311.430153118 79 345.501532832 103.887695312 c 0,75,76
 379.276956421 128.560546875 379.276956421 128.560546875 400.155273438 170.421875 c 128,-1,77
 421 212.111328125 421 212.111328125 421 262 c 0,78,79
 421 309.91015625 421 309.91015625 400.137695312 351.114257812 c 128,-1,80
 379.242352321 392.490234375 379.242352321 392.490234375 345.439609705 416.65625 c 0,81,82
 311.389174578 441 311.389174578 441 269.966244726 441 c 128,-1,83
 228.610701806 441 228.610701806 441 194.130447323 417.229492188 c 128,-1,84
 159.805000659 393.565429688 159.805000659 393.565429688 138.881835938 352.650390625 c 128,-1,85
 118 311.931640625 118 311.931640625 118 262 c 128,-1,86
 118 212.111328125 118 212.111328125 138.844726562 170.421875 c 128,-1,87
 159.734881824 128.534179688 159.734881824 128.534179688 194.005690434 103.858398438 c 0,88,73
 228.52965536 79 228.52965536 79 269.966244726 79 c 128,-1,74
EndSplineSet
Validated: 524289
EndChar

StartChar: dcroat
Encoding: 273 273 282
Width: 614
GlyphClass: 2
Flags: W
AnchorPoint: "Anchor-8" 594 510 basechar 0
AnchorPoint: "Anchor-7" 473 614 basechar 0
AnchorPoint: "Anchor-6" 308 510 basechar 0
AnchorPoint: "Anchor-5" 0 0 basechar 0
AnchorPoint: "Anchor-4" 308 0 basechar 0
LayerCount: 2
Fore
SplineSet
541 659 m 2,0,1
 558.958007812 659 558.958007812 659 570.185546875 649.020507812 c 0,2,3
 581 639.407226562 581 639.407226562 581 624 c 128,-1,4
 581 608.495117188 581 608.495117188 570.064453125 598.370117188 c 0,5,6
 558.865234375 588 558.865234375 588 541 588 c 2,7,-1
 520 588 l 1,8,-1
 512 588 l 1,9,-1
 512 580 l 1,10,-1
 512 41.3935546875 l 2,11,12
 512 24.1552734375 512 24.1552734375 500.741210938 12.154296875 c 128,-1,13
 489.600585938 0.2783203125 489.600585938 0.2783203125 472 0.2783203125 c 0,14,15
 454.734301297 0.2783203125 454.734301297 0.2783203125 444.629981083 11.6357421875 c 128,-1,16
 434.408805031 23.1240234375 434.408805031 23.1240234375 434.408805031 41.3935546875 c 2,17,-1
 434.408805031 70.173828125 l 1,18,-1
 434.408805031 96.431640625 l 1,19,-1
 420.570662588 74.8642578125 l 2,20,21
 397.846839377 39.447265625 397.846839377 39.447265625 356.199789947 14.6806640625 c 128,-1,22
 314.6983466 -10 314.6983466 -10 267.264150943 -10 c 0,23,24
 204.898376081 -10 204.898376081 -10 154.294921875 24.7685546875 c 0,25,26
 101.129882812 59.6220703125 101.129882812 59.6220703125 70.12109375 122.014648438 c 0,27,28
 39 184.6328125 39 184.6328125 39 263 c 128,-1,29
 39 341.395507812 39 341.395507812 69.6435546875 404.032226562 c 0,30,31
 100.153320312 466.393554688 100.153320312 466.393554688 153.294921875 501.231445312 c 0,32,33
 203.948690546 536 203.948690546 536 264.41509434 536 c 0,34,35
 312.990952978 536 312.990952978 536 354.147393377 514.8125 c 128,-1,36
 395.352059994 493.6015625 395.352059994 493.6015625 420.878568445 460.001953125 c 2,37,-1
 434.408805031 442.193359375 l 1,38,-1
 434.408805031 465 l 1,39,-1
 434.408805031 580 l 1,40,-1
 434.408805031 588 l 1,41,-1
 426.811320755 588 l 1,42,-1
 375.528301887 588 l 2,43,44
 358.561947229 588 358.561947229 588 347.926211183 598.370117188 c 0,45,46
 337.540880503 608.495117188 337.540880503 608.495117188 337.540880503 624 c 128,-1,47
 337.540880503 639.407226562 337.540880503 639.407226562 347.8112102 649.020507812 c 0,48,49
 358.473841637 659 358.473841637 659 375.528301887 659 c 2,50,-1
 426.811320755 659 l 1,51,-1
 434.408805031 659 l 1,52,-1
 434.408805031 667 l 1,53,-1
 434.408805031 700 l 2,54,55
 434.408805031 717.774414062 434.408805031 717.774414062 444.629981083 728.951171875 c 128,-1,56
 454.734301297 740 454.734301297 740 472 740 c 0,57,58
 489.686523438 740 489.686523438 740 500.842773438 728.842773438 c 128,-1,59
 512 717.686523438 512 717.686523438 512 700 c 2,60,-1
 512 667 l 1,61,-1
 512 659 l 1,62,-1
 520 659 l 1,63,-1
 541 659 l 2,0,1
277.710691824 62 m 128,-1,65
 324.61996364 62 324.61996364 62 361.183784149 88.365234375 c 128,-1,66
 397.587159739 114.614257812 397.587159739 114.614257812 417.969229068 160.407226562 c 0,67,68
 438.20754717 205.877929688 438.20754717 205.877929688 438.20754717 263 c 0,69,70
 438.20754717 319.059570312 438.20754717 319.059570312 417.984067905 365.037109375 c 0,71,72
 397.602926002 411.374023438 397.602926002 411.374023438 361.183784149 437.634765625 c 128,-1,73
 324.61996364 464 324.61996364 464 277.710691824 464 c 128,-1,74
 230.801420008 464 230.801420008 464 194.237599499 437.634765625 c 128,-1,75
 157.755859375 411.374023438 157.755859375 411.374023438 136.294921875 365.037109375 c 0,76,77
 115 319.059570312 115 319.059570312 115 263 c 0,78,79
 115 205.877929688 115 205.877929688 136.310546875 160.407226562 c 0,80,81
 157.772460938 114.614257812 157.772460938 114.614257812 194.237599499 88.365234375 c 128,-1,64
 230.801420008 62 230.801420008 62 277.710691824 62 c 128,-1,65
EndSplineSet
Validated: 524289
EndChar

StartChar: e
Encoding: 101 101 286
Width: 570
GlyphClass: 2
Flags: W
AnchorPoint: "Anchor-8" 0 0 basechar 0
AnchorPoint: "Anchor-7" 0 0 basechar 0
AnchorPoint: "Anchor-6" 286 510 basechar 0
AnchorPoint: "Anchor-5" 513 10 basechar 0
AnchorPoint: "Anchor-4" 285 0 basechar 0
LayerCount: 2
Fore
SplineSet
498.998046875 283.14453125 m 0,0,1
 497.87890625 268.056640625 497.87890625 268.056640625 486.671875 257.765625 c 0,2,3
 474.948242188 247 474.948242188 247 459 247 c 2,4,-1
 123 247 l 1,5,-1
 114.196289062 247 l 1,6,-1
 115.036132812 237.83984375 l 2,7,8
 122.33203125 158.3203125 122.33203125 158.3203125 172.167364956 110.157226562 c 0,9,10
 219.511251979 62 219.511251979 62 287.643990367 62 c 0,11,12
 334.043839955 62 334.043839955 62 363.50927839 76.7509765625 c 0,13,14
 393.088867188 91.080078125 393.088867188 91.080078125 416.859375 113.581054688 c 0,15,16
 429.609375 121 429.609375 121 441 121 c 0,17,18
 454.5859375 121 454.5859375 121 463.723632812 111.46484375 c 128,-1,19
 473 101.78515625 473 101.78515625 473 89 c 0,20,21
 473 71.69921875 473 71.69921875 455.818359375 57.095703125 c 0,22,-1
 455.342773438 56.6572265625 l 2,23,24
 427.461914062 28.7763671875 427.461914062 28.7763671875 380.922851562 9.384765625 c 0,25,26
 337.423985563 -10 337.423985563 -10 292.30500451 -10 c 0,27,28
 218.721064425 -10 218.721064425 -10 163.074745958 23.998046875 c 0,29,30
 103.897460938 57.8701171875 103.897460938 57.8701171875 71.51171875 118.620117188 c 0,31,32
 39 179.608398438 39 179.608398438 39 256.819335938 c 0,33,34
 39 341.260742188 39 341.260742188 72.529296875 404.836914062 c 128,-1,35
 105.990234375 468.283203125 105.990234375 468.283203125 160.514829597 502.153320312 c 0,36,37
 211.410008841 536 211.410008841 536 269.932136621 536 c 0,38,39
 327.559386098 536 327.559386098 536 378.010312432 503.200195312 c 0,40,41
 432.1484375 470.344726562 432.1484375 470.344726562 465.098632812 412.536132812 c 0,42,43
 497.791015625 355.178710938 497.791015625 355.178710938 498.998046875 283.14453125 c 0,0,1
269.932136621 464 m 0,44,45
 215.19435177 464 215.19435177 464 174.964883797 429.014648438 c 0,46,47
 132.733398438 393.836914062 132.733398438 393.836914062 119.150390625 321.072265625 c 2,48,-1
 117.270507812 311 l 1,49,-1
 127 311 l 1,50,-1
 406 311 l 1,51,-1
 414 311 l 1,52,-1
 414 319.44140625 l 1,53,-1
 414 327.8828125 l 1,54,-1
 413.96484375 328.67578125 l 2,55,56
 408.646484375 388.163085938 408.646484375 388.163085938 364.548903029 426.274414062 c 0,57,58
 322.887447703 464 322.887447703 464 269.932136621 464 c 0,44,45
EndSplineSet
Validated: 524289
EndChar

StartChar: uni1E1D
Encoding: 7709 7709 290
Width: 570
GlyphClass: 2
Flags: W
AnchorPoint: "Anchor-8" 0 0 basechar 0
AnchorPoint: "Anchor-7" 0 0 basechar 0
AnchorPoint: "Anchor-6" 0 0 basechar 0
AnchorPoint: "Anchor-5" 513 10 basechar 0
AnchorPoint: "Anchor-4" 285 -148 basechar 0
LayerCount: 2
Fore
SplineSet
267.135528134 588 m 128,-1,1
 219.181703714 588 219.181703714 588 183.836286693 615.015625 c 0,2,3
 147.954101562 641.868164062 147.954101562 641.868164062 135.7109375 686.1328125 c 0,4,-1
 135.490234375 686.80859375 l 2,5,6
 133 693.450195312 133 693.450195312 133 699 c 0,7,8
 133 708.686523438 133 708.686523438 138.657226562 714.342773438 c 128,-1,9
 144.313476562 720 144.313476562 720 154 720 c 0,10,11
 166.864551013 720 166.864551013 720 174.707253523 713.990234375 c 0,12,13
 183.144417406 707.525390625 183.144417406 707.525390625 192.466445694 693.202148438 c 0,14,15
 201.848557367 668.349609375 201.848557367 668.349609375 221.204511024 655.236328125 c 128,-1,16
 240.740714837 642 240.740714837 642 267.135528134 642 c 128,-1,17
 293.579500565 642 293.579500565 642 312.676913594 655.288085938 c 0,18,19
 331.52124812 668.400390625 331.52124812 668.400390625 340.873318101 693.202148438 c 0,20,21
 350.194436034 707.525390625 350.194436034 707.525390625 358.631599917 713.990234375 c 0,22,23
 366.474302427 720 366.474302427 720 379 720 c 0,24,25
 388.975585938 720 388.975585938 720 395.20703125 714.500976562 c 0,26,27
 401 709.389648438 401 709.389648438 401 700 c 0,28,29
 401 695.450195312 401 695.450195312 398.509765625 688.80859375 c 2,30,-1
 398.376953125 688.456054688 l 1,31,32
 386.016601562 642.818359375 386.016601562 642.818359375 350.385610442 615.4765625 c 0,33,0
 315.055669445 588 315.055669445 588 267.135528134 588 c 128,-1,1
498.998046875 283.14453125 m 0,34,35
 497.87890625 268.056640625 497.87890625 268.056640625 486.671875 257.765625 c 0,36,37
 474.948242188 247 474.948242188 247 459 247 c 2,38,-1
 123 247 l 1,39,-1
 114.196289062 247 l 1,40,-1
 115.036132812 237.83984375 l 2,41,42
 122.33203125 158.3203125 122.33203125 158.3203125 172.167364956 110.157226562 c 0,43,44
 219.511251979 62 219.511251979 62 287.643990367 62 c 0,45,46
 334.043839955 62 334.043839955 62 363.50927839 76.7509765625 c 0,47,48
 393.088867188 91.080078125 393.088867188 91.080078125 416.859375 113.581054688 c 0,49,50
 429.609375 121 429.609375 121 441 121 c 0,51,52
 454.5859375 121 454.5859375 121 463.723632812 111.46484375 c 128,-1,53
 473 101.78515625 473 101.78515625 473 89 c 0,54,55
 473 71.69921875 473 71.69921875 455.818359375 57.095703125 c 0,56,-1
 455.342773438 56.6572265625 l 2,57,58
 432.27734375 33.5908203125 432.27734375 33.5908203125 396.961914062 16.1748046875 c 0,59,60
 362.772801741 -1.2666015625 362.772801741 -1.2666015625 325.716828945 -7.083984375 c 2,61,-1
 321.481860625 -7.7490234375 l 1,62,-1
 319.880547367 -12.0068359375 l 1,63,-1
 276.959161655 -126.11328125 l 2,64,65
 269.402310403 -148 269.402310403 -148 251.288080046 -148 c 0,66,67
 237.476184228 -148 237.476184228 -148 221.050661143 -137.609375 c 0,68,69
 206.542344266 -128.430664062 206.542344266 -128.430664062 206.542344266 -116 c 0,70,71
 206.542344266 -105.092773438 206.542344266 -105.092773438 213.925317841 -96.3818359375 c 0,72,-1
 214.344080831 -95.8408203125 l 1,73,-1
 267.479642069 -20.8408203125 l 1,74,-1
 275.700141623 -9.23828125 l 1,75,-1
 262.161352103 -8.02734375 l 2,76,77
 196.959954642 -2.0224609375 196.959954642 -2.0224609375 147.4375 33.8896484375 c 0,78,79
 95.193359375 69.7744140625 95.193359375 69.7744140625 67.142578125 127.076171875 c 128,-1,80
 39 184.567382812 39 184.567382812 39 256.788085938 c 0,81,82
 39 341.239257812 39 341.239257812 72.529296875 404.823242188 c 128,-1,83
 105.990234375 468.276367188 105.990234375 468.276367188 160.514829597 502.149414062 c 0,84,85
 211.410008841 536 211.410008841 536 269.932136621 536 c 0,86,87
 327.559386098 536 327.559386098 536 378.010312432 503.200195312 c 0,88,89
 432.1484375 470.344726562 432.1484375 470.344726562 465.098632812 412.536132812 c 0,90,91
 497.791015625 355.178710938 497.791015625 355.178710938 498.998046875 283.14453125 c 0,34,35
269.932136621 464 m 0,92,93
 215.19435177 464 215.19435177 464 174.964883797 429.014648438 c 0,94,95
 132.733398438 393.836914062 132.733398438 393.836914062 119.150390625 321.072265625 c 2,96,-1
 117.270507812 311 l 1,97,-1
 127 311 l 1,98,-1
 406 311 l 1,99,-1
 414 311 l 1,100,-1
 414 319.44140625 l 1,101,-1
 414 327.8828125 l 1,102,-1
 413.96484375 328.67578125 l 2,103,104
 408.646484375 388.163085938 408.646484375 388.163085938 364.548903029 426.274414062 c 0,105,106
 322.887447703 464 322.887447703 464 269.932136621 464 c 0,92,93
EndSplineSet
Validated: 524289
EndChar

StartChar: eogonek
Encoding: 281 281 307
Width: 570
GlyphClass: 2
Flags: W
AnchorPoint: "Anchor-8" 0 0 basechar 0
AnchorPoint: "Anchor-7" 0 0 basechar 0
AnchorPoint: "Anchor-6" 290 510 basechar 0
AnchorPoint: "Anchor-5" 513 10 basechar 0
AnchorPoint: "Anchor-4" 285 0 basechar 0
LayerCount: 2
Fore
SplineSet
498.998046875 283.14453125 m 0,0,1
 497.87890625 268.056640625 497.87890625 268.056640625 486.671875 257.765625 c 0,2,3
 474.948242188 247 474.948242188 247 459 247 c 2,4,-1
 123 247 l 1,5,-1
 114.196289062 247 l 1,6,-1
 115.036132812 237.83984375 l 2,7,8
 122.33203125 158.3203125 122.33203125 158.3203125 172.167364956 110.157226562 c 0,9,10
 219.511251979 62 219.511251979 62 287.643990367 62 c 0,11,12
 334.043839955 62 334.043839955 62 363.50927839 76.7509765625 c 0,13,14
 393.088867188 91.080078125 393.088867188 91.080078125 417.0546875 113.765625 c 0,15,16
 427.93359375 121 427.93359375 121 441 121 c 0,17,18
 455.3203125 121 455.3203125 121 464.92578125 109.793945312 c 0,19,20
 475 98.041015625 475 98.041015625 475 86 c 0,21,22
 475 69.1171875 475 69.1171875 457.349609375 56.509765625 c 2,23,-1
 457.0625 56.3046875 l 2,24,25
 449.786132812 50.0673828125 449.786132812 50.0673828125 417.278320312 22.060546875 c 0,26,27
 383.8203125 -6.7646484375 383.8203125 -6.7646484375 368.43247458 -33.3447265625 c 0,28,29
 352.898188379 -60.759765625 352.898188379 -60.759765625 352.898188379 -89 c 0,30,31
 352.898188379 -112.112304688 352.898188379 -112.112304688 365.112412357 -126.40625 c 0,32,33
 377.583356254 -141 377.583356254 -141 398 -141 c 0,34,35
 418 -141 418 -141 429.46875 -125.708007812 c 0,36,37
 439.145507812 -112 439.145507812 -112 457 -112 c 0,38,39
 468.686523438 -112 468.686523438 -112 476.342773438 -119.657226562 c 128,-1,40
 484 -127.313476562 484 -127.313476562 484 -141 c 0,41,42
 484 -152.762695312 484 -152.762695312 471.250976562 -165.936523438 c 0,43,44
 457.326171875 -180.326171875 457.326171875 -180.326171875 435.236328125 -190.196289062 c 128,-1,45
 413.293945312 -200 413.293945312 -200 390 -200 c 0,46,47
 348.127931716 -200 348.127931716 -200 320.366676577 -175.338867188 c 0,48,49
 293.237207339 -151.23828125 293.237207339 -151.23828125 293.237207339 -106 c 0,50,51
 293.237207339 -56.4375 293.237207339 -56.4375 327.268072714 -21.8037109375 c 2,52,-1
 342.848786986 -5.947265625 l 1,53,-1
 321.460012121 -8.033203125 l 2,54,55
 301.288380989 -10 301.288380989 -10 292.30500451 -10 c 0,56,57
 218.721064425 -10 218.721064425 -10 163.074745958 23.998046875 c 0,58,59
 103.897460938 57.8701171875 103.897460938 57.8701171875 71.51171875 118.620117188 c 0,60,61
 39 179.608398438 39 179.608398438 39 256.819335938 c 0,62,63
 39 341.260742188 39 341.260742188 72.529296875 404.836914062 c 128,-1,64
 105.990234375 468.283203125 105.990234375 468.283203125 160.514829597 502.153320312 c 0,65,66
 211.410008841 536 211.410008841 536 269.932136621 536 c 0,67,68
 327.559386098 536 327.559386098 536 378.010312432 503.200195312 c 0,69,70
 432.1484375 470.344726562 432.1484375 470.344726562 465.098632812 412.536132812 c 0,71,72
 497.791015625 355.178710938 497.791015625 355.178710938 498.998046875 283.14453125 c 0,0,1
269.932136621 464 m 0,73,74
 213.305366546 464 213.305366546 464 173.531986089 428.984375 c 0,75,76
 131.67578125 393.765625 131.67578125 393.765625 119.12890625 320.951171875 c 2,77,-1
 117.4140625 311 l 1,78,-1
 127 311 l 1,79,-1
 406 311 l 1,80,-1
 414 311 l 1,81,-1
 414 319.44140625 l 1,82,-1
 414 327.8828125 l 1,83,-1
 413.96484375 328.67578125 l 2,84,85
 408.646484375 388.163085938 408.646484375 388.163085938 364.548903029 426.274414062 c 0,86,87
 322.887447703 464 322.887447703 464 269.932136621 464 c 0,73,74
EndSplineSet
Validated: 524289
EndChar

StartChar: uni0259
Encoding: 601 601 309
Width: 570
GlyphClass: 2
Flags: W
AnchorPoint: "Anchor-8" 0 0 basechar 0
AnchorPoint: "Anchor-7" 0 0 basechar 0
AnchorPoint: "Anchor-6" 285 511 basechar 0
AnchorPoint: "Anchor-5" 57 501 basechar 0
AnchorPoint: "Anchor-4" 284 1 basechar 0
LayerCount: 2
Fore
SplineSet
246.625245193 513 m 0,0,1
 320.195529964 513 320.195529964 513 375.367553827 480.01171875 c 0,2,3
 434.106445312 447.125 434.106445312 447.125 466.5 388.625 c 0,4,5
 498.998046875 329.796875 498.998046875 329.796875 498.998046875 253.686523438 c 0,6,7
 498.998046875 169.385742188 498.998046875 169.385742188 465.46875 105.915039062 c 128,-1,8
 432.021484375 42.6005859375 432.021484375 42.6005859375 377.525093577 9.3037109375 c 0,9,10
 326.614438309 -24 326.614438309 -24 268.065910254 -24 c 0,11,12
 210.412260501 -24 210.412260501 -24 159.944947789 8.3134765625 c 0,13,14
 105.834960938 40.65234375 105.834960938 40.65234375 72.900390625 98.4345703125 c 0,15,16
 40.20703125 155.791992188 40.20703125 155.791992188 39 227.844726562 c 0,17,18
 40.1240234375 243.947265625 40.1240234375 243.947265625 51.326171875 254.234375 c 0,19,20
 63.0498046875 265 63.0498046875 265 78.998046875 265 c 2,21,-1
 414.998046875 265 l 1,22,-1
 423.922851562 265 l 1,23,-1
 422.951171875 273.87109375 l 2,24,25
 414.620117188 349.88671875 414.620117188 349.88671875 364.899389445 395.924804688 c 0,26,27
 317.555502421 442 317.555502421 442 250.354056508 442 c 0,28,29
 204.886409749 442 204.886409749 442 175.420971313 427.249023438 c 0,30,31
 145.978515625 412.952148438 145.978515625 412.952148438 121.208984375 390.459960938 c 0,32,33
 108.388671875 383 108.388671875 383 96.998046875 383 c 0,34,35
 83.412109375 383 83.412109375 383 74.2744140625 392.53515625 c 128,-1,36
 64.998046875 402.21484375 64.998046875 402.21484375 64.998046875 415 c 0,37,38
 64.998046875 432.155273438 64.998046875 432.155273438 81.99609375 445.752929688 c 0,39,-1
 82.6552734375 446.342773438 l 2,40,41
 110.536132812 474.223632812 110.536132812 474.223632812 157.075195312 493.615234375 c 0,42,43
 200.574971666 513 200.574971666 513 246.625245193 513 c 0,0,1
268.065910254 48 m 0,44,45
 322.771832703 48 322.771832703 48 362.987645362 82.4306640625 c 0,46,47
 405.2578125 117.095703125 405.2578125 117.095703125 418.84765625 189.923828125 c 2,48,-1
 420.727539062 200 l 1,49,-1
 410.998046875 200 l 1,50,-1
 131.998046875 200 l 1,51,-1
 123.998046875 200 l 1,52,-1
 123.998046875 191.555664062 l 1,53,-1
 123.998046875 184.166992188 l 1,54,-1
 124.034179688 183.374023438 l 2,55,56
 129.352539062 123.864257812 129.352539062 123.864257812 173.4500542 85.7392578125 c 0,57,58
 215.111509527 48 215.111509527 48 268.065910254 48 c 0,44,45
EndSplineSet
Validated: 524289
EndChar

StartChar: f
Encoding: 102 102 310
Width: 390
GlyphClass: 2
Flags: W
AnchorPoint: "Anchor-8" 0 0 basechar 0
AnchorPoint: "Anchor-7" 0 0 basechar 0
AnchorPoint: "Anchor-6" 196 510 basechar 0
AnchorPoint: "Anchor-5" 0 0 basechar 0
AnchorPoint: "Anchor-4" 196 0 basechar 0
LayerCount: 2
Fore
SplineSet
271 670 m 0,0,1
 235.241802251 670 235.241802251 670 219.967325473 646.900390625 c 0,2,3
 205.311926606 624.737304688 205.311926606 624.737304688 205.311926606 593 c 2,4,-1
 205.311926606 523 l 1,5,-1
 205.311926606 515 l 1,6,-1
 212.137614679 515 l 1,7,-1
 306 515 l 2,8,9
 322.686523438 515 322.686523438 515 332.842773438 504.842773438 c 128,-1,10
 343 494.686523438 343 494.686523438 343 479 c 128,-1,11
 343 463.41015625 343 463.41015625 332.959960938 453.771484375 c 128,-1,12
 322.78125 444 322.78125 444 306 444 c 2,13,-1
 212.137614679 444 l 1,14,-1
 205.311926606 444 l 1,15,-1
 205.311926606 436 l 1,16,-1
 205.311926606 56 l 2,17,18
 205.311926606 39.228515625 205.311926606 39.228515625 195.705803827 27.552734375 c 128,-1,19
 186.200499928 16 186.200499928 16 171.183486239 16 c 0,20,21
 157.019683558 16 157.019683558 16 147.258789062 27.552734375 c 0,22,23
 136 39.228515625 136 39.228515625 136 56 c 2,24,-1
 136 436 l 1,25,-1
 136 444 l 1,26,-1
 128 444 l 1,27,-1
 66 444 l 2,28,29
 50.1279296875 444 50.1279296875 444 39.42578125 453.87890625 c 0,30,31
 29 463.502929688 29 463.502929688 29 479 c 128,-1,32
 29 494.59375 29 494.59375 39.544921875 504.733398438 c 128,-1,33
 50.22265625 515 50.22265625 515 66 515 c 2,34,-1
 128 515 l 1,35,-1
 136 515 l 1,36,-1
 136 523 l 1,37,-1
 136 593 l 2,38,39
 136 659.495117188 136 659.495117188 174.104734088 698.619140625 c 0,40,41
 210.538677251 738 210.538677251 738 284 738 c 0,42,43
 316.176757812 738 316.176757812 738 340.533203125 726.290039062 c 0,44,45
 362 715.969726562 362 715.969726562 362 696 c 0,46,47
 362 680.120117188 362 680.120117188 352.612304688 669.916015625 c 0,48,49
 343.489257812 660 343.489257812 660 331 660 c 0,50,51
 327.9140625 660 327.9140625 660 310.918945312 663.768554688 c 0,52,53
 288.00390625 670 288.00390625 670 271 670 c 0,0,1
310.918945312 663.768554688 m 1,54,-1
 310.918945312 663.768554688 l 1,54,-1
EndSplineSet
Validated: 524289
EndChar

StartChar: g
Encoding: 103 103 311
Width: 627
GlyphClass: 2
Flags: W
AnchorPoint: "Anchor-8" 0 0 basechar 0
AnchorPoint: "Anchor-7" 0 0 basechar 0
AnchorPoint: "Anchor-6" 314 510 basechar 0
AnchorPoint: "Anchor-5" 0 0 basechar 0
AnchorPoint: "Anchor-4" 314 0 basechar 0
LayerCount: 2
Fore
SplineSet
485 531 m 128,-1,1
 502.686523438 531 502.686523438 531 513.842773438 519.551757812 c 128,-1,2
 525 508.103515625 525 508.103515625 525 488.928710938 c 2,3,-1
 525 37.4296875 l 2,4,5
 525 -43.3076171875 525 -43.3076171875 491.740234375 -97.220703125 c 0,6,7
 458.543945312 -149.662109375 458.543945312 -149.662109375 401.97139641 -174.6796875 c 0,8,9
 348.021357646 -200 348.021357646 -200 280.122137405 -200 c 0,10,11
 243.531324547 -200 243.531324547 -200 194.233763717 -186.260742188 c 0,12,13
 145.123046875 -172.809570312 145.123046875 -172.809570312 131.657226562 -159.342773438 c 2,14,-1
 130.776367188 -158.461914062 l 1,15,-1
 129.668945312 -157.890625 l 2,16,17
 103 -144.125976562 103 -144.125976562 103 -125 c 0,18,19
 103 -120.541015625 103 -120.541015625 106.376953125 -112.09765625 c 0,20,21
 115.219726562 -92 115.219726562 -92 136 -92 c 0,22,23
 147.458984375 -92 147.458984375 -92 160.942964277 -97.4443359375 c 0,24,25
 237.404431059 -129 237.404431059 -129 281.061068702 -129 c 0,26,27
 359.072138896 -129 359.072138896 -129 401.123240697 -88.4287109375 c 0,28,29
 446 -47.5478515625 446 -47.5478515625 446 23 c 2,30,-1
 446 77 l 1,31,-1
 446 108.731445312 l 1,32,-1
 430.956054688 80.79296875 l 2,33,34
 411.05078125 43.826171875 411.05078125 43.826171875 366.092117426 16.962890625 c 0,35,36
 321.336086594 -10 321.336086594 -10 271.671755725 -10 c 0,37,38
 209.007260854 -10 209.007260854 -10 157.186523438 24.837890625 c 0,39,40
 102.075195312 59.7001953125 102.075195312 59.7001953125 70.59765625 122.060546875 c 0,41,42
 39 184.66015625 39 184.66015625 39 263 c 128,-1,43
 39 341.33984375 39 341.33984375 70.59765625 403.939453125 c 0,44,45
 102.083007812 466.315429688 102.083007812 466.315429688 156.712890625 501.178710938 c 0,46,47
 208.084834208 536 208.084834208 536 269.79389313 536 c 0,48,49
 319.579258111 536 319.579258111 536 362.536281906 511.920898438 c 128,-1,50
 405.680664062 487.759765625 405.680664062 487.759765625 431.599609375 453.200195312 c 2,51,-1
 446 434 l 1,52,-1
 446 458 l 1,53,-1
 446 490 l 2,54,55
 446 507.858398438 446 507.858398438 456.862304688 519.556640625 c 0,56,0
 467.48828125 531 467.48828125 531 485 531 c 128,-1,1
282 62 m 0,57,58
 330.14223521 62 330.14223521 62 367.638053137 87.7197265625 c 128,-1,59
 405.122070312 113.426757812 405.122070312 113.426757812 427.638671875 159.780273438 c 0,60,61
 450 205.815429688 450 205.815429688 450 263 c 128,-1,62
 450 320.205078125 450 320.205078125 427.62109375 365.734375 c 0,63,64
 405.123046875 411.504882812 405.123046875 411.504882812 367.697653268 437.717773438 c 128,-1,65
 330.180746064 464 330.180746064 464 282 464 c 0,66,67
 234.758185234 464 234.758185234 464 197.24127803 437.717773438 c 128,-1,68
 159.806894084 411.494140625 159.806894084 411.494140625 137.361328125 365.177734375 c 0,69,70
 115 319.142578125 115 319.142578125 115 263 c 128,-1,71
 115 206.857421875 115 206.857421875 137.361328125 160.822265625 c 0,72,73
 159.806894084 114.505859375 159.806894084 114.505859375 197.24127803 88.2822265625 c 128,-1,74
 234.758185234 62 234.758185234 62 282 62 c 0,57,58
EndSplineSet
Validated: 524289
Substitution2: "'ss01' Style Set 1 lookup 17 subtable" g.ss01
Substitution2: "'salt' Stylistic Alternatives lookup 16 subtable" g.ss01
EndChar

StartChar: uni0123
Encoding: 291 291 315
Width: 627
GlyphClass: 2
Flags: W
AnchorPoint: "Anchor-8" 0 0 basechar 0
AnchorPoint: "Anchor-7" 0 0 basechar 0
AnchorPoint: "Anchor-6" 314 510 basechar 0
AnchorPoint: "Anchor-5" 0 0 basechar 0
AnchorPoint: "Anchor-4" 314 0 basechar 0
LayerCount: 2
Fore
SplineSet
313.923664122 598 m 0,0,1
 282.491471851 598 282.491471851 598 264.538078483 618.900390625 c 0,2,3
 246.320610687 640.107421875 246.320610687 640.107421875 246.320610687 678 c 0,4,5
 246.320610687 701.137695312 246.320610687 701.137695312 260.57146052 731.966796875 c 0,6,7
 274.955264492 763.083984375 274.955264492 763.083984375 297.352993798 784.553710938 c 0,8,9
 318.684339218 805 318.684339218 805 340.213740458 805 c 0,10,11
 353.64027463 805 353.64027463 805 361.481818046 798.63671875 c 0,12,13
 368.381679389 793.038085938 368.381679389 793.038085938 368.381679389 781 c 0,14,15
 368.381679389 770.888671875 368.381679389 770.888671875 364.680052779 767.791015625 c 0,16,17
 359.182169907 763.190429688 359.182169907 763.190429688 351.566190064 760.62890625 c 0,18,19
 342.379517533 757.5390625 342.379517533 757.5390625 337.424454318 755.427734375 c 0,20,-1
 336.652403387 755.043945312 l 2,21,22
 322.760988192 747.077148438 322.760988192 747.077148438 314.67370885 733.870117188 c 0,23,24
 306.41221374 720.377929688 306.41221374 720.377929688 306.41221374 704 c 0,25,26
 306.41221374 689.407226562 306.41221374 689.407226562 317.384139432 679.020507812 c 0,27,28
 327.968205809 669 327.968205809 669 343.969465649 669 c 0,29,30
 357.742597507 669 357.742597507 669 369.262844406 675.46875 c 1,31,32
 374.377452588 671.5 374.377452588 671.5 377.154818702 667.0625 c 0,33,34
 380.58778626 661.578125 380.58778626 661.578125 380.58778626 652.166992188 c 0,35,36
 379.803815303 632.138671875 379.803815303 632.138671875 358.72920891 615.415039062 c 0,37,38
 336.784440601 598 336.784440601 598 313.923664122 598 c 0,0,1
485 531 m 128,-1,40
 502.686523438 531 502.686523438 531 513.842773438 519.551757812 c 128,-1,41
 525 508.103515625 525 508.103515625 525 488.928710938 c 2,42,-1
 525 37.4296875 l 2,43,44
 525 -43.3076171875 525 -43.3076171875 491.740234375 -97.220703125 c 0,45,46
 458.543945312 -149.662109375 458.543945312 -149.662109375 401.97139641 -174.6796875 c 0,47,48
 348.021357646 -200 348.021357646 -200 280.122137405 -200 c 0,49,50
 243.531324547 -200 243.531324547 -200 194.233763717 -186.260742188 c 0,51,52
 145.123046875 -172.809570312 145.123046875 -172.809570312 131.657226562 -159.342773438 c 2,53,-1
 130.776367188 -158.461914062 l 1,54,-1
 129.668945312 -157.890625 l 2,55,56
 103 -144.125976562 103 -144.125976562 103 -125 c 0,57,58
 103 -120.541015625 103 -120.541015625 106.376953125 -112.09765625 c 0,59,60
 115.219726562 -92 115.219726562 -92 136 -92 c 0,61,62
 147.458984375 -92 147.458984375 -92 160.942964277 -97.4443359375 c 0,63,64
 237.404431059 -129 237.404431059 -129 281.061068702 -129 c 0,65,66
 359.072138896 -129 359.072138896 -129 401.123240697 -88.4287109375 c 0,67,68
 446 -47.5478515625 446 -47.5478515625 446 23 c 2,69,-1
 446 77 l 1,70,-1
 446 108.731445312 l 1,71,-1
 430.956054688 80.79296875 l 2,72,73
 411.05078125 43.826171875 411.05078125 43.826171875 366.092117426 16.962890625 c 0,74,75
 321.336086594 -10 321.336086594 -10 271.671755725 -10 c 0,76,77
 209.007260854 -10 209.007260854 -10 157.186523438 24.837890625 c 0,78,79
 102.075195312 59.7001953125 102.075195312 59.7001953125 70.59765625 122.060546875 c 0,80,81
 39 184.66015625 39 184.66015625 39 263 c 128,-1,82
 39 341.33984375 39 341.33984375 70.59765625 403.939453125 c 0,83,84
 102.083007812 466.315429688 102.083007812 466.315429688 156.712890625 501.178710938 c 0,85,86
 208.084834208 536 208.084834208 536 269.79389313 536 c 0,87,88
 319.579258111 536 319.579258111 536 362.536281906 511.920898438 c 128,-1,89
 405.680664062 487.759765625 405.680664062 487.759765625 431.599609375 453.200195312 c 2,90,-1
 446 434 l 1,91,-1
 446 458 l 1,92,-1
 446 490 l 2,93,94
 446 507.858398438 446 507.858398438 456.862304688 519.556640625 c 0,95,39
 467.48828125 531 467.48828125 531 485 531 c 128,-1,40
282 62 m 0,96,97
 330.14223521 62 330.14223521 62 367.638053137 87.7197265625 c 128,-1,98
 405.122070312 113.426757812 405.122070312 113.426757812 427.638671875 159.780273438 c 0,99,100
 450 205.815429688 450 205.815429688 450 263 c 128,-1,101
 450 320.205078125 450 320.205078125 427.62109375 365.734375 c 0,102,103
 405.123046875 411.504882812 405.123046875 411.504882812 367.697653268 437.717773438 c 128,-1,104
 330.180746064 464 330.180746064 464 282 464 c 0,105,106
 234.758185234 464 234.758185234 464 197.24127803 437.717773438 c 128,-1,107
 159.806894084 411.494140625 159.806894084 411.494140625 137.361328125 365.177734375 c 0,108,109
 115 319.142578125 115 319.142578125 115 263 c 128,-1,110
 115 206.857421875 115 206.857421875 137.361328125 160.822265625 c 0,111,112
 159.806894084 114.505859375 159.806894084 114.505859375 197.24127803 88.2822265625 c 128,-1,113
 234.758185234 62 234.758185234 62 282 62 c 0,96,97
EndSplineSet
Validated: 524289
Substitution2: "'ss01' Style Set 1 lookup 17 subtable" uni0123.ss01
Substitution2: "'salt' Stylistic Alternatives lookup 16 subtable" uni0123.ss01
EndChar

StartChar: h
Encoding: 104 104 318
Width: 579
GlyphClass: 2
Flags: W
AnchorPoint: "Anchor-8" 0 0 basechar 0
AnchorPoint: "Anchor-7" 120 592 basechar 0
AnchorPoint: "Anchor-6" 118 728 basechar 0
AnchorPoint: "Anchor-5" 0 0 basechar 0
AnchorPoint: "Anchor-4" 289 0 basechar 0
LayerCount: 2
Fore
SplineSet
312.243093923 533 m 0,0,1
 476 533 476 533 476 323 c 2,2,-1
 476 56 l 2,3,4
 476 39.228515625 476 39.228515625 464.741210938 27.552734375 c 128,-1,5
 453.600585938 16 453.600585938 16 436 16 c 0,6,7
 419.399414062 16 419.399414062 16 408.258789062 27.552734375 c 128,-1,8
 397 39.228515625 397 39.228515625 397 56 c 2,9,-1
 397 323 l 2,10,11
 397 461 397 461 285.806629834 461 c 0,12,13
 229.084318888 461 229.084318888 461 191.414850224 421.266601562 c 0,14,15
 150 381.40625 150 381.40625 150 323 c 2,16,-1
 150 56 l 2,17,18
 150 39.228515625 150 39.228515625 138.741210938 27.552734375 c 128,-1,19
 127.600585938 16 127.600585938 16 110 16 c 128,-1,20
 92.40234375 16 92.40234375 16 81.7626953125 27.048828125 c 128,-1,21
 71 38.2255859375 71 38.2255859375 71 56 c 2,22,-1
 71 700 l 2,23,24
 71 716.771484375 71 716.771484375 82.2587890625 728.447265625 c 128,-1,25
 93.3994140625 740 93.3994140625 740 110 740 c 0,26,27
 127.600585938 740 127.600585938 740 138.741210938 728.447265625 c 128,-1,28
 150 716.771484375 150 716.771484375 150 700 c 2,29,-1
 150 447 l 1,30,-1
 150 419.696289062 l 1,31,-1
 164.735351562 442.682617188 l 2,32,33
 188.7421875 480.133789062 188.7421875 480.133789062 228.532372238 506.673828125 c 0,34,35
 267.803376424 533 267.803376424 533 312.243093923 533 c 0,0,1
EndSplineSet
Validated: 524289
EndChar

StartChar: hbar
Encoding: 295 295 319
Width: 579
GlyphClass: 2
Flags: W
AnchorPoint: "Anchor-8" 0 0 basechar 0
AnchorPoint: "Anchor-7" 120 592 basechar 0
AnchorPoint: "Anchor-6" 118 728 basechar 0
AnchorPoint: "Anchor-5" 0 0 basechar 0
AnchorPoint: "Anchor-4" 289 0 basechar 0
LayerCount: 2
Fore
SplineSet
310.976744186 533 m 0,0,1
 476 533 476 533 476 323 c 2,2,-1
 476 56 l 2,3,4
 476 39.228515625 476 39.228515625 464.741210938 27.552734375 c 128,-1,5
 453.600585938 16 453.600585938 16 436 16 c 0,6,7
 419.399414062 16 419.399414062 16 408.258789062 27.552734375 c 128,-1,8
 397 39.228515625 397 39.228515625 397 56 c 2,9,-1
 397 323 l 2,10,11
 397 461 397 461 283.775193798 461 c 0,12,13
 225.411306928 461 225.411306928 461 186.651662427 421.266601562 c 128,-1,14
 147.76744186 381.40625 147.76744186 381.40625 147.76744186 323 c 2,15,-1
 147.76744186 56 l 2,16,17
 147.76744186 39.228515625 147.76744186 39.228515625 137.206872275 27.552734375 c 128,-1,18
 126.757138748 16 126.757138748 16 110 16 c 0,19,20
 92.40234375 16 92.40234375 16 81.7626953125 27.048828125 c 128,-1,21
 71 38.2255859375 71 38.2255859375 71 56 c 2,22,-1
 71 558 l 1,23,-1
 71 566 l 1,24,-1
 63 566 l 1,25,-1
 34 566 l 2,26,27
 16.134765625 566 16.134765625 566 4.935546875 576.370117188 c 0,28,29
 -6 586.495117188 -6 586.495117188 -6 603 c 0,30,31
 -6 618.407226562 -6 618.407226562 4.814453125 628.020507812 c 0,32,33
 16.0419921875 638 16.0419921875 638 34 638 c 2,34,-1
 63 638 l 1,35,-1
 71 638 l 1,36,-1
 71 646 l 1,37,-1
 71 700 l 2,38,39
 71 716.771484375 71 716.771484375 82.2587890625 728.447265625 c 128,-1,40
 93.3994140625 740 93.3994140625 740 110 740 c 128,-1,41
 126.757138748 740 126.757138748 740 137.206872275 728.447265625 c 128,-1,42
 147.76744186 716.771484375 147.76744186 716.771484375 147.76744186 700 c 2,43,-1
 147.76744186 646 l 1,44,-1
 147.76744186 638 l 1,45,-1
 155.271317829 638 l 1,46,-1
 198.418604651 638 l 2,47,48
 215.262937561 638 215.262937561 638 225.794195131 628.020507812 c 0,49,50
 235.937984496 618.407226562 235.937984496 618.407226562 235.937984496 603 c 0,51,52
 235.937984496 586.495117188 235.937984496 586.495117188 225.680611071 576.370117188 c 0,53,54
 215.175917515 566 215.175917515 566 198.418604651 566 c 2,55,-1
 155.271317829 566 l 1,56,-1
 147.76744186 566 l 1,57,-1
 147.76744186 558 l 1,58,-1
 147.76744186 447 l 1,59,-1
 147.76744186 419.696289062 l 1,60,-1
 161.588973171 442.682617188 l 2,61,62
 184.107013081 480.133789062 184.107013081 480.133789062 224.843386628 506.673828125 c 0,63,64
 265.250916 533 265.250916 533 310.976744186 533 c 0,0,1
EndSplineSet
Validated: 524289
EndChar

StartChar: dotlessi
Encoding: 305 305 324
Width: 227
GlyphClass: 2
Flags: W
AnchorPoint: "Anchor-8" 0 0 basechar 0
AnchorPoint: "Anchor-7" 0 0 basechar 0
AnchorPoint: "Anchor-6" 113 510 basechar 0
AnchorPoint: "Anchor-5" 197 10 basechar 0
AnchorPoint: "Anchor-4" 113 0 basechar 0
LayerCount: 2
Fore
SplineSet
145 48 m 2,0,1
 145 31.228515625 145 31.228515625 133.741210938 19.552734375 c 128,-1,2
 122.600585938 8 122.600585938 8 105 8 c 0,3,4
 88.3994140625 8 88.3994140625 8 77.2587890625 19.552734375 c 128,-1,5
 66 31.228515625 66 31.228515625 66 48 c 2,6,-1
 66 481 l 2,7,8
 66 497.771484375 66 497.771484375 77.2587890625 509.447265625 c 128,-1,9
 88.3994140625 521 88.3994140625 521 105 521 c 0,10,11
 122.600585938 521 122.600585938 521 133.741210938 509.447265625 c 128,-1,12
 145 497.771484375 145 497.771484375 145 481 c 2,13,-1
 145 48 l 2,0,1
EndSplineSet
Validated: 524289
EndChar

